Kufam-Medium.ufo
<glyph name="exclam" format="2">
  <advance width="307.3333333333333"/>
  <unicode hex="0021"/>
  <note>
exclam
</note>
  <outline>
    <contour>
      <point x="105.33333333333333" y="213.33333333333334" type="curve"/>
      <point x="198.66666666666666" y="213.33333333333334" type="line"/>
      <point x="200.0" y="220.0"/>
      <point x="208.0" y="318.5"/>
      <point x="208.0" y="427.8333333333333" type="curve" smooth="yes"/>
      <point x="208.0" y="566.0" type="line" smooth="yes"/>
      <point x="208.0" y="593.1666666666666"/>
      <point x="208.0" y="675.3333333333334"/>
      <point x="216.0" y="711.3333333333334" type="curve"/>
      <point x="213.33333333333334" y="720.0" type="line"/>
      <point x="96.0" y="720.0" type="line"/>
      <point x="96.0" y="427.8333333333333" type="line" smooth="yes"/>
      <point x="96.0" y="318.5"/>
      <point x="104.0" y="220.0"/>
    </contour>
    <contour>
      <point x="153.66666666666666" y="-8.666666666666666" type="curve" smooth="yes"/>
      <point x="194.66666666666666" y="-8.666666666666666"/>
      <point x="225.33333333333334" y="18.666666666666668"/>
      <point x="225.33333333333334" y="63.0" type="curve" smooth="yes"/>
      <point x="225.33333333333334" y="107.33333333333333"/>
      <point x="194.66666666666666" y="134.66666666666666"/>
      <point x="153.66666666666666" y="134.66666666666666" type="curve" smooth="yes"/>
      <point x="112.66666666666667" y="134.66666666666666"/>
      <point x="82.0" y="107.33333333333333"/>
      <point x="82.0" y="63.0" type="curve" smooth="yes"/>
      <point x="82.0" y="18.666666666666668"/>
      <point x="112.66666666666667" y="-8.666666666666666"/>
    </contour>
  </outline>
</glyph>
<glyph name="quotedbl" format="2">
  <advance width="355.3333333333333"/>
  <unicode hex="0022"/>
  <note>
quotedbl
</note>
  <outline>
    <contour>
      <point x="212.0" y="720.0" type="line"/>
      <point x="216.66666666666666" y="480.0" type="line"/>
      <point x="304.0" y="480.0" type="line"/>
      <point x="308.6666666666667" y="720.0" type="line"/>
    </contour>
    <contour>
      <point x="46.666666666666664" y="720.0" type="line"/>
      <point x="51.333333333333336" y="480.0" type="line"/>
      <point x="138.66666666666666" y="480.0" type="line"/>
      <point x="143.33333333333334" y="720.0" type="line"/>
    </contour>
  </outline>
</glyph>
<glyph name="numbersign" format="2">
  <advance width="616.0"/>
  <unicode hex="0023"/>
  <note>
numbersign
</note>
  <outline>
    <contour>
      <point x="312.0" y="0.0" type="line"/>
      <point x="396.6666666666667" y="0.0" type="line"/>
      <point x="528.6666666666666" y="720.0" type="line"/>
      <point x="444.0" y="720.0" type="line"/>
    </contour>
    <contour>
      <point x="32.0" y="213.33333333333334" type="line"/>
      <point x="560.0" y="213.33333333333334" type="line"/>
      <point x="560.0" y="292.6666666666667" type="line"/>
      <point x="32.0" y="292.6666666666667" type="line"/>
    </contour>
    <contour>
      <point x="87.33333333333333" y="0.0" type="line"/>
      <point x="172.0" y="0.0" type="line"/>
      <point x="304.0" y="720.0" type="line"/>
      <point x="219.33333333333334" y="720.0" type="line"/>
    </contour>
    <contour>
      <point x="56.0" y="427.3333333333333" type="line"/>
      <point x="584.0" y="427.3333333333333" type="line"/>
      <point x="584.0" y="506.6666666666667" type="line"/>
      <point x="56.0" y="506.6666666666667" type="line"/>
    </contour>
  </outline>
</glyph>
<glyph name="dollar" format="2">
  <advance width="616.0"/>
  <unicode hex="0024"/>
  <note>
dollar
</note>
  <outline>
    <contour>
      <point x="286.0" y="-12.0" type="curve" smooth="yes"/>
      <point x="440.6666666666667" y="-12.0"/>
      <point x="548.0" y="64.66666666666667"/>
      <point x="548.0" y="198.0" type="curve" smooth="yes"/>
      <point x="548.0" y="302.0"/>
      <point x="474.8333333333333" y="373.1666666666667"/>
      <point x="363.3333333333333" y="393.6666666666667" type="curve" smooth="yes"/>
      <point x="294.6666666666667" y="406.6666666666667" type="line" smooth="yes"/>
      <point x="222.5" y="420.3333333333333"/>
      <point x="183.33333333333334" y="443.3333333333333"/>
      <point x="183.33333333333334" y="512.0" type="curve" smooth="yes"/>
      <point x="183.33333333333334" y="600.0"/>
      <point x="259.0" y="632.0"/>
      <point x="372.0" y="632.0" type="curve" smooth="yes"/>
      <point x="430.0" y="632.0"/>
      <point x="485.0" y="619.5"/>
      <point x="516.0" y="606.0" type="curve"/>
      <point x="521.3333333333334" y="606.0" type="line"/>
      <point x="521.3333333333334" y="710.6666666666666" type="line"/>
      <point x="481.8333333333333" y="726.5"/>
      <point x="415.5" y="732.0"/>
      <point x="369.3333333333333" y="732.0" type="curve" smooth="yes"/>
      <point x="180.66666666666666" y="732.0"/>
      <point x="73.33333333333333" y="654.0"/>
      <point x="73.33333333333333" y="507.3333333333333" type="curve" smooth="yes"/>
      <point x="73.33333333333333" y="386.0"/>
      <point x="154.0" y="329.0"/>
      <point x="270.6666666666667" y="307.6666666666667" type="curve" smooth="yes"/>
      <point x="340.0" y="294.6666666666667" type="line" smooth="yes"/>
      <point x="406.8333333333333" y="282.1666666666667"/>
      <point x="436.3333333333333" y="247.33333333333334"/>
      <point x="436.3333333333333" y="193.66666666666666" type="curve" smooth="yes"/>
      <point x="436.3333333333333" y="125.33333333333333"/>
      <point x="377.3333333333333" y="88.66666666666667"/>
      <point x="286.0" y="88.66666666666667" type="curve" smooth="yes"/>
      <point x="205.16666666666666" y="88.66666666666667"/>
      <point x="125.83333333333333" y="108.66666666666667"/>
      <point x="82.0" y="134.66666666666666" type="curve"/>
      <point x="77.33333333333333" y="134.66666666666666" type="line"/>
      <point x="77.33333333333333" y="23.666666666666668" type="line"/>
      <point x="122.83333333333333" y="0.8333333333333334"/>
      <point x="217.0" y="-12.0"/>
    </contour>
    <contour>
      <point x="269.6666666666667" y="-159.66666666666666" type="line"/>
      <point x="368.3333333333333" y="-159.66666666666666" type="line"/>
      <point x="368.3333333333333" y="38.666666666666664" type="line"/>
      <point x="269.6666666666667" y="38.666666666666664" type="line"/>
    </contour>
    <contour>
      <point x="269.0" y="661.6666666666666" type="line"/>
      <point x="367.6666666666667" y="661.6666666666666" type="line"/>
      <point x="367.6666666666667" y="860.0" type="line"/>
      <point x="269.0" y="860.0" type="line"/>
    </contour>
  </outline>
</glyph>
<glyph name="ampersand" format="2">
  <advance width="654.0"/>
  <unicode hex="0026"/>
  <note>
ampersand
</note>
  <outline>
    <contour>
      <point x="331.0" y="-12.0" type="curve" smooth="yes"/>
      <point x="404.6666666666667" y="-12.0"/>
      <point x="481.3333333333333" y="4.666666666666667"/>
      <point x="535.6666666666666" y="28.0" type="curve"/>
      <point x="538.0" y="36.0" type="line"/>
      <point x="529.8333333333334" y="72.0"/>
      <point x="529.3333333333334" y="159.33333333333334"/>
      <point x="529.3333333333334" y="199.33333333333334" type="curve" smooth="yes"/>
      <point x="529.3333333333334" y="297.3333333333333" type="line"/>
      <point x="607.3333333333334" y="297.3333333333333" type="line"/>
      <point x="607.3333333333334" y="392.0" type="line"/>
      <point x="302.0" y="392.0" type="line" smooth="yes"/>
      <point x="222.0" y="392.0"/>
      <point x="164.0" y="424.0"/>
      <point x="164.0" y="502.6666666666667" type="curve" smooth="yes"/>
      <point x="164.0" y="593.3333333333334"/>
      <point x="244.0" y="630.6666666666666"/>
      <point x="352.0" y="630.6666666666666" type="curve" smooth="yes"/>
      <point x="422.0" y="630.6666666666666"/>
      <point x="477.3333333333333" y="614.0"/>
      <point x="511.3333333333333" y="597.3333333333334" type="curve"/>
      <point x="520.0" y="597.3333333333334" type="line"/>
      <point x="520.0" y="703.3333333333334" type="line"/>
      <point x="482.6666666666667" y="719.6666666666666"/>
      <point x="417.3333333333333" y="732.0"/>
      <point x="358.0" y="732.0" type="curve" smooth="yes"/>
      <point x="165.33333333333334" y="732.0"/>
      <point x="49.333333333333336" y="656.0"/>
      <point x="49.333333333333336" y="499.3333333333333" type="curve" smooth="yes"/>
      <point x="49.333333333333336" y="411.5"/>
      <point x="99.33333333333333" y="350.5"/>
      <point x="176.33333333333334" y="319.8333333333333" type="curve"/>
      <point x="177.83333333333334" y="349.1666666666667" type="line"/>
      <point x="104.83333333333333" y="318.0"/>
      <point x="64.33333333333333" y="261.8333333333333"/>
      <point x="64.33333333333333" y="183.33333333333334" type="curve" smooth="yes"/>
      <point x="64.33333333333333" y="33.333333333333336"/>
      <point x="186.0" y="-12.0"/>
    </contour>
    <contour>
      <point x="429.6666666666667" y="69.33333333333333" type="curve"/>
      <point x="450.8333333333333" y="101.33333333333333" type="line"/>
      <point x="415.5" y="86.66666666666667"/>
      <point x="382.3333333333333" y="80.66666666666667"/>
      <point x="338.8333333333333" y="80.66666666666667" type="curve" smooth="yes"/>
      <point x="241.0" y="80.66666666666667"/>
      <point x="174.66666666666666" y="103.33333333333333"/>
      <point x="174.66666666666666" y="189.33333333333334" type="curve" smooth="yes"/>
      <point x="174.66666666666666" y="260.1666666666667"/>
      <point x="227.66666666666666" y="297.3333333333333"/>
      <point x="315.6666666666667" y="297.3333333333333" type="curve" smooth="yes"/>
      <point x="421.0" y="297.3333333333333" type="line"/>
      <point x="421.0" y="159.33333333333334" type="line" smooth="yes"/>
      <point x="421.0" y="122.33333333333333"/>
      <point x="423.6666666666667" y="91.16666666666667"/>
    </contour>
  </outline>
</glyph>
<glyph name="parenleft" format="2">
  <advance width="362.0"/>
  <unicode hex="0028"/>
  <note>
parenleft
</note>
  <outline>
    <contour>
      <point x="212.66666666666666" y="-88.0" type="curve"/>
      <point x="327.3333333333333" y="-88.0" type="line"/>
      <point x="327.3333333333333" y="-84.0" type="line"/>
      <point x="232.66666666666666" y="20.0"/>
      <point x="173.33333333333334" y="160.0"/>
      <point x="173.33333333333334" y="336.0" type="curve" smooth="yes"/>
      <point x="173.33333333333334" y="512.0"/>
      <point x="232.66666666666666" y="652.0"/>
      <point x="327.3333333333333" y="756.0" type="curve"/>
      <point x="327.3333333333333" y="760.0" type="line"/>
      <point x="212.66666666666666" y="760.0" type="line"/>
      <point x="134.0" y="676.0"/>
      <point x="70.66666666666667" y="516.0"/>
      <point x="70.66666666666667" y="336.0" type="curve" smooth="yes"/>
      <point x="70.66666666666667" y="156.0"/>
      <point x="134.0" y="-4.0"/>
    </contour>
  </outline>
</glyph>
<glyph name="parenright" format="2">
  <advance width="362.0"/>
  <unicode hex="0029"/>
  <note>
parenright
</note>
  <outline>
    <contour>
      <point x="34.666666666666664" y="-84.0" type="curve"/>
      <point x="34.666666666666664" y="-88.0" type="line"/>
      <point x="149.33333333333334" y="-88.0" type="line"/>
      <point x="228.0" y="-4.0"/>
      <point x="291.3333333333333" y="156.0"/>
      <point x="291.3333333333333" y="336.0" type="curve" smooth="yes"/>
      <point x="291.3333333333333" y="516.0"/>
      <point x="228.0" y="676.0"/>
      <point x="149.33333333333334" y="760.0" type="curve"/>
      <point x="34.666666666666664" y="760.0" type="line"/>
      <point x="34.666666666666664" y="756.0" type="line"/>
      <point x="129.33333333333334" y="652.0"/>
      <point x="188.66666666666666" y="512.0"/>
      <point x="188.66666666666666" y="336.0" type="curve" smooth="yes"/>
      <point x="188.66666666666666" y="160.0"/>
      <point x="129.33333333333334" y="20.0"/>
    </contour>
  </outline>
</glyph>
<glyph name="asterisk" format="2">
  <advance width="544.0"/>
  <unicode hex="002A"/>
  <note>
asterisk
</note>
  <outline>
    <contour>
      <point x="239.33333333333334" y="498.0" type="line"/>
      <point x="225.33333333333334" y="276.0" type="line"/>
      <point x="318.6666666666667" y="276.0" type="line"/>
      <point x="304.6666666666667" y="498.0" type="line"/>
      <point x="318.6666666666667" y="720.0" type="line"/>
      <point x="225.33333333333334" y="720.0" type="line"/>
    </contour>
    <contour>
      <point x="255.66666666666666" y="469.6666666666667" type="line"/>
      <point x="441.3333333333333" y="346.8333333333333" type="line"/>
      <point x="488.0" y="427.1666666666667" type="line"/>
      <point x="288.3333333333333" y="526.3333333333334" type="line"/>
      <point x="102.66666666666667" y="649.1666666666666" type="line"/>
      <point x="56.0" y="568.8333333333334" type="line"/>
    </contour>
    <contour>
      <point x="288.3333333333333" y="469.6666666666667" type="line"/>
      <point x="487.1666666666667" y="568.8333333333334" type="line"/>
      <point x="441.3333333333333" y="650.0" type="line"/>
      <point x="255.66666666666666" y="526.3333333333334" type="line"/>
      <point x="56.833333333333336" y="427.1666666666667" type="line"/>
      <point x="102.66666666666667" y="346.0" type="line"/>
    </contour>
  </outline>
</glyph>
<glyph name="plus" format="2">
  <advance width="616.0"/>
  <unicode hex="002B"/>
  <note>
plus
</note>
  <outline>
    <contour>
      <point x="264.0" y="72.0" type="line"/>
      <point x="352.0" y="72.0" type="line"/>
      <point x="352.0" y="560.0" type="line"/>
      <point x="264.0" y="560.0" type="line"/>
    </contour>
    <contour>
      <point x="64.0" y="272.0" type="line"/>
      <point x="552.0" y="272.0" type="line"/>
      <point x="552.0" y="360.0" type="line"/>
      <point x="64.0" y="360.0" type="line"/>
    </contour>
  </outline>
</glyph>
<glyph name="comma" format="2">
  <advance width="280.6666666666667"/>
  <unicode hex="002C"/>
  <note>
comma
</note>
  <outline>
    <contour>
      <point x="113.83333333333333" y="-9.0" type="curve"/>
      <point x="40.166666666666664" y="-148.83333333333334" type="line"/>
      <point x="40.166666666666664" y="-156.66666666666666" type="line"/>
      <point x="128.83333333333334" y="-156.66666666666666" type="line"/>
      <point x="187.83333333333334" y="-28.333333333333332" type="line" smooth="yes"/>
      <point x="197.33333333333334" y="-7.666666666666666"/>
      <point x="212.5" y="23.166666666666668"/>
      <point x="212.5" y="58.333333333333336" type="curve" smooth="yes"/>
      <point x="212.5" y="110.66666666666667"/>
      <point x="181.33333333333334" y="134.66666666666666"/>
      <point x="140.33333333333334" y="134.66666666666666" type="curve" smooth="yes"/>
      <point x="99.33333333333333" y="134.66666666666666"/>
      <point x="68.66666666666667" y="106.83333333333333"/>
      <point x="68.66666666666667" y="59.666666666666664" type="curve" smooth="yes"/>
      <point x="68.66666666666667" y="20.5"/>
      <point x="94.0" y="0.0"/>
    </contour>
  </outline>
</glyph>
<glyph name="hyphen" format="2">
  <advance width="481.3333333333333"/>
  <unicode hex="002D"/>
  <note>
hyphen
</note>
  <outline>
    <contour>
      <point x="68.66666666666667" y="379.3333333333333" type="line"/>
      <point x="68.66666666666667" y="278.6666666666667" type="line"/>
      <point x="412.6666666666667" y="278.6666666666667" type="line"/>
      <point x="412.6666666666667" y="379.3333333333333" type="line"/>
    </contour>
  </outline>
</glyph>
<glyph name="period" format="2">
  <advance width="280.6666666666667"/>
  <unicode hex="002E"/>
  <note>
period
</note>
  <outline>
    <contour>
      <point x="140.33333333333334" y="-8.666666666666666" type="curve" smooth="yes"/>
      <point x="181.33333333333334" y="-8.666666666666666"/>
      <point x="212.0" y="18.666666666666668"/>
      <point x="212.0" y="63.0" type="curve" smooth="yes"/>
      <point x="212.0" y="107.33333333333333"/>
      <point x="181.33333333333334" y="134.66666666666666"/>
      <point x="140.33333333333334" y="134.66666666666666" type="curve" smooth="yes"/>
      <point x="99.33333333333333" y="134.66666666666666"/>
      <point x="68.66666666666667" y="107.33333333333333"/>
      <point x="68.66666666666667" y="63.0" type="curve" smooth="yes"/>
      <point x="68.66666666666667" y="18.666666666666668"/>
      <point x="99.33333333333333" y="-8.666666666666666"/>
    </contour>
  </outline>
</glyph>
<glyph name="slash" format="2">
  <advance width="528.0"/>
  <unicode hex="002F"/>
  <note>
slash
</note>
  <outline>
    <contour>
      <point x="406.0" y="720.0" type="line"/>
      <point x="22.0" y="0.0" type="line"/>
      <point x="122.0" y="0.0" type="line"/>
      <point x="506.0" y="720.0" type="line"/>
    </contour>
  </outline>
</glyph>
<glyph name="zero" format="2">
  <advance width="616.0"/>
  <unicode hex="0030"/>
  <note>
zero
</note>
  <outline>
    <contour>
      <point x="308.0" y="-12.0" type="curve" smooth="yes"/>
      <point x="492.6666666666667" y="-12.0"/>
      <point x="569.3333333333334" y="145.33333333333334"/>
      <point x="569.3333333333334" y="360.0" type="curve" smooth="yes"/>
      <point x="569.3333333333334" y="574.6666666666666"/>
      <point x="492.6666666666667" y="732.0"/>
      <point x="308.0" y="732.0" type="curve" smooth="yes"/>
      <point x="123.33333333333333" y="732.0"/>
      <point x="46.666666666666664" y="574.6666666666666"/>
      <point x="46.666666666666664" y="360.0" type="curve" smooth="yes"/>
      <point x="46.666666666666664" y="145.33333333333334"/>
      <point x="123.33333333333333" y="-12.0"/>
    </contour>
    <contour>
      <point x="308.0" y="85.33333333333333" type="curve" smooth="yes"/>
      <point x="203.33333333333334" y="85.33333333333333"/>
      <point x="160.0" y="184.0"/>
      <point x="160.0" y="360.0" type="curve" smooth="yes"/>
      <point x="160.0" y="536.0"/>
      <point x="203.33333333333334" y="634.6666666666666"/>
      <point x="308.0" y="634.6666666666666" type="curve" smooth="yes"/>
      <point x="412.6666666666667" y="634.6666666666666"/>
      <point x="456.0" y="536.0"/>
      <point x="456.0" y="360.0" type="curve" smooth="yes"/>
      <point x="456.0" y="184.0"/>
      <point x="412.6666666666667" y="85.33333333333333"/>
    </contour>
  </outline>
</glyph>
<glyph name="one" format="2">
  <advance width="616.0"/>
  <unicode hex="0031"/>
  <note>
one
</note>
  <outline>
    <contour>
      <point x="264.6666666666667" y="20.0" type="line"/>
      <point x="380.0" y="20.0" type="line"/>
      <point x="380.0" y="544.0" type="line" smooth="yes"/>
      <point x="380.0" y="584.0"/>
      <point x="380.0" y="668.0"/>
      <point x="388.0" y="704.0" type="curve"/>
      <point x="386.0" y="716.0" type="line"/>
      <point x="364.0" y="721.6666666666666"/>
      <point x="325.3333333333333" y="728.0"/>
      <point x="272.6666666666667" y="728.0" type="curve" smooth="yes"/>
      <point x="197.33333333333334" y="728.0"/>
      <point x="112.0" y="718.6666666666666"/>
      <point x="82.66666666666667" y="709.3333333333334" type="curve"/>
      <point x="82.66666666666667" y="625.3333333333334" type="line"/>
      <point x="315.0" y="625.3333333333334" type="line"/>
      <point x="271.6666666666667" y="634.0" type="line"/>
      <point x="267.5" y="635.3333333333334"/>
      <point x="264.6666666666667" y="572.1666666666666"/>
      <point x="264.6666666666667" y="541.3333333333334" type="curve" smooth="yes"/>
    </contour>
    <contour>
      <point x="66.0" y="0.0" type="line"/>
      <point x="556.6666666666666" y="0.0" type="line"/>
      <point x="556.6666666666666" y="99.33333333333333" type="line"/>
      <point x="66.0" y="99.33333333333333" type="line"/>
    </contour>
  </outline>
</glyph>
<glyph name="two" format="2">
  <advance width="616.0"/>
  <unicode hex="0032"/>
  <note>
two
</note>
  <outline>
    <contour>
      <point x="71.33333333333333" y="0.0" type="curve"/>
      <point x="553.3333333333334" y="0.0" type="line"/>
      <point x="553.3333333333334" y="98.0" type="line"/>
      <point x="118.83333333333333" y="98.0" type="line"/>
      <point x="171.33333333333334" y="70.83333333333333" type="line"/>
      <point x="164.66666666666666" y="85.83333333333333"/>
      <point x="161.16666666666666" y="91.66666666666667"/>
      <point x="161.16666666666666" y="110.83333333333333" type="curve" smooth="yes"/>
      <point x="161.16666666666666" y="176.5"/>
      <point x="197.16666666666666" y="224.33333333333334"/>
      <point x="295.3333333333333" y="249.0" type="curve" smooth="yes"/>
      <point x="340.6666666666667" y="260.6666666666667" type="line" smooth="yes"/>
      <point x="457.5" y="291.6666666666667"/>
      <point x="536.0" y="366.6666666666667"/>
      <point x="536.0" y="500.6666666666667" type="curve" smooth="yes"/>
      <point x="536.0" y="630.0"/>
      <point x="454.6666666666667" y="732.0"/>
      <point x="260.6666666666667" y="732.0" type="curve" smooth="yes"/>
      <point x="188.0" y="732.0"/>
      <point x="121.33333333333333" y="716.0"/>
      <point x="81.33333333333333" y="699.3333333333334" type="curve"/>
      <point x="81.33333333333333" y="598.0" type="line"/>
      <point x="90.0" y="598.0" type="line"/>
      <point x="130.66666666666666" y="617.0"/>
      <point x="186.0" y="634.0"/>
      <point x="252.66666666666666" y="634.0" type="curve" smooth="yes"/>
      <point x="367.3333333333333" y="634.0"/>
      <point x="426.0" y="584.6666666666666"/>
      <point x="426.0" y="499.6666666666667" type="curve" smooth="yes"/>
      <point x="426.0" y="416.0"/>
      <point x="386.0" y="372.6666666666667"/>
      <point x="304.0" y="351.6666666666667" type="curve" smooth="yes"/>
      <point x="256.5" y="339.6666666666667" type="line" smooth="yes"/>
      <point x="106.16666666666667" y="301.1666666666667"/>
      <point x="55.333333333333336" y="211.16666666666666"/>
      <point x="55.333333333333336" y="98.0" type="curve" smooth="yes"/>
      <point x="55.333333333333336" y="72.0"/>
      <point x="59.333333333333336" y="24.0"/>
    </contour>
  </outline>
</glyph>
<glyph name="three" format="2">
  <advance width="616.0"/>
  <unicode hex="0033"/>
  <note>
three
</note>
  <outline>
    <contour>
      <point x="254.0" y="-12.0" type="curve" smooth="yes"/>
      <point x="434.6666666666667" y="-12.0"/>
      <point x="539.3333333333334" y="78.0"/>
      <point x="539.3333333333334" y="211.33333333333334" type="curve" smooth="yes"/>
      <point x="539.3333333333334" y="341.5"/>
      <point x="450.8333333333333" y="422.3333333333333"/>
      <point x="283.0" y="421.8333333333333" type="curve"/>
      <point x="293.3333333333333" y="386.1666666666667" type="line"/>
      <point x="468.6666666666667" y="582.3333333333334" type="line" smooth="yes"/>
      <point x="494.8333333333333" y="612.1666666666666"/>
      <point x="511.3333333333333" y="642.6666666666666"/>
      <point x="511.3333333333333" y="675.3333333333334" type="curve" smooth="yes"/>
      <point x="511.3333333333333" y="684.0"/>
      <point x="509.0" y="700.0"/>
      <point x="506.6666666666667" y="710.0" type="curve"/>
      <point x="494.6666666666667" y="720.0" type="line"/>
      <point x="79.33333333333333" y="720.0" type="line"/>
      <point x="79.33333333333333" y="626.0" type="line"/>
      <point x="423.6666666666667" y="626.0" type="line"/>
      <point x="406.6666666666667" y="661.5" type="line"/>
      <point x="173.33333333333334" y="382.0" type="line"/>
      <point x="192.0" y="336.6666666666667" type="line"/>
      <point x="268.0" y="336.6666666666667" type="line" smooth="yes"/>
      <point x="377.3333333333333" y="336.6666666666667"/>
      <point x="428.6666666666667" y="288.0"/>
      <point x="428.6666666666667" y="214.66666666666666" type="curve" smooth="yes"/>
      <point x="428.6666666666667" y="154.66666666666666"/>
      <point x="390.0" y="84.0"/>
      <point x="252.66666666666666" y="84.0" type="curve" smooth="yes"/>
      <point x="180.0" y="84.0"/>
      <point x="115.33333333333333" y="108.66666666666667"/>
      <point x="78.0" y="133.0" type="curve"/>
      <point x="69.33333333333333" y="133.0" type="line"/>
      <point x="69.33333333333333" y="26.666666666666668" type="line"/>
      <point x="112.0" y="4.0"/>
      <point x="180.33333333333334" y="-12.0"/>
    </contour>
  </outline>
</glyph>
<glyph name="four" format="2">
  <advance width="616.0"/>
  <unicode hex="0034"/>
  <note>
four
</note>
  <outline>
    <contour>
      <point x="390.3333333333333" y="0.0" type="line"/>
      <point x="503.3333333333333" y="0.0" type="line"/>
      <point x="503.3333333333333" y="540.6666666666666" type="line" smooth="yes"/>
      <point x="503.3333333333333" y="580.6666666666666"/>
      <point x="503.3333333333333" y="661.3333333333334"/>
      <point x="509.6666666666667" y="700.6666666666666" type="curve"/>
      <point x="507.6666666666667" y="712.6666666666666" type="line"/>
      <point x="477.6666666666667" y="722.0"/>
      <point x="433.0" y="728.0"/>
      <point x="384.6666666666667" y="728.0" type="curve" smooth="yes"/>
      <point x="224.66666666666666" y="728.0"/>
      <point x="151.83333333333334" y="643.0"/>
      <point x="99.66666666666667" y="478.6666666666667" type="curve" smooth="yes"/>
      <point x="34.0" y="275.3333333333333" type="line"/>
      <point x="34.0" y="188.0" type="line"/>
      <point x="604.6666666666666" y="188.0" type="line"/>
      <point x="604.6666666666666" y="286.0" type="line"/>
      <point x="101.83333333333333" y="286.0" type="line"/>
      <point x="134.5" y="242.0" type="line"/>
      <point x="205.33333333333334" y="466.6666666666667" type="line" smooth="yes"/>
      <point x="242.0" y="580.1666666666666"/>
      <point x="284.0" y="628.6666666666666"/>
      <point x="372.3333333333333" y="628.6666666666666" type="curve" smooth="yes"/>
      <point x="391.1666666666667" y="628.6666666666666"/>
      <point x="410.0" y="624.8333333333334"/>
      <point x="425.3333333333333" y="620.3333333333334" type="curve"/>
      <point x="398.0" y="655.3333333333334" type="line"/>
      <point x="390.3333333333333" y="632.3333333333334"/>
      <point x="390.3333333333333" y="606.0"/>
      <point x="390.3333333333333" y="577.3333333333334" type="curve" smooth="yes"/>
    </contour>
  </outline>
</glyph>
<glyph name="five" format="2">
  <advance width="616.0"/>
  <unicode hex="0035"/>
  <note>
five
</note>
  <outline>
    <contour>
      <point x="61.333333333333336" y="133.66666666666666" type="line"/>
      <point x="61.333333333333336" y="27.333333333333332" type="line"/>
      <point x="104.0" y="4.666666666666667"/>
      <point x="175.66666666666666" y="-12.0"/>
      <point x="256.6666666666667" y="-12.0" type="curve" smooth="yes"/>
      <point x="440.6666666666667" y="-12.0"/>
      <point x="549.3333333333334" y="79.33333333333333"/>
      <point x="549.3333333333334" y="221.33333333333334" type="curve" smooth="yes"/>
      <point x="549.3333333333334" y="358.0"/>
      <point x="464.0" y="437.6666666666667"/>
      <point x="288.6666666666667" y="437.6666666666667" type="curve" smooth="yes"/>
      <point x="249.5" y="437.6666666666667"/>
      <point x="207.0" y="431.8333333333333"/>
      <point x="171.83333333333334" y="426.1666666666667" type="curve"/>
      <point x="200.66666666666666" y="383.8333333333333" type="line"/>
      <point x="200.66666666666666" y="571.3333333333334" type="line" smooth="yes"/>
      <point x="200.66666666666666" y="599.0"/>
      <point x="198.5" y="628.0"/>
      <point x="195.5" y="648.3333333333334" type="curve"/>
      <point x="152.33333333333334" y="622.6666666666666" type="line"/>
      <point x="516.6666666666666" y="622.6666666666666" type="line"/>
      <point x="516.6666666666666" y="720.0" type="line"/>
      <point x="228.0" y="720.0" type="line" smooth="yes"/>
      <point x="159.0" y="720.0"/>
      <point x="116.33333333333333" y="716.0"/>
      <point x="86.0" y="708.6666666666666" type="curve"/>
      <point x="84.0" y="700.0" type="line"/>
      <point x="92.0" y="664.0"/>
      <point x="92.0" y="572.6666666666666"/>
      <point x="92.0" y="532.6666666666666" type="curve" smooth="yes"/>
      <point x="92.0" y="325.3333333333333" type="line"/>
      <point x="100.0" y="321.3333333333333" type="line"/>
      <point x="136.0" y="329.3333333333333"/>
      <point x="188.33333333333334" y="347.3333333333333"/>
      <point x="272.0" y="347.3333333333333" type="curve" smooth="yes"/>
      <point x="383.3333333333333" y="347.3333333333333"/>
      <point x="435.3333333333333" y="302.6666666666667"/>
      <point x="435.3333333333333" y="222.0" type="curve" smooth="yes"/>
      <point x="435.3333333333333" y="153.33333333333334"/>
      <point x="394.0" y="85.33333333333333"/>
      <point x="254.66666666666666" y="85.33333333333333" type="curve" smooth="yes"/>
      <point x="172.0" y="85.33333333333333"/>
      <point x="104.0" y="112.66666666666667"/>
      <point x="70.0" y="133.66666666666666" type="curve"/>
    </contour>
  </outline>
</glyph>
<glyph name="six" format="2">
  <advance width="616.0"/>
  <unicode hex="0036"/>
  <note>
six
</note>
  <outline>
    <contour>
      <point x="316.6666666666667" y="-12.0" type="curve" smooth="yes"/>
      <point x="476.0" y="-12.0"/>
      <point x="568.0" y="92.0"/>
      <point x="568.0" y="234.0" type="curve" smooth="yes"/>
      <point x="568.0" y="384.6666666666667"/>
      <point x="477.3333333333333" y="468.6666666666667"/>
      <point x="338.6666666666667" y="468.6666666666667" type="curve" smooth="yes"/>
      <point x="242.0" y="468.6666666666667"/>
      <point x="188.0" y="432.0"/>
      <point x="157.16666666666666" y="398.3333333333333" type="curve"/>
      <point x="115.33333333333333" y="398.3333333333333" type="line"/>
      <point x="115.33333333333333" y="296.6666666666667" type="line"/>
      <point x="154.66666666666666" y="296.6666666666667" type="line"/>
      <point x="189.0" y="342.0"/>
      <point x="238.0" y="377.3333333333333"/>
      <point x="318.0" y="377.3333333333333" type="curve" smooth="yes"/>
      <point x="412.6666666666667" y="377.3333333333333"/>
      <point x="459.3333333333333" y="321.3333333333333"/>
      <point x="459.3333333333333" y="232.66666666666666" type="curve" smooth="yes"/>
      <point x="459.3333333333333" y="150.66666666666666"/>
      <point x="419.3333333333333" y="80.66666666666667"/>
      <point x="320.0" y="80.66666666666667" type="curve" smooth="yes"/>
      <point x="199.0" y="80.66666666666667"/>
      <point x="164.66666666666666" y="173.33333333333334"/>
      <point x="164.66666666666666" y="353.3333333333333" type="curve" smooth="yes"/>
      <point x="164.66666666666666" y="528.0"/>
      <point x="228.0" y="634.6666666666666"/>
      <point x="390.6666666666667" y="634.6666666666666" type="curve" smooth="yes"/>
      <point x="447.3333333333333" y="634.6666666666666"/>
      <point x="479.3333333333333" y="623.3333333333334"/>
      <point x="506.0" y="612.0" type="curve"/>
      <point x="514.6666666666666" y="612.0" type="line"/>
      <point x="514.6666666666666" y="713.3333333333334" type="line"/>
      <point x="482.6666666666667" y="724.6666666666666"/>
      <point x="446.6666666666667" y="732.0"/>
      <point x="392.6666666666667" y="732.0" type="curve" smooth="yes"/>
      <point x="161.33333333333334" y="732.0"/>
      <point x="51.333333333333336" y="578.6666666666666"/>
      <point x="51.333333333333336" y="347.3333333333333" type="curve" smooth="yes"/>
      <point x="51.333333333333336" y="136.0"/>
      <point x="119.33333333333333" y="-12.0"/>
    </contour>
  </outline>
</glyph>
<glyph name="seven" format="2">
  <advance width="616.0"/>
  <unicode hex="0037"/>
  <note>
seven
</note>
  <outline>
    <contour>
      <point x="72.66666666666667" y="720.0" type="line"/>
      <point x="72.66666666666667" y="621.3333333333334" type="line"/>
      <point x="495.3333333333333" y="621.3333333333334" type="line"/>
      <point x="469.8333333333333" y="662.6666666666666" type="line"/>
      <point x="148.66666666666666" y="7.0" type="line"/>
      <point x="148.66666666666666" y="0.0" type="line"/>
      <point x="269.3333333333333" y="0.0" type="line"/>
      <point x="526.0" y="556.0" type="line" smooth="yes"/>
      <point x="542.0" y="592.0"/>
      <point x="554.0" y="633.0"/>
      <point x="554.0" y="671.0" type="curve" smooth="yes"/>
      <point x="554.0" y="683.0"/>
      <point x="552.0" y="696.0"/>
      <point x="550.0" y="710.0" type="curve"/>
      <point x="538.0" y="720.0" type="line"/>
    </contour>
  </outline>
</glyph>
<glyph name="nine" format="2">
  <advance width="616.0"/>
  <unicode hex="0039"/>
  <note>
nine
</note>
  <outline>
    <contour>
      <point x="223.33333333333334" y="-12.0" type="curve" smooth="yes"/>
      <point x="454.6666666666667" y="-12.0"/>
      <point x="564.6666666666666" y="141.33333333333334"/>
      <point x="564.6666666666666" y="372.6666666666667" type="curve" smooth="yes"/>
      <point x="564.6666666666666" y="584.0"/>
      <point x="496.6666666666667" y="732.0"/>
      <point x="299.3333333333333" y="732.0" type="curve" smooth="yes"/>
      <point x="140.0" y="732.0"/>
      <point x="48.0" y="628.0"/>
      <point x="48.0" y="486.0" type="curve" smooth="yes"/>
      <point x="48.0" y="335.3333333333333"/>
      <point x="138.66666666666666" y="251.33333333333334"/>
      <point x="277.3333333333333" y="251.33333333333334" type="curve" smooth="yes"/>
      <point x="374.0" y="251.33333333333334"/>
      <point x="428.0" y="288.0"/>
      <point x="458.8333333333333" y="321.6666666666667" type="curve"/>
      <point x="500.6666666666667" y="321.6666666666667" type="line"/>
      <point x="500.6666666666667" y="423.3333333333333" type="line"/>
      <point x="461.3333333333333" y="423.3333333333333" type="line"/>
      <point x="427.0" y="378.0"/>
      <point x="378.0" y="342.6666666666667"/>
      <point x="298.0" y="342.6666666666667" type="curve" smooth="yes"/>
      <point x="203.33333333333334" y="342.6666666666667"/>
      <point x="156.66666666666666" y="398.6666666666667"/>
      <point x="156.66666666666666" y="487.3333333333333" type="curve" smooth="yes"/>
      <point x="156.66666666666666" y="569.3333333333334"/>
      <point x="196.66666666666666" y="639.3333333333334"/>
      <point x="296.0" y="639.3333333333334" type="curve" smooth="yes"/>
      <point x="417.0" y="639.3333333333334"/>
      <point x="451.3333333333333" y="546.6666666666666"/>
      <point x="451.3333333333333" y="366.6666666666667" type="curve" smooth="yes"/>
      <point x="451.3333333333333" y="192.0"/>
      <point x="388.0" y="85.33333333333333"/>
      <point x="225.33333333333334" y="85.33333333333333" type="curve" smooth="yes"/>
      <point x="168.66666666666666" y="85.33333333333333"/>
      <point x="137.33333333333334" y="96.66666666666667"/>
      <point x="110.0" y="108.0" type="curve"/>
      <point x="101.33333333333333" y="108.0" type="line"/>
      <point x="101.33333333333333" y="6.666666666666667" type="line"/>
      <point x="133.33333333333334" y="-4.666666666666667"/>
      <point x="169.33333333333334" y="-12.0"/>
    </contour>
  </outline>
</glyph>
<glyph name="semicolon" format="2">
  <advance width="279.8333333333333"/>
  <unicode hex="003B"/>
  <note>
semicolon
</note>
  <outline>
    <contour>
      <point x="139.5" y="400.6666666666667" type="curve" smooth="yes"/>
      <point x="180.5" y="400.6666666666667"/>
      <point x="211.16666666666666" y="428.0"/>
      <point x="211.16666666666666" y="472.3333333333333" type="curve" smooth="yes"/>
      <point x="211.16666666666666" y="516.6666666666666"/>
      <point x="180.5" y="544.0"/>
      <point x="139.5" y="544.0" type="curve" smooth="yes"/>
      <point x="98.5" y="544.0"/>
      <point x="67.83333333333333" y="516.6666666666666"/>
      <point x="67.83333333333333" y="472.3333333333333" type="curve" smooth="yes"/>
      <point x="67.83333333333333" y="428.0"/>
      <point x="98.5" y="400.6666666666667"/>
    </contour>
    <contour>
      <point x="113.0" y="-9.0" type="curve"/>
      <point x="40.166666666666664" y="-148.0" type="line"/>
      <point x="40.166666666666664" y="-155.83333333333334" type="line"/>
      <point x="128.83333333333334" y="-155.83333333333334" type="line"/>
      <point x="187.0" y="-28.333333333333332" type="line" smooth="yes"/>
      <point x="196.5" y="-7.666666666666666"/>
      <point x="211.66666666666666" y="23.166666666666668"/>
      <point x="211.66666666666666" y="58.333333333333336" type="curve" smooth="yes"/>
      <point x="211.66666666666666" y="110.66666666666667"/>
      <point x="180.5" y="134.66666666666666"/>
      <point x="139.5" y="134.66666666666666" type="curve" smooth="yes"/>
      <point x="98.5" y="134.66666666666666"/>
      <point x="67.83333333333333" y="106.83333333333333"/>
      <point x="67.83333333333333" y="59.666666666666664" type="curve" smooth="yes"/>
      <point x="67.83333333333333" y="20.5"/>
      <point x="93.16666666666667" y="0.0"/>
    </contour>
  </outline>
</glyph>
<glyph name="less" format="2">
  <advance width="616.0"/>
  <unicode hex="003C"/>
  <note>
less
</note>
  <outline>
    <contour>
      <point x="84.0" y="286.6666666666667" type="line"/>
      <point x="524.0" y="63.333333333333336" type="line"/>
      <point x="532.0" y="63.333333333333336" type="line"/>
      <point x="532.0" y="160.0" type="line"/>
      <point x="212.0" y="316.6666666666667" type="line"/>
      <point x="532.0" y="477.3333333333333" type="line"/>
      <point x="532.0" y="573.3333333333334" type="line"/>
      <point x="524.0" y="573.3333333333334" type="line"/>
      <point x="84.0" y="346.6666666666667" type="line"/>
    </contour>
  </outline>
</glyph>
<glyph name="equal" format="2">
  <advance width="616.0"/>
  <unicode hex="003D"/>
  <note>
equal
</note>
  <outline>
    <contour>
      <point x="64.0" y="462.0" type="line"/>
      <point x="64.0" y="374.0" type="line"/>
      <point x="552.0" y="374.0" type="line"/>
      <point x="552.0" y="462.0" type="line"/>
    </contour>
    <contour>
      <point x="64.0" y="258.0" type="line"/>
      <point x="64.0" y="170.0" type="line"/>
      <point x="552.0" y="170.0" type="line"/>
      <point x="552.0" y="258.0" type="line"/>
    </contour>
  </outline>
</glyph>
<glyph name="greater" format="2">
  <advance width="616.0"/>
  <unicode hex="003E"/>
  <note>
greater
</note>
  <outline>
    <contour>
      <point x="92.0" y="63.333333333333336" type="line"/>
      <point x="532.0" y="286.6666666666667" type="line"/>
      <point x="532.0" y="346.6666666666667" type="line"/>
      <point x="92.0" y="573.3333333333334" type="line"/>
      <point x="84.0" y="573.3333333333334" type="line"/>
      <point x="84.0" y="477.3333333333333" type="line"/>
      <point x="404.0" y="316.6666666666667" type="line"/>
      <point x="84.0" y="160.0" type="line"/>
      <point x="84.0" y="63.333333333333336" type="line"/>
    </contour>
  </outline>
</glyph>
<glyph name="question" format="2">
  <advance width="501.3333333333333"/>
  <unicode hex="003F"/>
  <note>
question
</note>
  <outline>
    <contour>
      <point x="164.0" y="198.66666666666666" type="line"/>
      <point x="271.3333333333333" y="198.66666666666666" type="line"/>
      <point x="271.3333333333333" y="260.6666666666667" type="line" smooth="yes"/>
      <point x="271.3333333333333" y="286.6666666666667"/>
      <point x="277.3333333333333" y="319.8333333333333"/>
      <point x="307.3333333333333" y="340.8333333333333" type="curve" smooth="yes"/>
      <point x="345.3333333333333" y="367.5" type="line" smooth="yes"/>
      <point x="377.1666666666667" y="389.5"/>
      <point x="457.3333333333333" y="434.6666666666667"/>
      <point x="457.3333333333333" y="541.3333333333334" type="curve" smooth="yes"/>
      <point x="457.3333333333333" y="672.0"/>
      <point x="372.6666666666667" y="732.0"/>
      <point x="230.66666666666666" y="732.0" type="curve" smooth="yes"/>
      <point x="161.33333333333334" y="732.0"/>
      <point x="103.33333333333333" y="720.0"/>
      <point x="54.666666666666664" y="696.6666666666666" type="curve"/>
      <point x="54.666666666666664" y="596.6666666666666" type="line"/>
      <point x="63.333333333333336" y="596.6666666666666" type="line"/>
      <point x="106.0" y="620.0"/>
      <point x="158.66666666666666" y="636.0"/>
      <point x="219.33333333333334" y="636.0" type="curve" smooth="yes"/>
      <point x="296.0" y="636.0"/>
      <point x="343.3333333333333" y="606.0"/>
      <point x="343.3333333333333" y="540.0" type="curve" smooth="yes"/>
      <point x="343.3333333333333" y="481.3333333333333"/>
      <point x="312.5" y="456.6666666666667"/>
      <point x="282.0" y="435.5" type="curve" smooth="yes"/>
      <point x="234.0" y="402.1666666666667" type="line" smooth="yes"/>
      <point x="184.83333333333334" y="367.6666666666667"/>
      <point x="164.0" y="322.0"/>
      <point x="164.0" y="264.6666666666667" type="curve" smooth="yes"/>
    </contour>
    <contour>
      <point x="219.66666666666666" y="-8.666666666666666" type="curve" smooth="yes"/>
      <point x="260.6666666666667" y="-8.666666666666666"/>
      <point x="291.3333333333333" y="18.666666666666668"/>
      <point x="291.3333333333333" y="63.0" type="curve" smooth="yes"/>
      <point x="291.3333333333333" y="107.33333333333333"/>
      <point x="260.6666666666667" y="134.66666666666666"/>
      <point x="219.66666666666666" y="134.66666666666666" type="curve" smooth="yes"/>
      <point x="178.66666666666666" y="134.66666666666666"/>
      <point x="148.0" y="107.33333333333333"/>
      <point x="148.0" y="63.0" type="curve" smooth="yes"/>
      <point x="148.0" y="18.666666666666668"/>
      <point x="178.66666666666666" y="-8.666666666666666"/>
    </contour>
  </outline>
</glyph>
<glyph name="at" format="2">
  <advance width="969.3333333333334"/>
  <unicode hex="0040"/>
  <note>
at
</note>
  <outline>
    <contour>
      <point x="512.3333333333334" y="-161.33333333333334" type="curve" smooth="yes"/>
      <point x="578.0" y="-161.33333333333334"/>
      <point x="658.1666666666666" y="-149.33333333333334"/>
      <point x="694.6666666666666" y="-133.33333333333334" type="curve"/>
      <point x="694.6666666666666" y="-43.333333333333336" type="line"/>
      <point x="686.0" y="-43.333333333333336" type="line"/>
      <point x="650.0" y="-61.0"/>
      <point x="574.6666666666666" y="-74.66666666666667"/>
      <point x="512.3333333333334" y="-74.66666666666667" type="curve" smooth="yes"/>
      <point x="306.6666666666667" y="-74.66666666666667"/>
      <point x="148.0" y="26.0"/>
      <point x="148.0" y="286.6666666666667" type="curve" smooth="yes"/>
      <point x="148.0" y="536.6666666666666"/>
      <point x="296.1666666666667" y="643.3333333333334"/>
      <point x="511.0" y="643.3333333333334" type="curve" smooth="yes"/>
      <point x="690.8333333333334" y="643.3333333333334"/>
      <point x="825.6666666666666" y="552.6666666666666"/>
      <point x="825.6666666666666" y="376.0" type="curve" smooth="yes"/>
      <point x="825.6666666666666" y="247.66666666666666"/>
      <point x="768.1666666666666" y="173.5"/>
      <point x="675.3333333333334" y="138.33333333333334" type="curve"/>
      <point x="673.5" y="164.83333333333334"/>
      <point x="673.6666666666666" y="194.0"/>
      <point x="673.6666666666666" y="212.33333333333334" type="curve" smooth="yes"/>
      <point x="673.6666666666666" y="316.6666666666667" type="line" smooth="yes"/>
      <point x="673.6666666666666" y="466.6666666666667"/>
      <point x="592.0" y="507.3333333333333"/>
      <point x="475.0" y="507.3333333333333" type="curve" smooth="yes"/>
      <point x="425.0" y="507.3333333333333"/>
      <point x="377.6666666666667" y="496.0"/>
      <point x="341.0" y="482.3333333333333" type="curve"/>
      <point x="341.0" y="396.6666666666667" type="line"/>
      <point x="349.0" y="396.6666666666667" type="line"/>
      <point x="373.0" y="408.0"/>
      <point x="415.6666666666667" y="423.3333333333333"/>
      <point x="463.6666666666667" y="423.3333333333333" type="curve" smooth="yes"/>
      <point x="549.3333333333334" y="423.3333333333333"/>
      <point x="579.0" y="395.8333333333333"/>
      <point x="579.0" y="316.0" type="curve" smooth="yes"/>
      <point x="579.0" y="178.16666666666666" type="line" smooth="yes"/>
      <point x="579.0" y="142.5"/>
      <point x="584.8333333333334" y="115.33333333333333"/>
      <point x="596.6666666666666" y="98.5" type="curve"/>
      <point x="608.8333333333334" y="121.33333333333333" type="line"/>
      <point x="579.8333333333334" y="116.83333333333333"/>
      <point x="548.3333333333334" y="114.0"/>
      <point x="515.3333333333334" y="114.0" type="curve" smooth="yes"/>
      <point x="438.3333333333333" y="114.0"/>
      <point x="397.0" y="135.33333333333334"/>
      <point x="397.0" y="184.0" type="curve" smooth="yes"/>
      <point x="397.0" y="229.0"/>
      <point x="430.8333333333333" y="254.0"/>
      <point x="503.6666666666667" y="254.0" type="curve" smooth="yes"/>
      <point x="534.6666666666666" y="254.0"/>
      <point x="569.5" y="247.83333333333334"/>
      <point x="599.0" y="239.66666666666666" type="curve"/>
      <point x="599.0" y="311.3333333333333" type="line"/>
      <point x="568.3333333333334" y="318.8333333333333"/>
      <point x="534.6666666666666" y="326.0"/>
      <point x="495.0" y="326.0" type="curve" smooth="yes"/>
      <point x="383.3333333333333" y="326.0"/>
      <point x="303.6666666666667" y="276.6666666666667"/>
      <point x="303.6666666666667" y="186.66666666666666" type="curve" smooth="yes"/>
      <point x="303.6666666666667" y="86.0"/>
      <point x="381.6666666666667" y="35.333333333333336"/>
      <point x="515.3333333333334" y="35.333333333333336" type="curve" smooth="yes"/>
      <point x="741.0" y="35.333333333333336"/>
      <point x="920.0" y="139.33333333333334"/>
      <point x="920.0" y="376.0" type="curve" smooth="yes"/>
      <point x="920.0" y="596.0"/>
      <point x="752.0" y="733.3333333333334"/>
      <point x="511.0" y="733.3333333333334" type="curve" smooth="yes"/>
      <point x="221.66666666666666" y="733.3333333333334"/>
      <point x="49.333333333333336" y="560.6666666666666"/>
      <point x="49.333333333333336" y="286.6666666666667" type="curve" smooth="yes"/>
      <point x="49.333333333333336" y="-15.333333333333334"/>
      <point x="240.0" y="-161.33333333333334"/>
    </contour>
  </outline>
</glyph>
<glyph name="A" format="2">
  <advance width="674.3333333333334"/>
  <unicode hex="0041"/>
  <note>
A
</note>
  <anchor x="337.1666666666667" y="0.0" name="bottom"/>
  <anchor x="583.0" y="8.333333333333334" name="ogonek"/>
  <anchor x="382.5" y="720.0" name="top"/>
  <outline>
    <contour>
      <point x="44.666666666666664" y="0.0" type="line"/>
      <point x="161.66666666666666" y="0.0" type="line"/>
      <point x="241.0" y="476.6666666666667" type="line" smooth="yes"/>
      <point x="258.5" y="579.6666666666666"/>
      <point x="297.6666666666667" y="628.6666666666666"/>
      <point x="420.3333333333333" y="628.6666666666666" type="curve" smooth="yes"/>
      <point x="447.6666666666667" y="628.6666666666666"/>
      <point x="474.1666666666667" y="626.6666666666666"/>
      <point x="490.5" y="619.6666666666666" type="curve"/>
      <point x="472.8333333333333" y="652.1666666666666" type="line"/>
      <point x="468.3333333333333" y="629.8333333333334"/>
      <point x="467.6666666666667" y="603.6666666666666"/>
      <point x="467.6666666666667" y="574.6666666666666" type="curve" smooth="yes"/>
      <point x="467.6666666666667" y="0.0" type="line"/>
      <point x="583.0" y="0.0" type="line"/>
      <point x="583.0" y="539.3333333333334" type="line" smooth="yes"/>
      <point x="583.0" y="579.3333333333334"/>
      <point x="583.0" y="660.0"/>
      <point x="589.3333333333334" y="699.3333333333334" type="curve"/>
      <point x="587.3333333333334" y="711.3333333333334" type="line"/>
      <point x="535.0" y="723.3333333333334"/>
      <point x="481.6666666666667" y="728.0"/>
      <point x="431.6666666666667" y="728.0" type="curve" smooth="yes"/>
      <point x="233.0" y="728.0"/>
      <point x="153.66666666666666" y="649.5"/>
      <point x="124.66666666666667" y="478.0" type="curve" smooth="yes"/>
    </contour>
    <contour>
      <point x="151.33333333333334" y="211.33333333333334" type="line"/>
      <point x="517.6666666666666" y="211.33333333333334" type="line"/>
      <point x="517.6666666666666" y="309.3333333333333" type="line"/>
      <point x="151.33333333333334" y="309.3333333333333" type="line"/>
    </contour>
  </outline>
</glyph>
<glyph name="B" format="2">
  <advance width="650.6666666666666"/>
  <unicode hex="0042"/>
  <note>
B
</note>
  <anchor x="325.3333333333333" y="0.0" name="bottom"/>
  <anchor x="325.3333333333333" y="720.0" name="top"/>
  <outline>
    <contour>
      <point x="156.66666666666666" y="0.0" type="line"/>
      <point x="384.6666666666667" y="0.0" type="line" smooth="yes"/>
      <point x="534.6666666666666" y="0.0"/>
      <point x="597.3333333333334" y="87.33333333333333"/>
      <point x="597.3333333333334" y="185.33333333333334" type="curve" smooth="yes"/>
      <point x="597.3333333333334" y="268.5"/>
      <point x="546.8333333333334" y="328.3333333333333"/>
      <point x="455.0" y="342.6666666666667" type="curve"/>
      <point x="460.6666666666667" y="319.1666666666667" type="line"/>
      <point x="543.0" y="357.0"/>
      <point x="585.3333333333334" y="441.1666666666667"/>
      <point x="585.3333333333334" y="522.6666666666666" type="curve" smooth="yes"/>
      <point x="585.3333333333334" y="654.6666666666666"/>
      <point x="507.3333333333333" y="720.0"/>
      <point x="353.6666666666667" y="720.0" type="curve" smooth="yes"/>
      <point x="156.66666666666666" y="720.0" type="line"/>
      <point x="156.66666666666666" y="621.3333333333334" type="line"/>
      <point x="350.6666666666667" y="621.3333333333334" type="line" smooth="yes"/>
      <point x="424.0" y="621.3333333333334"/>
      <point x="470.0" y="596.0"/>
      <point x="470.0" y="517.3333333333334" type="curve" smooth="yes"/>
      <point x="470.0" y="440.0"/>
      <point x="428.6666666666667" y="370.6666666666667"/>
      <point x="342.6666666666667" y="370.6666666666667" type="curve" smooth="yes"/>
      <point x="156.66666666666666" y="370.6666666666667" type="line"/>
      <point x="156.66666666666666" y="276.0" type="line"/>
      <point x="380.0" y="276.0" type="line" smooth="yes"/>
      <point x="438.6666666666667" y="276.0"/>
      <point x="482.0" y="253.33333333333334"/>
      <point x="482.0" y="188.66666666666666" type="curve" smooth="yes"/>
      <point x="482.0" y="120.0"/>
      <point x="435.3333333333333" y="97.33333333333333"/>
      <point x="380.0" y="97.33333333333333" type="curve" smooth="yes"/>
      <point x="156.66666666666666" y="97.33333333333333" type="line"/>
    </contour>
    <contour>
      <point x="91.33333333333333" y="0.0" type="line"/>
      <point x="206.66666666666666" y="0.0" type="line"/>
      <point x="206.66666666666666" y="720.0" type="line"/>
      <point x="91.33333333333333" y="720.0" type="line"/>
    </contour>
  </outline>
</glyph>
<glyph name="C" format="2">
  <advance width="648.0"/>
  <unicode hex="0043"/>
  <note>
C
</note>
  <anchor x="384.6666666666667" y="0.0" name="bottom"/>
  <anchor x="384.6666666666667" y="720.0" name="top"/>
  <outline>
    <contour>
      <point x="52.666666666666664" y="360.0" type="curve" smooth="yes"/>
      <point x="52.666666666666664" y="128.66666666666666"/>
      <point x="185.33333333333334" y="-12.0"/>
      <point x="424.6666666666667" y="-12.0" type="curve" smooth="yes"/>
      <point x="492.6666666666667" y="-12.0"/>
      <point x="546.0" y="0.0"/>
      <point x="584.0" y="18.666666666666668" type="curve"/>
      <point x="584.0" y="125.0" type="line"/>
      <point x="575.3333333333334" y="125.0" type="line"/>
      <point x="537.3333333333334" y="102.66666666666667"/>
      <point x="486.0" y="90.66666666666667"/>
      <point x="427.3333333333333" y="90.66666666666667" type="curve" smooth="yes"/>
      <point x="268.0" y="90.66666666666667"/>
      <point x="172.0" y="181.33333333333334"/>
      <point x="172.0" y="360.0" type="curve" smooth="yes"/>
      <point x="172.0" y="538.6666666666666"/>
      <point x="268.0" y="629.3333333333334"/>
      <point x="427.3333333333333" y="629.3333333333334" type="curve" smooth="yes"/>
      <point x="486.0" y="629.3333333333334"/>
      <point x="537.3333333333334" y="617.3333333333334"/>
      <point x="575.3333333333334" y="595.0" type="curve"/>
      <point x="584.0" y="595.0" type="line"/>
      <point x="584.0" y="701.3333333333334" type="line"/>
      <point x="546.0" y="720.0"/>
      <point x="492.6666666666667" y="732.0"/>
      <point x="424.6666666666667" y="732.0" type="curve" smooth="yes"/>
      <point x="185.33333333333334" y="732.0"/>
      <point x="52.666666666666664" y="584.6666666666666"/>
    </contour>
  </outline>
</glyph>
<glyph name="D" format="2">
  <advance width="730.0"/>
  <unicode hex="0044"/>
  <note>
D
</note>
  <anchor x="365.0" y="0.0" name="bottom"/>
  <anchor x="163.66666666666666" y="371.0" name="center"/>
  <anchor x="365.0" y="720.0" name="top"/>
  <outline>
    <contour>
      <point x="156.66666666666666" y="0.0" type="line"/>
      <point x="314.6666666666667" y="0.0" type="line" smooth="yes"/>
      <point x="580.0" y="0.0"/>
      <point x="677.3333333333334" y="196.0"/>
      <point x="677.3333333333334" y="398.6666666666667" type="curve" smooth="yes"/>
      <point x="677.3333333333334" y="610.0"/>
      <point x="559.3333333333334" y="720.0"/>
      <point x="340.0" y="720.0" type="curve" smooth="yes"/>
      <point x="156.66666666666666" y="720.0" type="line"/>
      <point x="156.66666666666666" y="619.3333333333334" type="line"/>
      <point x="340.0" y="619.3333333333334" type="line" smooth="yes"/>
      <point x="487.3333333333333" y="619.3333333333334"/>
      <point x="558.0" y="543.3333333333334"/>
      <point x="558.0" y="398.0" type="curve" smooth="yes"/>
      <point x="558.0" y="257.3333333333333"/>
      <point x="500.6666666666667" y="100.66666666666666"/>
      <point x="316.6666666666667" y="100.66666666666666" type="curve" smooth="yes"/>
      <point x="156.66666666666666" y="100.66666666666666" type="line"/>
    </contour>
    <contour>
      <point x="91.33333333333333" y="0.0" type="line"/>
      <point x="206.66666666666666" y="0.0" type="line"/>
      <point x="206.66666666666666" y="720.0" type="line"/>
      <point x="91.33333333333333" y="720.0" type="line"/>
    </contour>
  </outline>
</glyph>
<glyph name="E" format="2">
  <advance width="615.3333333333334"/>
  <unicode hex="0045"/>
  <note>
E
</note>
  <anchor x="307.6666666666667" y="0.0" name="bottom"/>
  <anchor x="564.0" y="0.0" name="ogonek"/>
  <anchor x="307.6666666666667" y="720.0" name="top"/>
  <anchor x="20.0" y="720.0" name="topleft"/>
  <outline>
    <contour>
      <point x="91.33333333333333" y="0.0" type="line"/>
      <point x="206.66666666666666" y="0.0" type="line"/>
      <point x="206.66666666666666" y="720.0" type="line"/>
      <point x="91.33333333333333" y="720.0" type="line"/>
    </contour>
    <contour>
      <point x="156.66666666666666" y="0.0" type="line"/>
      <point x="564.0" y="0.0" type="line"/>
      <point x="564.0" y="100.66666666666666" type="line"/>
      <point x="156.66666666666666" y="100.66666666666666" type="line"/>
    </contour>
    <contour>
      <point x="156.66666666666666" y="324.6666666666667" type="line"/>
      <point x="498.0" y="324.6666666666667" type="line"/>
      <point x="498.0" y="423.3333333333333" type="line"/>
      <point x="156.66666666666666" y="423.3333333333333" type="line"/>
    </contour>
    <contour>
      <point x="156.66666666666666" y="619.3333333333334" type="line"/>
      <point x="552.6666666666666" y="619.3333333333334" type="line"/>
      <point x="552.6666666666666" y="720.0" type="line"/>
      <point x="156.66666666666666" y="720.0" type="line"/>
    </contour>
  </outline>
</glyph>
<glyph name="F" format="2">
  <advance width="574.6666666666666"/>
  <unicode hex="0046"/>
  <note>
F
</note>
  <anchor x="287.3333333333333" y="0.0" name="bottom"/>
  <anchor x="287.3333333333333" y="720.0" name="top"/>
  <outline>
    <contour>
      <point x="91.33333333333333" y="0.0" type="line"/>
      <point x="206.66666666666666" y="0.0" type="line"/>
      <point x="206.66666666666666" y="720.0" type="line"/>
      <point x="91.33333333333333" y="720.0" type="line"/>
    </contour>
    <contour>
      <point x="156.66666666666666" y="269.3333333333333" type="line"/>
      <point x="488.0" y="269.3333333333333" type="line"/>
      <point x="488.0" y="368.0" type="line"/>
      <point x="156.66666666666666" y="368.0" type="line"/>
    </contour>
    <contour>
      <point x="156.66666666666666" y="619.3333333333334" type="line"/>
      <point x="542.6666666666666" y="619.3333333333334" type="line"/>
      <point x="542.6666666666666" y="720.0" type="line"/>
      <point x="156.66666666666666" y="720.0" type="line"/>
    </contour>
  </outline>
</glyph>
<glyph name="G" format="2">
  <advance width="691.3333333333334"/>
  <unicode hex="0047"/>
  <note>
G
</note>
  <anchor x="345.6666666666667" y="0.0" name="bottom"/>
  <anchor x="345.6666666666667" y="720.0" name="top"/>
  <outline>
    <contour>
      <point x="52.666666666666664" y="359.3333333333333" type="curve" smooth="yes"/>
      <point x="52.666666666666664" y="136.0"/>
      <point x="174.66666666666666" y="-12.0"/>
      <point x="421.3333333333333" y="-12.0" type="curve" smooth="yes"/>
      <point x="497.6666666666667" y="-12.0"/>
      <point x="568.0" y="4.0"/>
      <point x="614.0" y="28.0" type="curve"/>
      <point x="614.0" y="365.0" type="line"/>
      <point x="502.0" y="365.0" type="line"/>
      <point x="502.0" y="51.333333333333336" type="line"/>
      <point x="526.6666666666666" y="107.0" type="line"/>
      <point x="497.0" y="94.33333333333333"/>
      <point x="461.8333333333333" y="86.66666666666667"/>
      <point x="422.0" y="86.66666666666667" type="curve" smooth="yes"/>
      <point x="267.0" y="86.66666666666667"/>
      <point x="172.0" y="173.33333333333334"/>
      <point x="172.0" y="358.6666666666667" type="curve" smooth="yes"/>
      <point x="172.0" y="543.3333333333334"/>
      <point x="270.0" y="629.3333333333334"/>
      <point x="436.0" y="629.3333333333334" type="curve" smooth="yes"/>
      <point x="502.3333333333333" y="629.3333333333334"/>
      <point x="558.6666666666666" y="612.3333333333334"/>
      <point x="593.3333333333334" y="595.0" type="curve"/>
      <point x="602.0" y="595.0" type="line"/>
      <point x="602.0" y="701.3333333333334" type="line"/>
      <point x="564.0" y="720.0"/>
      <point x="506.6666666666667" y="732.0"/>
      <point x="434.3333333333333" y="732.0" type="curve" smooth="yes"/>
      <point x="190.66666666666666" y="732.0"/>
      <point x="52.666666666666664" y="582.6666666666666"/>
    </contour>
  </outline>
</glyph>
<glyph name="H" format="2">
  <advance width="744.0"/>
  <unicode hex="0048"/>
  <note>
H
</note>
  <anchor x="372.0" y="0.0" name="bottom"/>
  <anchor x="372.0" y="579.0" name="center"/>
  <anchor x="372.0" y="720.0" name="top"/>
  <anchor x="20.0" y="720.0" name="topleft"/>
  <outline>
    <contour>
      <point x="537.3333333333334" y="0.0" type="line"/>
      <point x="652.6666666666666" y="0.0" type="line"/>
      <point x="652.6666666666666" y="720.0" type="line"/>
      <point x="537.3333333333334" y="720.0" type="line"/>
    </contour>
    <contour>
      <point x="91.33333333333333" y="0.0" type="line"/>
      <point x="206.66666666666666" y="0.0" type="line"/>
      <point x="206.66666666666666" y="720.0" type="line"/>
      <point x="91.33333333333333" y="720.0" type="line"/>
    </contour>
    <contour>
      <point x="156.66666666666666" y="320.6666666666667" type="line"/>
      <point x="587.3333333333334" y="320.6666666666667" type="line"/>
      <point x="587.3333333333334" y="421.3333333333333" type="line"/>
      <point x="156.66666666666666" y="421.3333333333333" type="line"/>
    </contour>
  </outline>
</glyph>
<glyph name="I" format="2">
  <advance width="298.0"/>
  <unicode hex="0049"/>
  <note>
I
</note>
  <anchor x="149.0" y="0.0" name="bottom"/>
  <anchor x="206.66666666666666" y="0.0" name="ogonek"/>
  <anchor x="149.0" y="720.0" name="top"/>
  <anchor x="20.0" y="720.0" name="topleft"/>
  <outline>
    <contour>
      <point x="91.33333333333333" y="720.0" type="line"/>
      <point x="91.33333333333333" y="0.0" type="line"/>
      <point x="206.66666666666666" y="0.0" type="line"/>
      <point x="206.66666666666666" y="720.0" type="line"/>
    </contour>
  </outline>
</glyph>
<glyph name="J" format="2">
  <advance width="424.0"/>
  <unicode hex="004A"/>
  <note>
J
</note>
  <anchor x="212.0" y="0.0" name="bottom"/>
  <anchor x="289.0" y="720.0" name="top"/>
  <outline>
    <contour>
      <point x="14.0" y="98.66666666666667" type="line"/>
      <point x="14.0" y="0.0" type="line"/>
      <point x="38.666666666666664" y="-6.333333333333333"/>
      <point x="79.33333333333333" y="-12.0"/>
      <point x="116.0" y="-12.0" type="curve" smooth="yes"/>
      <point x="262.0" y="-12.0"/>
      <point x="346.6666666666667" y="69.33333333333333"/>
      <point x="346.6666666666667" y="210.66666666666666" type="curve" smooth="yes"/>
      <point x="346.6666666666667" y="720.0" type="line"/>
      <point x="231.33333333333334" y="720.0" type="line"/>
      <point x="231.33333333333334" y="203.33333333333334" type="line" smooth="yes"/>
      <point x="231.33333333333334" y="128.0"/>
      <point x="188.66666666666666" y="86.66666666666667"/>
      <point x="110.0" y="86.66666666666667" type="curve" smooth="yes"/>
      <point x="82.0" y="86.66666666666667"/>
      <point x="39.333333333333336" y="92.33333333333333"/>
      <point x="22.666666666666668" y="98.66666666666667" type="curve"/>
    </contour>
  </outline>
</glyph>
<glyph name="K" format="2">
  <advance width="662.3333333333334"/>
  <unicode hex="004B"/>
  <note>
K
</note>
  <anchor x="331.1666666666667" y="0.0" name="bottom"/>
  <anchor x="331.1666666666667" y="720.0" name="top"/>
  <outline>
    <contour>
      <point x="275.5" y="272.0" type="line" smooth="yes"/>
      <point x="390.0" y="272.0"/>
      <point x="456.3333333333333" y="338.1666666666667"/>
      <point x="493.5" y="422.6666666666667" type="curve" smooth="yes"/>
      <point x="624.8333333333334" y="711.3333333333334" type="line"/>
      <point x="624.8333333333334" y="720.0" type="line"/>
      <point x="506.8333333333333" y="720.0" type="line"/>
      <point x="388.8333333333333" y="454.6666666666667" type="line" smooth="yes"/>
      <point x="368.0" y="406.0"/>
      <point x="337.5" y="372.0"/>
      <point x="270.1666666666667" y="372.0" type="curve" smooth="yes"/>
      <point x="155.16666666666666" y="372.0" type="line"/>
      <point x="155.16666666666666" y="272.0" type="line"/>
    </contour>
    <contour>
      <point x="91.5" y="0.0" type="line"/>
      <point x="206.83333333333334" y="0.0" type="line"/>
      <point x="206.83333333333334" y="720.0" type="line"/>
      <point x="91.5" y="720.0" type="line"/>
    </contour>
    <contour>
      <point x="416.1666666666667" y="342.6666666666667" type="line"/>
      <point x="324.1666666666667" y="290.6666666666667" type="line"/>
      <point x="501.8333333333333" y="0.0" type="line"/>
      <point x="629.1666666666666" y="0.0" type="line"/>
      <point x="629.1666666666666" y="8.666666666666666" type="line"/>
    </contour>
  </outline>
</glyph>
<glyph name="L" format="2">
  <advance width="538.6666666666666"/>
  <unicode hex="004C"/>
  <note>
L
</note>
  <anchor x="269.3333333333333" y="0.0" name="bottom"/>
  <anchor x="195.33333333333334" y="384.0" name="center"/>
  <anchor x="376.6666666666667" y="398.6666666666667" name="periodCAT"/>
  <anchor x="269.3333333333333" y="720.0" name="top"/>
  <anchor x="518.6666666666666" y="720.0" name="topright"/>
  <outline>
    <contour>
      <point x="91.33333333333333" y="0.0" type="line"/>
      <point x="506.6666666666667" y="0.0" type="line"/>
      <point x="506.6666666666667" y="100.66666666666666" type="line"/>
      <point x="206.66666666666666" y="100.66666666666666" type="line"/>
      <point x="206.66666666666666" y="720.0" type="line"/>
      <point x="91.33333333333333" y="720.0" type="line"/>
    </contour>
  </outline>
</glyph>
<glyph name="M" format="2">
  <advance width="832.6666666666666"/>
  <unicode hex="004D"/>
  <note>
M
</note>
  <anchor x="416.3333333333333" y="0.0" name="bottom"/>
  <anchor x="416.3333333333333" y="720.0" name="top"/>
  <outline>
    <contour>
      <point x="91.33333333333333" y="0.0" type="line"/>
      <point x="206.66666666666666" y="0.0" type="line"/>
      <point x="206.66666666666666" y="538.8333333333334" type="line"/>
      <point x="181.83333333333334" y="531.8333333333334" type="line"/>
      <point x="377.3333333333333" y="227.33333333333334" type="line"/>
      <point x="455.3333333333333" y="227.33333333333334" type="line"/>
      <point x="650.6666666666666" y="532.8333333333334" type="line"/>
      <point x="626.0" y="539.6666666666666" type="line"/>
      <point x="626.0" y="0.0" type="line"/>
      <point x="741.3333333333334" y="0.0" type="line"/>
      <point x="741.3333333333334" y="720.0" type="line"/>
      <point x="644.6666666666666" y="720.0" type="line"/>
      <point x="392.8333333333333" y="320.6666666666667" type="line"/>
      <point x="440.6666666666667" y="320.8333333333333" type="line"/>
      <point x="188.0" y="720.0" type="line"/>
      <point x="91.33333333333333" y="720.0" type="line"/>
    </contour>
  </outline>
</glyph>
<glyph name="N" format="2">
  <advance width="744.0"/>
  <unicode hex="004E"/>
  <note>
N
</note>
  <anchor x="372.0" y="0.0" name="bottom"/>
  <anchor x="372.0" y="720.0" name="top"/>
  <outline>
    <contour>
      <point x="91.33333333333333" y="0.0" type="line"/>
      <point x="206.66666666666666" y="0.0" type="line"/>
      <point x="206.66666666666666" y="586.1666666666666" type="line"/>
      <point x="174.83333333333334" y="572.8333333333334" type="line"/>
      <point x="586.3333333333334" y="142.66666666666666" type="line"/>
      <point x="586.3333333333334" y="301.1666666666667" type="line"/>
      <point x="186.0" y="720.0" type="line"/>
      <point x="91.33333333333333" y="720.0" type="line"/>
    </contour>
    <contour>
      <point x="537.3333333333334" y="0.0" type="line"/>
      <point x="652.6666666666666" y="0.0" type="line"/>
      <point x="652.6666666666666" y="720.0" type="line"/>
      <point x="537.3333333333334" y="720.0" type="line"/>
    </contour>
  </outline>
</glyph>
<glyph name="O" format="2">
  <advance width="792.0"/>
  <unicode hex="004F"/>
  <note>
O
</note>
  <anchor x="396.0" y="0.0" name="bottom"/>
  <anchor x="396.0" y="360.0" name="center"/>
  <anchor x="471.3333333333333" y="10.0" name="ogonek"/>
  <anchor x="396.0" y="720.0" name="top"/>
  <anchor x="20.0" y="720.0" name="topleft"/>
  <anchor x="478.3333333333333" y="720.0" name="topright"/>
  <outline>
    <contour>
      <point x="52.666666666666664" y="360.0" type="curve" smooth="yes"/>
      <point x="52.666666666666664" y="139.33333333333334"/>
      <point x="180.33333333333334" y="-12.0"/>
      <point x="396.0" y="-12.0" type="curve" smooth="yes"/>
      <point x="610.0" y="-12.0"/>
      <point x="739.3333333333334" y="140.0"/>
      <point x="739.3333333333334" y="360.0" type="curve" smooth="yes"/>
      <point x="739.3333333333334" y="580.0"/>
      <point x="610.0" y="732.0"/>
      <point x="396.0" y="732.0" type="curve" smooth="yes"/>
      <point x="182.0" y="732.0"/>
      <point x="52.666666666666664" y="580.0"/>
    </contour>
    <contour>
      <point x="172.0" y="360.0" type="curve" smooth="yes"/>
      <point x="172.0" y="531.3333333333334"/>
      <point x="256.6666666666667" y="629.3333333333334"/>
      <point x="396.0" y="629.3333333333334" type="curve" smooth="yes"/>
      <point x="535.3333333333334" y="629.3333333333334"/>
      <point x="620.0" y="531.3333333333334"/>
      <point x="620.0" y="360.0" type="curve" smooth="yes"/>
      <point x="620.0" y="188.66666666666666"/>
      <point x="535.3333333333334" y="90.66666666666667"/>
      <point x="396.0" y="90.66666666666667" type="curve" smooth="yes"/>
      <point x="256.6666666666667" y="90.66666666666667"/>
      <point x="172.0" y="188.66666666666666"/>
    </contour>
  </outline>
</glyph>
<glyph name="P" format="2">
  <advance width="635.3333333333334"/>
  <unicode hex="0050"/>
  <note>
P
</note>
  <anchor x="317.6666666666667" y="0.0" name="bottom"/>
  <anchor x="317.6666666666667" y="720.0" name="top"/>
  <outline>
    <contour>
      <point x="156.66666666666666" y="226.66666666666666" type="line"/>
      <point x="316.0" y="226.66666666666666" type="line" smooth="yes"/>
      <point x="510.6666666666667" y="226.66666666666666"/>
      <point x="596.6666666666666" y="364.0"/>
      <point x="596.6666666666666" y="504.0" type="curve" smooth="yes"/>
      <point x="596.6666666666666" y="646.6666666666666"/>
      <point x="503.3333333333333" y="720.0"/>
      <point x="355.3333333333333" y="720.0" type="curve" smooth="yes"/>
      <point x="156.66666666666666" y="720.0" type="line"/>
      <point x="156.66666666666666" y="620.6666666666666" type="line"/>
      <point x="352.6666666666667" y="620.6666666666666" type="line" smooth="yes"/>
      <point x="428.6666666666667" y="620.6666666666666"/>
      <point x="478.6666666666667" y="589.3333333333334"/>
      <point x="478.6666666666667" y="502.6666666666667" type="curve" smooth="yes"/>
      <point x="478.6666666666667" y="404.6666666666667"/>
      <point x="430.0" y="324.6666666666667"/>
      <point x="314.6666666666667" y="324.6666666666667" type="curve" smooth="yes"/>
      <point x="156.66666666666666" y="324.6666666666667" type="line"/>
    </contour>
    <contour>
      <point x="91.33333333333333" y="0.0" type="line"/>
      <point x="206.66666666666666" y="0.0" type="line"/>
      <point x="206.66666666666666" y="720.0" type="line"/>
      <point x="91.33333333333333" y="720.0" type="line"/>
    </contour>
  </outline>
</glyph>
<glyph name="Q" format="2">
  <advance width="792.0"/>
  <unicode hex="0051"/>
  <note>
Q
</note>
  <anchor x="396.0" y="0.0" name="bottom"/>
  <anchor x="396.0" y="720.0" name="top"/>
  <anchor x="396.0" y="360.0" name="center"/>
  <anchor x="471.3333333333333" y="10.0" name="ogonek"/>
  <anchor x="20.0" y="720.0" name="topleft"/>
  <anchor x="478.3333333333333" y="720.0" name="topright"/>
  <outline>
    <contour>
      <point x="620.0" y="-158.33333333333334" type="line"/>
      <point x="769.6666666666666" y="-158.33333333333334" type="line"/>
      <point x="769.6666666666666" y="-149.66666666666666" type="line"/>
      <point x="526.6666666666666" y="53.666666666666664" type="line"/>
      <point x="410.5" y="24.833333333333332" type="line"/>
    </contour>
    <component base="O"/>
  </outline>
</glyph>
<glyph name="R" format="2">
  <advance width="674.0"/>
  <unicode hex="0052"/>
  <note>
R
</note>
  <anchor x="337.0" y="0.0" name="bottom"/>
  <anchor x="337.0" y="720.0" name="top"/>
  <outline>
    <contour>
      <point x="156.66666666666666" y="205.33333333333334" type="line"/>
      <point x="326.0" y="205.33333333333334" type="line" smooth="yes"/>
      <point x="472.0" y="205.33333333333334"/>
      <point x="608.6666666666666" y="308.3333333333333"/>
      <point x="608.6666666666666" y="490.0" type="curve" smooth="yes"/>
      <point x="608.6666666666666" y="636.0"/>
      <point x="515.5" y="720.0"/>
      <point x="359.3333333333333" y="720.0" type="curve" smooth="yes"/>
      <point x="156.66666666666666" y="720.0" type="line"/>
      <point x="156.66666666666666" y="620.6666666666666" type="line"/>
      <point x="356.0" y="620.6666666666666" type="line" smooth="yes"/>
      <point x="436.3333333333333" y="620.6666666666666"/>
      <point x="490.0" y="579.3333333333334"/>
      <point x="490.0" y="488.6666666666667" type="curve" smooth="yes"/>
      <point x="490.0" y="394.0"/>
      <point x="437.3333333333333" y="306.6666666666667"/>
      <point x="328.0" y="306.6666666666667" type="curve" smooth="yes"/>
      <point x="156.66666666666666" y="306.6666666666667" type="line"/>
    </contour>
    <contour>
      <point x="91.33333333333333" y="0.0" type="line"/>
      <point x="206.66666666666666" y="0.0" type="line"/>
      <point x="206.66666666666666" y="720.0" type="line"/>
      <point x="91.33333333333333" y="720.0" type="line"/>
    </contour>
    <contour>
      <point x="515.3333333333334" y="0.0" type="line"/>
      <point x="647.3333333333334" y="0.0" type="line"/>
      <point x="647.3333333333334" y="5.333333333333333" type="line"/>
      <point x="453.5" y="251.33333333333334" type="line"/>
      <point x="338.0" y="235.33333333333334" type="line"/>
    </contour>
  </outline>
</glyph>
<glyph name="S" format="2">
  <advance width="594.6666666666666"/>
  <unicode hex="0053"/>
  <note>
S
</note>
  <anchor x="297.3333333333333" y="0.0" name="bottom"/>
  <anchor x="297.3333333333333" y="720.0" name="top"/>
  <outline>
    <contour>
      <point x="62.0" y="133.66666666666666" type="line"/>
      <point x="62.0" y="24.666666666666668" type="line"/>
      <point x="113.33333333333333" y="4.666666666666667"/>
      <point x="190.0" y="-12.0"/>
      <point x="275.3333333333333" y="-12.0" type="curve" smooth="yes"/>
      <point x="434.6666666666667" y="-12.0"/>
      <point x="548.3333333333334" y="50.0"/>
      <point x="548.3333333333334" y="187.33333333333334" type="curve" smooth="yes"/>
      <point x="548.3333333333334" y="301.3333333333333"/>
      <point x="472.8333333333333" y="354.8333333333333"/>
      <point x="368.0" y="373.0" type="curve" smooth="yes"/>
      <point x="286.0" y="387.6666666666667" type="line" smooth="yes"/>
      <point x="209.0" y="401.3333333333333"/>
      <point x="165.33333333333334" y="425.3333333333333"/>
      <point x="165.33333333333334" y="502.0" type="curve" smooth="yes"/>
      <point x="165.33333333333334" y="593.3333333333334"/>
      <point x="245.33333333333334" y="630.6666666666666"/>
      <point x="354.6666666666667" y="630.6666666666666" type="curve" smooth="yes"/>
      <point x="424.6666666666667" y="630.6666666666666"/>
      <point x="476.6666666666667" y="614.0"/>
      <point x="510.6666666666667" y="597.3333333333334" type="curve"/>
      <point x="519.3333333333334" y="597.3333333333334" type="line"/>
      <point x="519.3333333333334" y="703.3333333333334" type="line"/>
      <point x="482.0" y="719.6666666666666"/>
      <point x="420.0" y="732.0"/>
      <point x="360.6666666666667" y="732.0" type="curve" smooth="yes"/>
      <point x="168.0" y="732.0"/>
      <point x="51.333333333333336" y="655.3333333333334"/>
      <point x="51.333333333333336" y="496.6666666666667" type="curve" smooth="yes"/>
      <point x="51.333333333333336" y="369.3333333333333"/>
      <point x="133.5" y="308.6666666666667"/>
      <point x="246.0" y="289.6666666666667" type="curve" smooth="yes"/>
      <point x="328.6666666666667" y="275.0" type="line" smooth="yes"/>
      <point x="400.1666666666667" y="262.6666666666667"/>
      <point x="433.6666666666667" y="241.33333333333334"/>
      <point x="433.6666666666667" y="183.33333333333334" type="curve" smooth="yes"/>
      <point x="433.6666666666667" y="111.33333333333333"/>
      <point x="369.3333333333333" y="89.33333333333333"/>
      <point x="275.3333333333333" y="89.33333333333333" type="curve" smooth="yes"/>
      <point x="191.16666666666666" y="89.33333333333333"/>
      <point x="119.0" y="107.66666666666667"/>
      <point x="70.66666666666667" y="133.66666666666666" type="curve"/>
    </contour>
  </outline>
</glyph>
<glyph name="T" format="2">
  <advance width="595.3333333333334"/>
  <unicode hex="0054"/>
  <note>
T
</note>
  <anchor x="297.6666666666667" y="0.0" name="bottom"/>
  <anchor x="297.6666666666667" y="360.0" name="center"/>
  <anchor x="297.6666666666667" y="720.0" name="top"/>
  <outline>
    <contour>
      <point x="13.333333333333334" y="720.0" type="line"/>
      <point x="13.333333333333334" y="619.3333333333334" type="line"/>
      <point x="240.0" y="619.3333333333334" type="line"/>
      <point x="240.0" y="0.0" type="line"/>
      <point x="355.3333333333333" y="0.0" type="line"/>
      <point x="355.3333333333333" y="619.3333333333334" type="line"/>
      <point x="582.0" y="619.3333333333334" type="line"/>
      <point x="582.0" y="720.0" type="line"/>
    </contour>
  </outline>
</glyph>
<glyph name="U" format="2">
  <advance width="715.3333333333334"/>
  <unicode hex="0055"/>
  <note>
U
</note>
  <anchor x="357.6666666666667" y="0.0" name="bottom"/>
  <anchor x="428.0" y="10.0" name="ogonek"/>
  <anchor x="357.6666666666667" y="720.0" name="top"/>
  <anchor x="611.3333333333334" y="720.0" name="topright"/>
  <outline>
    <contour>
      <point x="84.0" y="720.0" type="line"/>
      <point x="84.0" y="275.3333333333333" type="line" smooth="yes"/>
      <point x="84.0" y="86.66666666666667"/>
      <point x="172.66666666666666" y="-12.0"/>
      <point x="357.3333333333333" y="-12.0" type="curve" smooth="yes"/>
      <point x="538.0" y="-12.0"/>
      <point x="631.3333333333334" y="86.66666666666667"/>
      <point x="631.3333333333334" y="275.3333333333333" type="curve" smooth="yes"/>
      <point x="631.3333333333334" y="720.0" type="line"/>
      <point x="516.0" y="720.0" type="line"/>
      <point x="516.0" y="273.3333333333333" type="line" smooth="yes"/>
      <point x="516.0" y="142.66666666666666"/>
      <point x="464.6666666666667" y="90.66666666666667"/>
      <point x="357.3333333333333" y="90.66666666666667" type="curve" smooth="yes"/>
      <point x="250.0" y="90.66666666666667"/>
      <point x="199.33333333333334" y="142.66666666666666"/>
      <point x="199.33333333333334" y="273.3333333333333" type="curve" smooth="yes"/>
      <point x="199.33333333333334" y="720.0" type="line"/>
    </contour>
  </outline>
</glyph>
<glyph name="V" format="2">
  <advance width="656.3333333333334"/>
  <unicode hex="0056"/>
  <note>
V
</note>
  <anchor x="328.1666666666667" y="0.0" name="bottom"/>
  <anchor x="328.1666666666667" y="720.0" name="top"/>
  <outline>
    <contour>
      <point x="84.33333333333333" y="17.333333333333332" type="curve"/>
      <point x="86.66666666666667" y="5.333333333333333" type="line"/>
      <point x="139.16666666666666" y="-6.666666666666667"/>
      <point x="186.16666666666666" y="-11.333333333333334"/>
      <point x="236.0" y="-11.333333333333334" type="curve" smooth="yes"/>
      <point x="435.3333333333333" y="-11.333333333333334"/>
      <point x="512.8333333333334" y="67.16666666666667"/>
      <point x="538.3333333333334" y="234.66666666666666" type="curve" smooth="yes"/>
      <point x="611.6666666666666" y="720.0" type="line"/>
      <point x="494.6666666666667" y="720.0" type="line"/>
      <point x="422.6666666666667" y="236.66666666666666" type="line" smooth="yes"/>
      <point x="408.5" y="143.66666666666666"/>
      <point x="370.0" y="88.0"/>
      <point x="247.33333333333334" y="88.0" type="curve" smooth="yes"/>
      <point x="220.16666666666666" y="88.0"/>
      <point x="200.16666666666666" y="90.0"/>
      <point x="182.33333333333334" y="94.5" type="curve"/>
      <point x="201.5" y="66.83333333333333" type="line"/>
      <point x="203.33333333333334" y="85.5"/>
      <point x="206.66666666666666" y="112.83333333333333"/>
      <point x="206.66666666666666" y="142.0" type="curve" smooth="yes"/>
      <point x="206.66666666666666" y="720.0" type="line"/>
      <point x="91.33333333333333" y="720.0" type="line"/>
      <point x="91.33333333333333" y="177.33333333333334" type="line" smooth="yes"/>
      <point x="91.33333333333333" y="137.33333333333334"/>
      <point x="90.66666666666667" y="56.666666666666664"/>
    </contour>
  </outline>
</glyph>
<glyph name="W" format="2">
  <advance width="1057.3333333333333"/>
  <unicode hex="0057"/>
  <note>
W
</note>
  <anchor x="528.6666666666666" y="0.0" name="bottom"/>
  <anchor x="528.6666666666666" y="720.0" name="top"/>
  <outline>
    <contour>
      <point x="667.0" y="-11.333333333333334" type="curve" smooth="yes"/>
      <point x="832.5" y="-11.333333333333334"/>
      <point x="900.0" y="74.66666666666667"/>
      <point x="931.3333333333334" y="236.66666666666666" type="curve" smooth="yes"/>
      <point x="1024.0" y="720.0" type="line"/>
      <point x="907.0" y="720.0" type="line"/>
      <point x="815.6666666666666" y="236.66666666666666" type="line" smooth="yes"/>
      <point x="798.3333333333334" y="144.66666666666666"/>
      <point x="763.3333333333334" y="88.0"/>
      <point x="670.0" y="88.0" type="curve" smooth="yes"/>
      <point x="636.5" y="88.0"/>
      <point x="623.3333333333334" y="90.83333333333333"/>
      <point x="599.0" y="97.33333333333333" type="curve"/>
      <point x="630.1666666666666" y="65.0" type="line"/>
      <point x="630.6666666666666" y="101.16666666666667"/>
      <point x="629.8333333333334" y="154.66666666666666"/>
      <point x="626.6666666666666" y="190.0" type="curve" smooth="yes"/>
      <point x="572.3333333333334" y="720.0" type="line"/>
      <point x="457.3333333333333" y="720.0" type="line"/>
      <point x="517.0" y="176.5" type="line" smooth="yes"/>
      <point x="520.8333333333334" y="133.83333333333334"/>
      <point x="524.3333333333334" y="59.166666666666664"/>
      <point x="522.0" y="17.333333333333332" type="curve"/>
      <point x="524.0" y="5.333333333333333" type="line"/>
      <point x="576.5" y="-6.666666666666667"/>
      <point x="617.1666666666666" y="-11.333333333333334"/>
    </contour>
    <contour>
      <point x="255.0" y="-11.333333333333334" type="curve" smooth="yes"/>
      <point x="409.8333333333333" y="-11.333333333333334"/>
      <point x="465.8333333333333" y="73.83333333333333"/>
      <point x="502.1666666666667" y="225.0" type="curve" smooth="yes"/>
      <point x="521.8333333333334" y="305.8333333333333" type="line"/>
      <point x="494.1666666666667" y="582.1666666666666" type="line"/>
      <point x="415.0" y="238.66666666666666" type="line" smooth="yes"/>
      <point x="394.8333333333333" y="148.0"/>
      <point x="363.6666666666667" y="88.0"/>
      <point x="270.3333333333333" y="88.0" type="curve" smooth="yes"/>
      <point x="238.33333333333334" y="88.0"/>
      <point x="226.33333333333334" y="92.33333333333333"/>
      <point x="203.83333333333334" y="97.0" type="curve"/>
      <point x="228.0" y="65.0" type="line"/>
      <point x="227.66666666666666" y="101.16666666666667"/>
      <point x="228.16666666666666" y="154.66666666666666"/>
      <point x="224.0" y="190.0" type="curve" smooth="yes"/>
      <point x="169.66666666666666" y="720.0" type="line"/>
      <point x="52.666666666666664" y="720.0" type="line"/>
      <point x="111.66666666666667" y="177.33333333333334" type="line" smooth="yes"/>
      <point x="116.33333333333333" y="137.33333333333334"/>
      <point x="119.66666666666667" y="58.0"/>
      <point x="117.33333333333333" y="17.333333333333332" type="curve"/>
      <point x="119.66666666666667" y="5.333333333333333" type="line"/>
      <point x="171.16666666666666" y="-7.0"/>
      <point x="207.16666666666666" y="-11.333333333333334"/>
    </contour>
  </outline>
</glyph>
<glyph name="X" format="2">
  <advance width="667.3333333333334"/>
  <unicode hex="0058"/>
  <note>
X
</note>
  <anchor x="333.6666666666667" y="0.0" name="bottom"/>
  <anchor x="333.6666666666667" y="720.0" name="top"/>
  <outline>
    <contour>
      <point x="511.3333333333333" y="0.0" type="line"/>
      <point x="643.3333333333334" y="0.0" type="line"/>
      <point x="643.3333333333334" y="8.666666666666666" type="line"/>
      <point x="368.6666666666667" y="403.8333333333333" type="line"/>
      <point x="156.0" y="720.0" type="line"/>
      <point x="24.0" y="720.0" type="line"/>
      <point x="24.0" y="711.3333333333334" type="line"/>
      <point x="298.6666666666667" y="316.1666666666667" type="line"/>
    </contour>
    <contour>
      <point x="28.0" y="0.0" type="line"/>
      <point x="152.66666666666666" y="0.0" type="line"/>
      <point x="364.0" y="316.8333333333333" type="line"/>
      <point x="636.0" y="711.3333333333334" type="line"/>
      <point x="636.0" y="720.0" type="line"/>
      <point x="511.3333333333333" y="720.0" type="line"/>
      <point x="300.0" y="403.1666666666667" type="line"/>
      <point x="28.0" y="8.666666666666666" type="line"/>
    </contour>
  </outline>
</glyph>
<glyph name="Y" format="2">
  <advance width="622.6666666666666"/>
  <unicode hex="0059"/>
  <note>
Y
</note>
  <anchor x="312.3333333333333" y="0.0" name="bottom"/>
  <anchor x="311.3333333333333" y="720.0" name="top"/>
  <anchor x="20.0" y="720.0" name="topleft"/>
  <outline>
    <contour>
      <point x="254.66666666666666" y="0.0" type="line"/>
      <point x="370.0" y="0.0" type="line"/>
      <point x="370.0" y="304.6666666666667" type="line"/>
      <point x="616.0" y="711.3333333333334" type="line"/>
      <point x="616.0" y="720.0" type="line"/>
      <point x="492.6666666666667" y="720.0" type="line"/>
      <point x="292.8333333333333" y="368.6666666666667" type="line"/>
      <point x="337.3333333333333" y="368.8333333333333" type="line"/>
      <point x="133.33333333333334" y="720.0" type="line"/>
      <point x="6.666666666666667" y="720.0" type="line"/>
      <point x="6.666666666666667" y="711.3333333333334" type="line"/>
      <point x="254.66666666666666" y="299.6666666666667" type="line"/>
    </contour>
  </outline>
</glyph>
<glyph name="Z" format="2">
  <advance width="599.0"/>
  <unicode hex="005A"/>
  <note>
Z
</note>
  <anchor x="299.5" y="0.0" name="bottom"/>
  <anchor x="299.5" y="720.0" name="top"/>
  <outline>
    <contour>
      <point x="53.0" y="0.0" type="line"/>
      <point x="559.3333333333334" y="0.0" type="line"/>
      <point x="559.3333333333334" y="100.66666666666666" type="line"/>
      <point x="151.5" y="100.66666666666666" type="line"/>
      <point x="172.5" y="58.83333333333333" type="line"/>
      <point x="523.0" y="620.6666666666666" type="line" smooth="yes"/>
      <point x="538.3333333333334" y="645.1666666666666"/>
      <point x="550.6666666666666" y="669.0"/>
      <point x="550.6666666666666" y="693.1666666666666" type="curve" smooth="yes"/>
      <point x="550.6666666666666" y="698.5"/>
      <point x="549.3333333333334" y="706.0"/>
      <point x="548.0" y="711.3333333333334" type="curve"/>
      <point x="539.3333333333334" y="720.0" type="line"/>
      <point x="49.0" y="720.0" type="line"/>
      <point x="49.0" y="619.3333333333334" type="line"/>
      <point x="440.0" y="619.3333333333334" type="line"/>
      <point x="419.0" y="661.1666666666666" type="line"/>
      <point x="69.33333333333333" y="99.33333333333333" type="line" smooth="yes"/>
      <point x="52.333333333333336" y="72.33333333333333"/>
      <point x="42.5" y="52.666666666666664"/>
      <point x="42.5" y="26.833333333333332" type="curve" smooth="yes"/>
      <point x="42.5" y="21.5"/>
      <point x="42.833333333333336" y="15.166666666666666"/>
      <point x="44.333333333333336" y="8.666666666666666" type="curve"/>
    </contour>
  </outline>
</glyph>
<glyph name="bracketleft" format="2">
  <advance width="354.6666666666667"/>
  <unicode hex="005B"/>
  <note>
bracketleft
</note>
  <outline>
    <contour>
      <point x="102.66666666666667" y="760.0" type="line"/>
      <point x="102.66666666666667" y="-88.0" type="line"/>
      <point x="330.6666666666667" y="-88.0" type="line"/>
      <point x="330.6666666666667" y="0.0" type="line"/>
      <point x="202.66666666666666" y="0.0" type="line"/>
      <point x="202.66666666666666" y="672.0" type="line"/>
      <point x="330.6666666666667" y="672.0" type="line"/>
      <point x="330.6666666666667" y="760.0" type="line"/>
    </contour>
  </outline>
</glyph>
<glyph name="backslash" format="2">
  <advance width="528.0"/>
  <unicode hex="005C"/>
  <note>
backslash
</note>
  <outline>
    <contour>
      <point x="406.0" y="0.0" type="line"/>
      <point x="506.0" y="0.0" type="line"/>
      <point x="122.0" y="720.0" type="line"/>
      <point x="22.0" y="720.0" type="line"/>
    </contour>
  </outline>
</glyph>
<glyph name="bracketright" format="2">
  <advance width="354.6666666666667"/>
  <unicode hex="005D"/>
  <note>
bracketright
</note>
  <outline>
    <contour>
      <point x="24.0" y="0.0" type="line"/>
      <point x="24.0" y="-88.0" type="line"/>
      <point x="252.0" y="-88.0" type="line"/>
      <point x="252.0" y="760.0" type="line"/>
      <point x="24.0" y="760.0" type="line"/>
      <point x="24.0" y="672.0" type="line"/>
      <point x="152.0" y="672.0" type="line"/>
      <point x="152.0" y="0.0" type="line"/>
    </contour>
  </outline>
</glyph>
<glyph name="asciicircum" format="2">
  <advance width="616.0"/>
  <unicode hex="005E"/>
  <note>
asciicircum
</note>
  <outline>
    <contour>
      <point x="84.33333333333333" y="396.6666666666667" type="line"/>
      <point x="181.0" y="396.6666666666667" type="line"/>
      <point x="308.0" y="606.0" type="line"/>
      <point x="435.5" y="396.6666666666667" type="line"/>
      <point x="531.5" y="396.6666666666667" type="line"/>
      <point x="531.5" y="404.6666666666667" type="line"/>
      <point x="338.0" y="730.0" type="line"/>
      <point x="278.0" y="730.0" type="line"/>
      <point x="84.33333333333333" y="404.6666666666667" type="line"/>
    </contour>
  </outline>
</glyph>
<glyph name="a" format="2">
  <advance width="594.3333333333334"/>
  <unicode hex="0061"/>
  <note>
a
</note>
  <anchor x="297.1666666666667" y="0.0" name="bottom"/>
  <anchor x="517.3333333333334" y="28.666666666666668" name="ogonek"/>
  <anchor x="297.1666666666667" y="544.6666666666666" name="top"/>
  <outline>
    <contour>
      <point x="291.0" y="-12.0" type="curve" smooth="yes"/>
      <point x="357.0" y="-12.0"/>
      <point x="450.3333333333333" y="4.333333333333333"/>
      <point x="517.3333333333334" y="28.666666666666668" type="curve"/>
      <point x="519.6666666666666" y="36.666666666666664" type="line"/>
      <point x="511.3333333333333" y="72.66666666666667"/>
      <point x="511.0" y="159.33333333333334"/>
      <point x="511.0" y="200.0" type="curve" smooth="yes"/>
      <point x="511.0" y="329.3333333333333" type="line" smooth="yes"/>
      <point x="511.0" y="518.6666666666666"/>
      <point x="404.5" y="557.3333333333334"/>
      <point x="265.0" y="557.3333333333334" type="curve" smooth="yes"/>
      <point x="209.66666666666666" y="557.3333333333334"/>
      <point x="146.33333333333334" y="547.6666666666666"/>
      <point x="98.33333333333333" y="529.0" type="curve"/>
      <point x="98.33333333333333" y="434.6666666666667" type="line"/>
      <point x="107.0" y="434.6666666666667" type="line"/>
      <point x="139.0" y="450.3333333333333"/>
      <point x="197.66666666666666" y="465.3333333333333"/>
      <point x="251.0" y="465.3333333333333" type="curve" smooth="yes"/>
      <point x="350.3333333333333" y="465.3333333333333"/>
      <point x="400.3333333333333" y="446.0"/>
      <point x="400.3333333333333" y="328.6666666666667" type="curve" smooth="yes"/>
      <point x="400.3333333333333" y="166.66666666666666" type="line" smooth="yes"/>
      <point x="400.3333333333333" y="121.0"/>
      <point x="402.3333333333333" y="93.16666666666667"/>
      <point x="411.0" y="66.33333333333333" type="curve"/>
      <point x="429.6666666666667" y="98.5" type="line"/>
      <point x="390.5" y="81.66666666666667"/>
      <point x="342.6666666666667" y="73.33333333333333"/>
      <point x="292.3333333333333" y="73.33333333333333" type="curve" smooth="yes"/>
      <point x="204.33333333333334" y="73.33333333333333"/>
      <point x="156.33333333333334" y="98.66666666666667"/>
      <point x="156.33333333333334" y="161.33333333333334" type="curve" smooth="yes"/>
      <point x="156.33333333333334" y="227.33333333333334"/>
      <point x="203.66666666666666" y="250.0"/>
      <point x="303.0" y="250.0" type="curve" smooth="yes"/>
      <point x="345.3333333333333" y="250.0"/>
      <point x="400.0" y="239.33333333333334"/>
      <point x="432.0" y="228.66666666666666" type="curve"/>
      <point x="432.0" y="308.0" type="line"/>
      <point x="396.6666666666667" y="319.0"/>
      <point x="351.3333333333333" y="332.6666666666667"/>
      <point x="284.3333333333333" y="332.6666666666667" type="curve" smooth="yes"/>
      <point x="141.66666666666666" y="332.6666666666667"/>
      <point x="49.333333333333336" y="278.0"/>
      <point x="49.333333333333336" y="160.66666666666666" type="curve" smooth="yes"/>
      <point x="49.333333333333336" y="42.0"/>
      <point x="130.33333333333334" y="-12.0"/>
    </contour>
  </outline>
</glyph>
<glyph name="b" format="2">
  <advance width="629.0"/>
  <unicode hex="0062"/>
  <note>
b
</note>
  <anchor x="314.5" y="0.0" name="bottom"/>
  <anchor x="314.5" y="760.0" name="top"/>
  <outline>
    <contour>
      <point x="282.6666666666667" y="-12.0" type="curve" smooth="yes"/>
      <point x="464.6666666666667" y="-12.0"/>
      <point x="579.0" y="90.66666666666667"/>
      <point x="579.0" y="276.6666666666667" type="curve" smooth="yes"/>
      <point x="579.0" y="449.3333333333333"/>
      <point x="478.5" y="557.3333333333334"/>
      <point x="306.6666666666667" y="557.3333333333334" type="curve" smooth="yes"/>
      <point x="266.1666666666667" y="557.3333333333334"/>
      <point x="217.83333333333334" y="549.3333333333334"/>
      <point x="171.33333333333334" y="529.3333333333334" type="curve"/>
      <point x="171.33333333333334" y="443.3333333333333" type="line"/>
      <point x="217.0" y="458.5"/>
      <point x="242.66666666666666" y="465.3333333333333"/>
      <point x="289.3333333333333" y="465.3333333333333" type="curve" smooth="yes"/>
      <point x="405.3333333333333" y="465.3333333333333"/>
      <point x="464.6666666666667" y="393.3333333333333"/>
      <point x="464.6666666666667" y="276.0" type="curve" smooth="yes"/>
      <point x="464.6666666666667" y="149.33333333333334"/>
      <point x="409.3333333333333" y="79.33333333333333"/>
      <point x="288.6666666666667" y="79.33333333333333" type="curve" smooth="yes"/>
      <point x="246.16666666666666" y="79.33333333333333"/>
      <point x="204.33333333333334" y="88.0"/>
      <point x="176.66666666666666" y="96.33333333333333" type="curve"/>
      <point x="196.0" y="65.66666666666667" type="line"/>
      <point x="199.33333333333334" y="86.33333333333333"/>
      <point x="203.33333333333334" y="115.16666666666667"/>
      <point x="203.33333333333334" y="155.33333333333334" type="curve" smooth="yes"/>
      <point x="203.33333333333334" y="760.0" type="line"/>
      <point x="85.0" y="760.0" type="line"/>
      <point x="82.66666666666667" y="752.0" type="line"/>
      <point x="90.83333333333333" y="716.0"/>
      <point x="91.33333333333333" y="619.3333333333334"/>
      <point x="91.33333333333333" y="579.3333333333334" type="curve" smooth="yes"/>
      <point x="91.33333333333333" y="194.66666666666666" type="line" smooth="yes"/>
      <point x="91.33333333333333" y="154.66666666666666"/>
      <point x="91.33333333333333" y="68.0"/>
      <point x="83.33333333333333" y="32.0" type="curve"/>
      <point x="85.66666666666667" y="24.0" type="line"/>
      <point x="138.33333333333334" y="4.0"/>
      <point x="213.5" y="-12.0"/>
    </contour>
  </outline>
</glyph>
<glyph name="c" format="2">
  <advance width="508.0"/>
  <unicode hex="0063"/>
  <note>
c
</note>
  <anchor x="254.0" y="0.0" name="bottom"/>
  <anchor x="254.0" y="544.6666666666666" name="top"/>
  <outline>
    <contour>
      <point x="50.0" y="274.3333333333333" type="curve" smooth="yes"/>
      <point x="50.0" y="91.33333333333333"/>
      <point x="163.0" y="-8.666666666666666"/>
      <point x="348.0" y="-8.666666666666666" type="curve" smooth="yes"/>
      <point x="395.3333333333333" y="-8.666666666666666"/>
      <point x="439.3333333333333" y="-1.0"/>
      <point x="471.3333333333333" y="12.333333333333334" type="curve"/>
      <point x="471.3333333333333" y="108.0" type="line"/>
      <point x="462.6666666666667" y="108.0" type="line"/>
      <point x="436.0" y="95.0"/>
      <point x="398.6666666666667" y="85.33333333333333"/>
      <point x="352.6666666666667" y="85.33333333333333" type="curve" smooth="yes"/>
      <point x="237.33333333333334" y="85.33333333333333"/>
      <point x="164.33333333333334" y="149.33333333333334"/>
      <point x="164.33333333333334" y="274.3333333333333" type="curve" smooth="yes"/>
      <point x="164.33333333333334" y="399.3333333333333"/>
      <point x="237.33333333333334" y="463.3333333333333"/>
      <point x="352.6666666666667" y="463.3333333333333" type="curve" smooth="yes"/>
      <point x="398.6666666666667" y="463.3333333333333"/>
      <point x="436.0" y="453.6666666666667"/>
      <point x="462.6666666666667" y="440.6666666666667" type="curve"/>
      <point x="471.3333333333333" y="440.6666666666667" type="line"/>
      <point x="471.3333333333333" y="536.3333333333334" type="line"/>
      <point x="439.3333333333333" y="549.6666666666666"/>
      <point x="395.3333333333333" y="557.3333333333334"/>
      <point x="348.0" y="557.3333333333334" type="curve" smooth="yes"/>
      <point x="167.33333333333334" y="557.3333333333334"/>
      <point x="50.0" y="457.3333333333333"/>
    </contour>
  </outline>
</glyph>
<glyph name="d" format="2">
  <advance width="629.0"/>
  <unicode hex="0064"/>
  <note>
d
</note>
  <anchor x="314.5" y="0.0" name="bottom"/>
  <anchor x="455.6666666666667" y="655.0" name="center"/>
  <anchor x="314.5" y="760.0" name="top"/>
  <anchor x="659.3333333333334" y="544.6666666666666" name="topright"/>
  <outline>
    <contour>
      <point x="338.0" y="-12.0" type="curve" smooth="yes"/>
      <point x="420.0" y="-12.0"/>
      <point x="487.3333333333333" y="5.666666666666667"/>
      <point x="543.3333333333334" y="28.0" type="curve"/>
      <point x="545.6666666666666" y="36.0" type="line"/>
      <point x="537.6666666666666" y="72.0"/>
      <point x="537.6666666666666" y="158.66666666666666"/>
      <point x="537.6666666666666" y="198.66666666666666" type="curve" smooth="yes"/>
      <point x="537.6666666666666" y="760.0" type="line"/>
      <point x="419.3333333333333" y="760.0" type="line"/>
      <point x="417.0" y="752.0" type="line"/>
      <point x="424.8333333333333" y="717.1666666666666"/>
      <point x="425.6666666666667" y="627.6666666666666"/>
      <point x="425.6666666666667" y="584.8333333333334" type="curve" smooth="yes"/>
      <point x="425.6666666666667" y="159.33333333333334" type="line" smooth="yes"/>
      <point x="425.6666666666667" y="124.16666666666667"/>
      <point x="427.3333333333333" y="92.0"/>
      <point x="435.3333333333333" y="68.83333333333333" type="curve"/>
      <point x="450.3333333333333" y="100.5" type="line"/>
      <point x="423.3333333333333" y="89.0"/>
      <point x="389.8333333333333" y="80.0"/>
      <point x="345.3333333333333" y="80.0" type="curve" smooth="yes"/>
      <point x="225.5" y="80.0"/>
      <point x="164.33333333333334" y="144.0"/>
      <point x="164.33333333333334" y="274.3333333333333" type="curve" smooth="yes"/>
      <point x="164.33333333333334" y="396.3333333333333"/>
      <point x="228.16666666666666" y="465.3333333333333"/>
      <point x="350.3333333333333" y="465.3333333333333" type="curve" smooth="yes"/>
      <point x="395.1666666666667" y="465.3333333333333"/>
      <point x="425.3333333333333" y="454.3333333333333"/>
      <point x="441.1666666666667" y="448.3333333333333" type="curve"/>
      <point x="444.5" y="539.6666666666666" type="line"/>
      <point x="423.8333333333333" y="548.5"/>
      <point x="385.6666666666667" y="557.3333333333334"/>
      <point x="338.6666666666667" y="557.1666666666666" type="curve" smooth="yes"/>
      <point x="165.33333333333334" y="556.6666666666666"/>
      <point x="50.0" y="452.0"/>
      <point x="50.0" y="274.3333333333333" type="curve" smooth="yes"/>
      <point x="50.0" y="90.0"/>
      <point x="155.33333333333334" y="-12.0"/>
    </contour>
  </outline>
</glyph>
<glyph name="e" format="2">
  <advance width="603.5"/>
  <unicode hex="0065"/>
  <note>
e
</note>
  <anchor x="302.1666666666667" y="0.0" name="bottom"/>
  <anchor x="516.6666666666666" y="20.333333333333332" name="ogonek"/>
  <anchor x="302.1666666666667" y="544.6666666666666" name="top"/>
  <outline>
    <contour>
      <point x="357.3333333333333" y="-8.666666666666666" type="curve" smooth="yes"/>
      <point x="430.1666666666667" y="-8.666666666666666"/>
      <point x="482.6666666666667" y="4.333333333333334"/>
      <point x="516.6666666666666" y="20.333333333333332" type="curve"/>
      <point x="516.6666666666666" y="115.33333333333333" type="line"/>
      <point x="508.0" y="115.33333333333333" type="line"/>
      <point x="480.0" y="99.33333333333333"/>
      <point x="430.6666666666667" y="84.0"/>
      <point x="364.0" y="84.0" type="curve" smooth="yes"/>
      <point x="246.16666666666666" y="84.0"/>
      <point x="163.66666666666666" y="128.0"/>
      <point x="163.66666666666666" y="270.3333333333333" type="curve" smooth="yes"/>
      <point x="163.66666666666666" y="282.6666666666667" type="line" smooth="yes"/>
      <point x="163.66666666666666" y="422.0"/>
      <point x="229.16666666666666" y="467.3333333333333"/>
      <point x="308.0" y="467.3333333333333" type="curve" smooth="yes"/>
      <point x="396.5" y="467.3333333333333"/>
      <point x="440.0" y="418.6666666666667"/>
      <point x="440.0" y="326.6666666666667" type="curve" smooth="yes"/>
      <point x="440.0" y="319.3333333333333" type="line"/>
      <point x="124.66666666666667" y="319.3333333333333" type="line"/>
      <point x="124.66666666666667" y="236.66666666666666" type="line"/>
      <point x="552.1666666666666" y="236.66666666666666" type="line"/>
      <point x="553.3333333333334" y="266.6666666666667" type="line" smooth="yes"/>
      <point x="559.8333333333334" y="438.6666666666667"/>
      <point x="487.3333333333333" y="557.3333333333334"/>
      <point x="308.6666666666667" y="557.3333333333334" type="curve" smooth="yes"/>
      <point x="152.16666666666666" y="557.3333333333334"/>
      <point x="50.0" y="446.6666666666667"/>
      <point x="50.0" y="274.3333333333333" type="curve" smooth="yes"/>
      <point x="50.0" y="86.0"/>
      <point x="154.66666666666666" y="-8.666666666666666"/>
    </contour>
  </outline>
</glyph>
<glyph name="f" format="2">
  <advance width="357.3333333333333"/>
  <unicode hex="0066"/>
  <note>
f
</note>
  <anchor x="178.66666666666666" y="0.0" name="bottom"/>
  <anchor x="178.66666666666666" y="760.0" name="top"/>
  <outline>
    <contour>
      <point x="100.0" y="0.0" type="line"/>
      <point x="212.0" y="0.0" type="line"/>
      <point x="212.0" y="542.0" type="line" smooth="yes"/>
      <point x="212.0" y="632.5"/>
      <point x="237.16666666666666" y="670.6666666666666"/>
      <point x="314.0" y="670.6666666666666" type="curve" smooth="yes"/>
      <point x="344.6666666666667" y="670.6666666666666"/>
      <point x="361.3333333333333" y="666.3333333333334"/>
      <point x="380.0" y="658.6666666666666" type="curve"/>
      <point x="388.6666666666667" y="658.6666666666666" type="line"/>
      <point x="388.6666666666667" y="750.6666666666666" type="line"/>
      <point x="368.6666666666667" y="758.3333333333334"/>
      <point x="343.3333333333333" y="762.6666666666666"/>
      <point x="310.0" y="762.6666666666666" type="curve" smooth="yes"/>
      <point x="171.83333333333334" y="762.6666666666666"/>
      <point x="100.0" y="690.5"/>
      <point x="100.0" y="542.6666666666666" type="curve" smooth="yes"/>
    </contour>
    <contour>
      <point x="14.666666666666666" y="451.3333333333333" type="line"/>
      <point x="358.6666666666667" y="451.3333333333333" type="line"/>
      <point x="358.6666666666667" y="544.6666666666666" type="line"/>
      <point x="14.666666666666666" y="544.6666666666666" type="line"/>
    </contour>
  </outline>
</glyph>
<glyph name="g" format="2">
  <advance width="629.0"/>
  <unicode hex="0067"/>
  <note>
g
</note>
  <anchor x="314.5" y="-240.0" name="bottom"/>
  <anchor x="314.5" y="544.6666666666666" name="top"/>
  <outline>
    <contour>
      <point x="253.66666666666666" y="-240.0" type="curve" smooth="yes"/>
      <point x="431.3333333333333" y="-240.0"/>
      <point x="537.6666666666666" y="-146.0"/>
      <point x="537.6666666666666" y="22.0" type="curve" smooth="yes"/>
      <point x="537.6666666666666" y="348.0" type="line" smooth="yes"/>
      <point x="537.6666666666666" y="388.6666666666667"/>
      <point x="537.6666666666666" y="475.3333333333333"/>
      <point x="545.6666666666666" y="511.3333333333333" type="curve"/>
      <point x="543.3333333333334" y="519.3333333333334" type="line"/>
      <point x="492.0" y="540.0"/>
      <point x="419.3333333333333" y="557.3333333333334"/>
      <point x="352.0" y="557.3333333333334" type="curve" smooth="yes"/>
      <point x="166.66666666666666" y="557.3333333333334"/>
      <point x="50.0" y="453.3333333333333"/>
      <point x="50.0" y="276.0" type="curve" smooth="yes"/>
      <point x="50.0" y="95.33333333333333"/>
      <point x="165.66666666666666" y="4.0"/>
      <point x="339.3333333333333" y="4.0" type="curve" smooth="yes"/>
      <point x="369.8333333333333" y="4.0"/>
      <point x="401.5" y="8.333333333333334"/>
      <point x="444.3333333333333" y="18.333333333333332" type="curve"/>
      <point x="446.0" y="113.0" type="line"/>
      <point x="409.3333333333333" y="98.66666666666667"/>
      <point x="381.5" y="95.33333333333333"/>
      <point x="348.6666666666667" y="95.33333333333333" type="curve" smooth="yes"/>
      <point x="225.0" y="95.33333333333333"/>
      <point x="164.33333333333334" y="156.66666666666666"/>
      <point x="164.33333333333334" y="276.6666666666667" type="curve" smooth="yes"/>
      <point x="164.33333333333334" y="398.0"/>
      <point x="224.83333333333334" y="464.6666666666667"/>
      <point x="348.6666666666667" y="464.6666666666667" type="curve" smooth="yes"/>
      <point x="390.0" y="464.6666666666667"/>
      <point x="426.3333333333333" y="455.1666666666667"/>
      <point x="450.5" y="448.3333333333333" type="curve"/>
      <point x="433.8333333333333" y="477.1666666666667" type="line"/>
      <point x="427.8333333333333" y="454.3333333333333"/>
      <point x="425.6666666666667" y="422.5"/>
      <point x="425.6666666666667" y="386.6666666666667" type="curve" smooth="yes"/>
      <point x="425.6666666666667" y="16.666666666666668" type="line" smooth="yes"/>
      <point x="425.6666666666667" y="-96.66666666666667"/>
      <point x="373.0" y="-146.0"/>
      <point x="250.33333333333334" y="-146.0" type="curve" smooth="yes"/>
      <point x="207.83333333333334" y="-146.0"/>
      <point x="151.33333333333334" y="-137.83333333333334"/>
      <point x="109.33333333333333" y="-118.66666666666667" type="curve"/>
      <point x="100.0" y="-118.66666666666667" type="line"/>
      <point x="100.0" y="-214.33333333333334" type="line"/>
      <point x="139.33333333333334" y="-232.0"/>
      <point x="204.33333333333334" y="-240.0"/>
    </contour>
  </outline>
</glyph>
<glyph name="h" format="2">
  <advance width="648.6666666666666"/>
  <unicode hex="0068"/>
  <note>
h
</note>
  <anchor x="324.3333333333333" y="0.0" name="bottom"/>
  <anchor x="175.16666666666666" y="655.0" name="center"/>
  <anchor x="144.16666666666666" y="760.0" name="top"/>
  <outline>
    <contour>
      <point x="91.33333333333333" y="0.0" type="line"/>
      <point x="203.33333333333334" y="0.0" type="line"/>
      <point x="203.33333333333334" y="484.5" type="line"/>
      <point x="180.16666666666666" y="431.3333333333333" type="line"/>
      <point x="210.5" y="443.8333333333333"/>
      <point x="262.1666666666667" y="460.0"/>
      <point x="310.0" y="460.0" type="curve" smooth="yes"/>
      <point x="393.0" y="460.0"/>
      <point x="449.3333333333333" y="429.3333333333333"/>
      <point x="449.3333333333333" y="308.0" type="curve" smooth="yes"/>
      <point x="449.3333333333333" y="0.0" type="line"/>
      <point x="561.3333333333334" y="0.0" type="line"/>
      <point x="561.3333333333334" y="318.0" type="line" smooth="yes"/>
      <point x="561.3333333333334" y="503.3333333333333"/>
      <point x="456.0" y="557.3333333333334"/>
      <point x="336.0" y="557.3333333333334" type="curve" smooth="yes"/>
      <point x="270.0" y="557.3333333333334"/>
      <point x="221.33333333333334" y="540.6666666666666"/>
      <point x="180.0" y="521.3333333333334" type="curve"/>
      <point x="203.33333333333334" y="485.3333333333333" type="line"/>
      <point x="203.33333333333334" y="760.0" type="line"/>
      <point x="85.0" y="760.0" type="line"/>
      <point x="82.66666666666667" y="752.0" type="line"/>
      <point x="90.83333333333333" y="716.0"/>
      <point x="91.33333333333333" y="629.3333333333334"/>
      <point x="91.33333333333333" y="589.3333333333334" type="curve" smooth="yes"/>
    </contour>
  </outline>
</glyph>
<glyph name="k" format="2">
  <advance width="561.3333333333334"/>
  <unicode hex="006B"/>
  <note>
k
</note>
  <anchor x="280.6666666666667" y="0.0" name="bottom"/>
  <anchor x="280.6666666666667" y="760.0" name="top"/>
  <outline>
    <contour>
      <point x="203.33333333333334" y="0.0" type="line"/>
      <point x="203.33333333333334" y="760.0" type="line"/>
      <point x="85.0" y="760.0" type="line"/>
      <point x="82.66666666666667" y="752.0" type="line"/>
      <point x="90.83333333333333" y="716.0"/>
      <point x="91.33333333333333" y="629.3333333333334"/>
      <point x="91.33333333333333" y="589.3333333333334" type="curve" smooth="yes"/>
      <point x="91.33333333333333" y="0.0" type="line"/>
    </contour>
    <contour>
      <point x="186.66666666666666" y="284.6666666666667" type="line"/>
      <point x="425.3333333333333" y="0.0" type="line"/>
      <point x="555.3333333333334" y="0.0" type="line"/>
      <point x="555.3333333333334" y="12.0" type="line"/>
      <point x="537.0" y="28.0"/>
      <point x="501.0" y="69.83333333333333"/>
      <point x="475.3333333333333" y="99.66666666666667" type="curve" smooth="yes"/>
      <point x="282.0" y="324.8333333333333" type="line"/>
      <point x="281.0" y="256.1666666666667" type="line"/>
      <point x="472.5" y="455.8333333333333" type="line" smooth="yes"/>
      <point x="500.5" y="484.5"/>
      <point x="530.5" y="516.6666666666666"/>
      <point x="550.6666666666666" y="532.6666666666666" type="curve"/>
      <point x="550.6666666666666" y="544.6666666666666" type="line"/>
      <point x="427.3333333333333" y="544.6666666666666" type="line"/>
    </contour>
  </outline>
</glyph>
<glyph name="l" format="2">
  <advance width="294.6666666666667"/>
  <unicode hex="006C"/>
  <note>
l
</note>
  <anchor x="147.33333333333334" y="0.0" name="bottom"/>
  <anchor x="157.33333333333334" y="388.3333333333333" name="center"/>
  <anchor x="345.3333333333333" y="359.3333333333333" name="periodCAT"/>
  <anchor x="147.33333333333334" y="760.0" name="top"/>
  <anchor x="305.0" y="544.6666666666666" name="topright"/>
  <outline>
    <contour>
      <point x="91.33333333333333" y="0.0" type="line"/>
      <point x="203.33333333333334" y="0.0" type="line"/>
      <point x="203.33333333333334" y="760.0" type="line"/>
      <point x="85.0" y="760.0" type="line"/>
      <point x="82.66666666666667" y="752.0" type="line"/>
      <point x="90.83333333333333" y="716.0"/>
      <point x="91.33333333333333" y="629.3333333333334"/>
      <point x="91.33333333333333" y="589.3333333333334" type="curve" smooth="yes"/>
    </contour>
  </outline>
</glyph>
<glyph name="m" format="2">
  <advance width="968.0"/>
  <unicode hex="006D"/>
  <note>
m
</note>
  <anchor x="484.0" y="0.0" name="bottom"/>
  <anchor x="484.0" y="544.6666666666666" name="top"/>
  <outline>
    <contour>
      <point x="91.33333333333333" y="0.0" type="line"/>
      <point x="203.33333333333334" y="0.0" type="line"/>
      <point x="203.33333333333334" y="382.6666666666667" type="line" smooth="yes"/>
      <point x="203.33333333333334" y="418.6666666666667"/>
      <point x="199.83333333333334" y="450.6666666666667"/>
      <point x="194.0" y="470.8333333333333" type="curve"/>
      <point x="176.0" y="440.0" type="line"/>
      <point x="210.0" y="452.1666666666667"/>
      <point x="258.8333333333333" y="463.3333333333333"/>
      <point x="300.6666666666667" y="463.3333333333333" type="curve" smooth="yes"/>
      <point x="379.3333333333333" y="463.3333333333333"/>
      <point x="435.3333333333333" y="433.3333333333333"/>
      <point x="435.3333333333333" y="310.6666666666667" type="curve" smooth="yes"/>
      <point x="435.3333333333333" y="0.0" type="line"/>
      <point x="547.3333333333334" y="0.0" type="line"/>
      <point x="547.3333333333334" y="318.0" type="line" smooth="yes"/>
      <point x="547.3333333333334" y="509.3333333333333"/>
      <point x="432.6666666666667" y="557.3333333333334"/>
      <point x="313.0" y="557.3333333333334" type="curve" smooth="yes"/>
      <point x="241.33333333333334" y="557.3333333333334"/>
      <point x="140.33333333333334" y="536.0"/>
      <point x="85.0" y="514.0" type="curve"/>
      <point x="82.66666666666667" y="506.0" type="line"/>
      <point x="90.83333333333333" y="470.0"/>
      <point x="91.33333333333333" y="382.6666666666667"/>
      <point x="91.33333333333333" y="342.6666666666667" type="curve" smooth="yes"/>
    </contour>
    <contour>
      <point x="768.6666666666666" y="0.0" type="line"/>
      <point x="880.6666666666666" y="0.0" type="line"/>
      <point x="880.6666666666666" y="318.0" type="line" smooth="yes"/>
      <point x="880.6666666666666" y="511.3333333333333"/>
      <point x="773.3333333333334" y="557.3333333333334"/>
      <point x="642.6666666666666" y="557.3333333333334" type="curve" smooth="yes"/>
      <point x="582.0" y="557.3333333333334"/>
      <point x="512.3333333333334" y="539.8333333333334"/>
      <point x="449.3333333333333" y="513.6666666666666" type="curve"/>
      <point x="513.3333333333334" y="438.6666666666667" type="line"/>
      <point x="553.1666666666666" y="454.3333333333333"/>
      <point x="590.8333333333334" y="463.3333333333333"/>
      <point x="627.3333333333334" y="463.3333333333333" type="curve" smooth="yes"/>
      <point x="719.3333333333334" y="463.3333333333333"/>
      <point x="768.6666666666666" y="433.3333333333333"/>
      <point x="768.6666666666666" y="310.6666666666667" type="curve" smooth="yes"/>
    </contour>
  </outline>
</glyph>
<glyph name="n" format="2">
  <advance width="648.6666666666666"/>
  <unicode hex="006E"/>
  <note>
n
</note>
  <anchor x="324.3333333333333" y="0.0" name="bottom"/>
  <anchor x="324.3333333333333" y="544.6666666666666" name="top"/>
  <outline>
    <contour>
      <point x="91.33333333333333" y="0.0" type="line"/>
      <point x="203.33333333333334" y="0.0" type="line"/>
      <point x="203.33333333333334" y="382.6666666666667" type="line" smooth="yes"/>
      <point x="203.33333333333334" y="418.6666666666667"/>
      <point x="199.83333333333334" y="450.6666666666667"/>
      <point x="194.0" y="470.8333333333333" type="curve"/>
      <point x="176.0" y="440.0" type="line"/>
      <point x="210.0" y="452.1666666666667"/>
      <point x="258.8333333333333" y="463.3333333333333"/>
      <point x="300.6666666666667" y="463.3333333333333" type="curve" smooth="yes"/>
      <point x="392.6666666666667" y="463.3333333333333"/>
      <point x="449.3333333333333" y="433.3333333333333"/>
      <point x="449.3333333333333" y="310.6666666666667" type="curve" smooth="yes"/>
      <point x="449.3333333333333" y="0.0" type="line"/>
      <point x="561.3333333333334" y="0.0" type="line"/>
      <point x="561.3333333333334" y="318.0" type="line" smooth="yes"/>
      <point x="561.3333333333334" y="509.3333333333333"/>
      <point x="446.6666666666667" y="557.3333333333334"/>
      <point x="313.0" y="557.3333333333334" type="curve" smooth="yes"/>
      <point x="244.66666666666666" y="557.3333333333334"/>
      <point x="140.33333333333334" y="536.0"/>
      <point x="85.0" y="514.0" type="curve"/>
      <point x="82.66666666666667" y="506.0" type="line"/>
      <point x="90.83333333333333" y="470.0"/>
      <point x="91.33333333333333" y="382.6666666666667"/>
      <point x="91.33333333333333" y="342.6666666666667" type="curve" smooth="yes"/>
    </contour>
  </outline>
</glyph>
<glyph name="o" format="2">
  <advance width="615.3333333333334"/>
  <unicode hex="006F"/>
  <note>
o
</note>
  <anchor x="307.6666666666667" y="0.0" name="bottom"/>
  <anchor x="307.6666666666667" y="272.3333333333333" name="center"/>
  <anchor x="380.3333333333333" y="0.0" name="ogonek"/>
  <anchor x="307.6666666666667" y="544.6666666666666" name="top"/>
  <anchor x="394.5" y="544.6666666666666" name="topright"/>
  <outline>
    <contour>
      <point x="50.0" y="274.3333333333333" type="curve" smooth="yes"/>
      <point x="50.0" y="92.66666666666667"/>
      <point x="152.33333333333334" y="-8.666666666666666"/>
      <point x="307.6666666666667" y="-8.666666666666666" type="curve" smooth="yes"/>
      <point x="459.6666666666667" y="-8.666666666666666"/>
      <point x="565.3333333333334" y="92.66666666666667"/>
      <point x="565.3333333333334" y="274.3333333333333" type="curve" smooth="yes"/>
      <point x="565.3333333333334" y="456.0"/>
      <point x="459.6666666666667" y="557.3333333333334"/>
      <point x="307.6666666666667" y="557.3333333333334" type="curve" smooth="yes"/>
      <point x="155.66666666666666" y="557.3333333333334"/>
      <point x="50.0" y="456.0"/>
    </contour>
    <contour>
      <point x="164.33333333333334" y="274.3333333333333" type="curve" smooth="yes"/>
      <point x="164.33333333333334" y="401.3333333333333"/>
      <point x="215.0" y="466.0"/>
      <point x="307.6666666666667" y="466.0" type="curve" smooth="yes"/>
      <point x="400.3333333333333" y="466.0"/>
      <point x="451.0" y="401.3333333333333"/>
      <point x="451.0" y="274.3333333333333" type="curve" smooth="yes"/>
      <point x="451.0" y="147.33333333333334"/>
      <point x="400.3333333333333" y="82.66666666666667"/>
      <point x="307.6666666666667" y="82.66666666666667" type="curve" smooth="yes"/>
      <point x="215.0" y="82.66666666666667"/>
      <point x="164.33333333333334" y="147.33333333333334"/>
    </contour>
  </outline>
</glyph>
<glyph name="p" format="2">
  <advance width="629.0"/>
  <unicode hex="0070"/>
  <note>
p
</note>
  <anchor x="314.5" y="0.0" name="bottom"/>
  <anchor x="314.5" y="544.6666666666666" name="top"/>
  <outline>
    <contour>
      <point x="91.33333333333333" y="-232.0" type="line"/>
      <point x="203.33333333333334" y="-232.0" type="line"/>
      <point x="203.33333333333334" y="386.0" type="line" smooth="yes"/>
      <point x="203.33333333333334" y="421.0"/>
      <point x="201.16666666666666" y="451.5"/>
      <point x="194.66666666666666" y="471.5" type="curve"/>
      <point x="180.16666666666666" y="439.8333333333333" type="line"/>
      <point x="203.0" y="452.8333333333333"/>
      <point x="246.5" y="465.3333333333333"/>
      <point x="290.0" y="465.3333333333333" type="curve" smooth="yes"/>
      <point x="403.3333333333333" y="465.3333333333333"/>
      <point x="464.6666666666667" y="398.6666666666667"/>
      <point x="464.6666666666667" y="274.3333333333333" type="curve" smooth="yes"/>
      <point x="464.6666666666667" y="149.33333333333334"/>
      <point x="406.6666666666667" y="79.33333333333333"/>
      <point x="285.3333333333333" y="79.33333333333333" type="curve" smooth="yes"/>
      <point x="235.16666666666666" y="79.33333333333333"/>
      <point x="206.66666666666666" y="88.0"/>
      <point x="191.33333333333334" y="96.16666666666667" type="curve"/>
      <point x="184.66666666666666" y="3.5" type="line"/>
      <point x="207.0" y="-2.1666666666666665"/>
      <point x="251.16666666666666" y="-12.0"/>
      <point x="291.3333333333333" y="-12.0" type="curve" smooth="yes"/>
      <point x="474.6666666666667" y="-12.0"/>
      <point x="579.0" y="102.66666666666667"/>
      <point x="579.0" y="274.3333333333333" type="curve" smooth="yes"/>
      <point x="579.0" y="460.0"/>
      <point x="463.3333333333333" y="557.3333333333334"/>
      <point x="298.0" y="557.3333333333334" type="curve" smooth="yes"/>
      <point x="224.66666666666666" y="557.3333333333334"/>
      <point x="147.83333333333334" y="540.0"/>
      <point x="85.0" y="514.0" type="curve"/>
      <point x="82.66666666666667" y="506.0" type="line"/>
      <point x="90.83333333333333" y="470.0"/>
      <point x="91.33333333333333" y="383.3333333333333"/>
      <point x="91.33333333333333" y="346.6666666666667" type="curve" smooth="yes"/>
    </contour>
  </outline>
</glyph>
<glyph name="q" format="2">
  <advance width="629.0"/>
  <unicode hex="0071"/>
  <note>
q
</note>
  <anchor x="314.5" y="0.0" name="bottom"/>
  <anchor x="314.5" y="544.6666666666666" name="top"/>
  <outline>
    <contour>
      <point x="425.6666666666667" y="-228.0" type="line"/>
      <point x="537.6666666666666" y="-228.0" type="line"/>
      <point x="537.6666666666666" y="348.6666666666667" type="line" smooth="yes"/>
      <point x="537.6666666666666" y="388.6666666666667"/>
      <point x="537.6666666666666" y="475.3333333333333"/>
      <point x="545.6666666666666" y="511.3333333333333" type="curve"/>
      <point x="543.3333333333334" y="519.3333333333334" type="line"/>
      <point x="492.0" y="540.0"/>
      <point x="419.3333333333333" y="557.3333333333334"/>
      <point x="348.6666666666667" y="557.3333333333334" type="curve" smooth="yes"/>
      <point x="175.33333333333334" y="557.3333333333334"/>
      <point x="50.0" y="458.6666666666667"/>
      <point x="50.0" y="274.3333333333333" type="curve" smooth="yes"/>
      <point x="50.0" y="95.33333333333333"/>
      <point x="151.33333333333334" y="-12.0"/>
      <point x="333.3333333333333" y="-12.0" type="curve" smooth="yes"/>
      <point x="377.0" y="-12.0"/>
      <point x="423.6666666666667" y="-4.166666666666667"/>
      <point x="447.0" y="4.333333333333334" type="curve"/>
      <point x="444.6666666666667" y="97.16666666666667" type="line"/>
      <point x="425.8333333333333" y="89.0"/>
      <point x="389.5" y="80.0"/>
      <point x="346.0" y="80.0" type="curve" smooth="yes"/>
      <point x="228.5" y="80.0"/>
      <point x="164.33333333333334" y="140.33333333333334"/>
      <point x="164.33333333333334" y="274.3333333333333" type="curve" smooth="yes"/>
      <point x="164.33333333333334" y="396.3333333333333"/>
      <point x="227.5" y="466.0"/>
      <point x="348.6666666666667" y="466.0" type="curve" smooth="yes"/>
      <point x="390.5" y="466.0"/>
      <point x="425.1666666666667" y="455.5"/>
      <point x="450.8333333333333" y="446.3333333333333" type="curve"/>
      <point x="433.1666666666667" y="478.8333333333333" type="line"/>
      <point x="427.8333333333333" y="454.8333333333333"/>
      <point x="425.6666666666667" y="424.6666666666667"/>
      <point x="425.6666666666667" y="389.6666666666667" type="curve" smooth="yes"/>
    </contour>
  </outline>
</glyph>
<glyph name="r" format="2">
  <advance width="394.0"/>
  <unicode hex="0072"/>
  <note>
r
</note>
  <anchor x="147.33333333333334" y="0.0" name="bottom"/>
  <anchor x="197.0" y="544.6666666666666" name="top"/>
  <outline>
    <contour>
      <point x="91.33333333333333" y="0.0" type="line"/>
      <point x="203.33333333333334" y="0.0" type="line"/>
      <point x="203.33333333333334" y="382.6666666666667" type="line" smooth="yes"/>
      <point x="203.33333333333334" y="418.6666666666667"/>
      <point x="200.66666666666666" y="448.6666666666667"/>
      <point x="194.66666666666666" y="469.3333333333333" type="curve"/>
      <point x="175.16666666666666" y="441.1666666666667" type="line"/>
      <point x="206.66666666666666" y="449.5"/>
      <point x="253.33333333333334" y="457.3333333333333"/>
      <point x="296.0" y="457.3333333333333" type="curve" smooth="yes"/>
      <point x="317.3333333333333" y="457.3333333333333"/>
      <point x="344.5" y="455.8333333333333"/>
      <point x="362.6666666666667" y="452.0" type="curve"/>
      <point x="371.3333333333333" y="452.0" type="line"/>
      <point x="371.3333333333333" y="546.0" type="line"/>
      <point x="351.3333333333333" y="548.8333333333334"/>
      <point x="329.1666666666667" y="550.6666666666666"/>
      <point x="300.0" y="550.6666666666666" type="curve" smooth="yes"/>
      <point x="235.33333333333334" y="550.6666666666666"/>
      <point x="138.33333333333334" y="537.3333333333334"/>
      <point x="85.0" y="517.3333333333334" type="curve"/>
      <point x="82.66666666666667" y="509.3333333333333" type="line"/>
      <point x="90.83333333333333" y="473.3333333333333"/>
      <point x="91.33333333333333" y="386.0"/>
      <point x="91.33333333333333" y="346.0" type="curve" smooth="yes"/>
    </contour>
  </outline>
</glyph>
<glyph name="s" format="2">
  <advance width="511.3333333333333"/>
  <unicode hex="0073"/>
  <note>
s
</note>
  <anchor x="255.66666666666666" y="0.0" name="bottom"/>
  <anchor x="255.66666666666666" y="544.6666666666666" name="top"/>
  <outline>
    <contour>
      <point x="52.0" y="120.66666666666667" type="line"/>
      <point x="52.0" y="20.0" type="line"/>
      <point x="101.33333333333333" y="4.0"/>
      <point x="164.0" y="-8.0"/>
      <point x="230.66666666666666" y="-8.0" type="curve" smooth="yes"/>
      <point x="396.1666666666667" y="-8.0"/>
      <point x="476.0" y="48.666666666666664"/>
      <point x="476.0" y="160.0" type="curve" smooth="yes"/>
      <point x="476.0" y="254.66666666666666"/>
      <point x="400.0" y="297.0"/>
      <point x="307.3333333333333" y="312.3333333333333" type="curve" smooth="yes"/>
      <point x="260.0" y="320.3333333333333" type="line" smooth="yes"/>
      <point x="195.5" y="331.0"/>
      <point x="158.66666666666666" y="344.0"/>
      <point x="158.66666666666666" y="386.1666666666667" type="curve" smooth="yes"/>
      <point x="158.66666666666666" y="440.3333333333333"/>
      <point x="210.0" y="461.3333333333333"/>
      <point x="294.6666666666667" y="461.3333333333333" type="curve" smooth="yes"/>
      <point x="345.3333333333333" y="461.3333333333333"/>
      <point x="385.3333333333333" y="453.5"/>
      <point x="432.0" y="436.0" type="curve"/>
      <point x="440.0" y="436.0" type="line"/>
      <point x="440.0" y="531.6666666666666" type="line"/>
      <point x="403.3333333333333" y="544.3333333333334"/>
      <point x="352.6666666666667" y="553.3333333333334"/>
      <point x="298.6666666666667" y="553.3333333333334" type="curve" smooth="yes"/>
      <point x="119.33333333333333" y="553.3333333333334"/>
      <point x="51.333333333333336" y="474.0"/>
      <point x="51.333333333333336" y="382.0" type="curve" smooth="yes"/>
      <point x="51.333333333333336" y="295.3333333333333"/>
      <point x="107.33333333333333" y="252.5"/>
      <point x="217.83333333333334" y="233.66666666666666" type="curve" smooth="yes"/>
      <point x="265.1666666666667" y="225.66666666666666" type="line" smooth="yes"/>
      <point x="331.5" y="214.66666666666666"/>
      <point x="368.0" y="201.83333333333334"/>
      <point x="368.0" y="158.33333333333334" type="curve" smooth="yes"/>
      <point x="368.0" y="84.16666666666667"/>
      <point x="276.0" y="84.0"/>
      <point x="236.0" y="84.0" type="curve" smooth="yes"/>
      <point x="174.0" y="84.0"/>
      <point x="108.0" y="99.0"/>
      <point x="60.0" y="120.66666666666667" type="curve"/>
    </contour>
  </outline>
</glyph>
<glyph name="t" format="2">
  <advance width="420.0"/>
  <unicode hex="0074"/>
  <note>
t
</note>
  <anchor x="210.0" y="0.0" name="bottom"/>
  <anchor x="210.0" y="272.3333333333333" name="center"/>
  <anchor x="159.33333333333334" y="690.0" name="top"/>
  <anchor x="322.6666666666667" y="575.1666666666666" name="topright"/>
  <outline>
    <contour>
      <point x="307.3333333333333" y="-8.0" type="curve" smooth="yes"/>
      <point x="345.0" y="-8.0"/>
      <point x="376.6666666666667" y="-0.6666666666666666"/>
      <point x="398.6666666666667" y="9.0" type="curve"/>
      <point x="398.6666666666667" y="101.33333333333333" type="line"/>
      <point x="390.0" y="101.33333333333333" type="line"/>
      <point x="370.6666666666667" y="92.0"/>
      <point x="343.6666666666667" y="86.0"/>
      <point x="316.6666666666667" y="86.0" type="curve" smooth="yes"/>
      <point x="246.66666666666666" y="86.0"/>
      <point x="215.33333333333334" y="116.0"/>
      <point x="215.33333333333334" y="188.66666666666666" type="curve" smooth="yes"/>
      <point x="215.33333333333334" y="690.0" type="line"/>
      <point x="103.33333333333333" y="690.0" type="line"/>
      <point x="103.33333333333333" y="179.33333333333334" type="line" smooth="yes"/>
      <point x="103.33333333333333" y="59.333333333333336"/>
      <point x="166.0" y="-8.0"/>
    </contour>
    <contour>
      <point x="18.0" y="451.3333333333333" type="line"/>
      <point x="368.3333333333333" y="451.3333333333333" type="line"/>
      <point x="368.3333333333333" y="544.6666666666666" type="line"/>
      <point x="18.0" y="544.6666666666666" type="line"/>
    </contour>
  </outline>
</glyph>
<glyph name="u" format="2">
  <advance width="642.0"/>
  <unicode hex="0075"/>
  <note>
u
</note>
  <anchor x="321.0" y="0.0" name="bottom"/>
  <anchor x="557.0" y="28.0" name="ogonek"/>
  <anchor x="321.0" y="544.6666666666666" name="top"/>
  <anchor x="477.0" y="544.6666666666666" name="topright"/>
  <outline>
    <contour>
      <point x="335.6666666666667" y="-12.0" type="curve" smooth="yes"/>
      <point x="397.3333333333333" y="-12.0"/>
      <point x="501.6666666666667" y="6.0"/>
      <point x="557.0" y="28.0" type="curve"/>
      <point x="559.3333333333334" y="36.0" type="line"/>
      <point x="551.1666666666666" y="72.0"/>
      <point x="550.6666666666666" y="159.33333333333334"/>
      <point x="550.6666666666666" y="199.33333333333334" type="curve" smooth="yes"/>
      <point x="550.6666666666666" y="544.6666666666666" type="line"/>
      <point x="432.3333333333333" y="544.6666666666666" type="line"/>
      <point x="430.0" y="536.6666666666666" type="line"/>
      <point x="438.1666666666667" y="500.6666666666667"/>
      <point x="438.6666666666667" y="414.0"/>
      <point x="438.6666666666667" y="374.0" type="curve" smooth="yes"/>
      <point x="438.6666666666667" y="156.0" type="line" smooth="yes"/>
      <point x="438.6666666666667" y="121.66666666666667"/>
      <point x="439.6666666666667" y="91.33333333333333"/>
      <point x="446.3333333333333" y="72.83333333333333" type="curve"/>
      <point x="465.1666666666667" y="100.33333333333333" type="line"/>
      <point x="433.6666666666667" y="91.5"/>
      <point x="388.1666666666667" y="82.0"/>
      <point x="347.1666666666667" y="82.0" type="curve" smooth="yes"/>
      <point x="249.33333333333334" y="82.0"/>
      <point x="192.66666666666666" y="112.0"/>
      <point x="192.66666666666666" y="234.66666666666666" type="curve" smooth="yes"/>
      <point x="192.66666666666666" y="544.6666666666666" type="line"/>
      <point x="74.33333333333333" y="544.6666666666666" type="line"/>
      <point x="72.0" y="536.6666666666666" type="line"/>
      <point x="80.16666666666667" y="500.6666666666667"/>
      <point x="80.66666666666667" y="414.0"/>
      <point x="80.66666666666667" y="374.0" type="curve" smooth="yes"/>
      <point x="80.66666666666667" y="227.33333333333334" type="line" smooth="yes"/>
      <point x="80.66666666666667" y="36.0"/>
      <point x="195.33333333333334" y="-12.0"/>
    </contour>
  </outline>
</glyph>
<glyph name="v" format="2">
  <advance width="553.3333333333334"/>
  <unicode hex="0076"/>
  <note>
v
</note>
  <anchor x="276.6666666666667" y="0.0" name="bottom"/>
  <anchor x="276.6666666666667" y="544.6666666666666" name="top"/>
  <outline>
    <contour>
      <point x="200.66666666666666" y="0.0" type="line"/>
      <point x="344.6666666666667" y="0.0" type="line"/>
      <point x="542.6666666666666" y="532.6666666666666" type="line"/>
      <point x="542.6666666666666" y="544.6666666666666" type="line"/>
      <point x="428.6666666666667" y="544.6666666666666" type="line"/>
      <point x="262.6666666666667" y="55.666666666666664" type="line"/>
      <point x="290.5" y="55.666666666666664" type="line"/>
      <point x="128.66666666666666" y="544.6666666666666" type="line"/>
      <point x="10.666666666666666" y="544.6666666666666" type="line"/>
      <point x="10.666666666666666" y="532.6666666666666" type="line"/>
    </contour>
  </outline>
</glyph>
<glyph name="w" format="2">
  <advance width="804.0"/>
  <unicode hex="0077"/>
  <note>
w
</note>
  <anchor x="402.0" y="0.0" name="bottom"/>
  <anchor x="402.0" y="544.6666666666666" name="top"/>
  <outline>
    <contour>
      <point x="157.33333333333334" y="0.0" type="line"/>
      <point x="286.0" y="0.0" type="line"/>
      <point x="412.3333333333333" y="404.0" type="line"/>
      <point x="385.8333333333333" y="404.0" type="line"/>
      <point x="509.3333333333333" y="0.0" type="line"/>
      <point x="638.6666666666666" y="0.0" type="line"/>
      <point x="793.3333333333334" y="532.6666666666666" type="line"/>
      <point x="793.3333333333334" y="544.6666666666666" type="line"/>
      <point x="678.6666666666666" y="544.6666666666666" type="line"/>
      <point x="558.0" y="65.83333333333333" type="line"/>
      <point x="582.0" y="66.83333333333333" type="line"/>
      <point x="439.3333333333333" y="544.6666666666666" type="line"/>
      <point x="364.0" y="544.6666666666666" type="line"/>
      <point x="217.83333333333334" y="69.0" type="line"/>
      <point x="241.66666666666666" y="68.0" type="line"/>
      <point x="125.33333333333333" y="544.6666666666666" type="line"/>
      <point x="10.666666666666666" y="544.6666666666666" type="line"/>
      <point x="10.666666666666666" y="532.6666666666666" type="line"/>
    </contour>
  </outline>
</glyph>
<glyph name="x" format="2">
  <advance width="553.3333333333334"/>
  <unicode hex="0078"/>
  <note>
x
</note>
  <anchor x="276.6666666666667" y="0.0" name="bottom"/>
  <anchor x="276.6666666666667" y="544.6666666666666" name="top"/>
  <outline>
    <contour>
      <point x="409.3333333333333" y="0.0" type="line"/>
      <point x="532.0" y="0.0" type="line"/>
      <point x="532.0" y="8.666666666666666" type="line"/>
      <point x="303.3333333333333" y="318.6666666666667" type="line"/>
      <point x="140.66666666666666" y="544.6666666666666" type="line"/>
      <point x="18.0" y="544.6666666666666" type="line"/>
      <point x="18.0" y="536.0" type="line"/>
      <point x="246.66666666666666" y="226.0" type="line"/>
    </contour>
    <contour>
      <point x="24.666666666666668" y="0.0" type="line"/>
      <point x="142.66666666666666" y="0.0" type="line"/>
      <point x="306.0" y="234.0" type="line"/>
      <point x="535.3333333333334" y="536.0" type="line"/>
      <point x="535.3333333333334" y="544.6666666666666" type="line"/>
      <point x="417.3333333333333" y="544.6666666666666" type="line"/>
      <point x="254.0" y="310.6666666666667" type="line"/>
      <point x="24.666666666666668" y="8.666666666666666" type="line"/>
    </contour>
  </outline>
</glyph>
<glyph name="y" format="2">
  <advance width="550.6666666666666"/>
  <unicode hex="0079"/>
  <note>
y
</note>
  <anchor x="450.8333333333333" y="0.0" name="bottom"/>
  <anchor x="275.3333333333333" y="544.6666666666666" name="top"/>
  <outline>
    <contour>
      <point x="130.0" y="-232.0" type="line"/>
      <point x="239.33333333333334" y="-232.0" type="line"/>
      <point x="540.6666666666666" y="532.6666666666666" type="line"/>
      <point x="540.6666666666666" y="544.6666666666666" type="line"/>
      <point x="428.0" y="544.6666666666666" type="line"/>
      <point x="257.3333333333333" y="89.33333333333333" type="line"/>
      <point x="130.0" y="-220.0" type="line"/>
    </contour>
    <contour>
      <point x="229.33333333333334" y="-28.666666666666664" type="line"/>
      <point x="292.1666666666667" y="93.66666666666667" type="line"/>
      <point x="128.0" y="544.6666666666666" type="line"/>
      <point x="10.0" y="544.6666666666666" type="line"/>
      <point x="10.0" y="532.6666666666666" type="line"/>
    </contour>
  </outline>
</glyph>
<glyph name="z" format="2">
  <advance width="532.0"/>
  <unicode hex="007A"/>
  <note>
z
</note>
  <anchor x="266.0" y="0.0" name="bottom"/>
  <anchor x="266.0" y="544.6666666666666" name="top"/>
  <outline>
    <contour>
      <point x="52.5" y="0.0" type="line"/>
      <point x="493.3333333333333" y="0.0" type="line"/>
      <point x="493.3333333333333" y="91.66666666666667" type="line"/>
      <point x="118.83333333333333" y="91.66666666666667" type="line"/>
      <point x="161.16666666666666" y="73.0" type="line"/>
      <point x="157.33333333333334" y="91.83333333333333"/>
      <point x="191.83333333333334" y="128.33333333333334"/>
      <point x="215.66666666666666" y="155.33333333333334" type="curve" smooth="yes"/>
      <point x="407.0" y="360.6666666666667" type="line" smooth="yes"/>
      <point x="433.8333333333333" y="390.0"/>
      <point x="478.6666666666667" y="436.0"/>
      <point x="478.6666666666667" y="496.6666666666667" type="curve" smooth="yes"/>
      <point x="478.6666666666667" y="505.3333333333333"/>
      <point x="476.8333333333333" y="520.3333333333334"/>
      <point x="473.8333333333333" y="534.3333333333334" type="curve"/>
      <point x="465.5" y="544.6666666666666" type="line"/>
      <point x="50.333333333333336" y="544.6666666666666" type="line"/>
      <point x="50.333333333333336" y="453.0" type="line"/>
      <point x="398.3333333333333" y="453.0" type="line"/>
      <point x="356.0" y="473.1666666666667" type="line"/>
      <point x="361.5" y="453.0"/>
      <point x="325.8333333333333" y="415.5"/>
      <point x="302.3333333333333" y="389.3333333333333" type="curve" smooth="yes"/>
      <point x="111.0" y="184.0" type="line" smooth="yes"/>
      <point x="84.16666666666667" y="154.66666666666666"/>
      <point x="39.333333333333336" y="108.66666666666667"/>
      <point x="39.333333333333336" y="48.0" type="curve" smooth="yes"/>
      <point x="39.333333333333336" y="39.333333333333336"/>
      <point x="41.166666666666664" y="24.333333333333332"/>
      <point x="44.166666666666664" y="10.333333333333334" type="curve"/>
    </contour>
  </outline>
</glyph>
<glyph name="braceleft" format="2">
  <advance width="391.3333333333333"/>
  <unicode hex="007B"/>
  <note>
braceleft
</note>
  <outline>
    <contour>
      <point x="129.33333333333334" y="214.0" type="curve" smooth="yes"/>
      <point x="129.33333333333334" y="67.33333333333333" type="line" smooth="yes"/>
      <point x="129.33333333333334" y="-34.0"/>
      <point x="183.33333333333334" y="-88.0"/>
      <point x="288.0" y="-88.0" type="curve" smooth="yes"/>
      <point x="367.3333333333333" y="-88.0" type="line"/>
      <point x="367.3333333333333" y="-0.6666666666666679" type="line"/>
      <point x="292.0" y="-0.6666666666666679" type="line" smooth="yes"/>
      <point x="251.33333333333334" y="-0.6666666666666679"/>
      <point x="231.33333333333334" y="19.333333333333332"/>
      <point x="231.33333333333334" y="64.0" type="curve" smooth="yes"/>
      <point x="231.33333333333334" y="214.0" type="line" smooth="yes"/>
      <point x="231.33333333333334" y="286.0"/>
      <point x="190.66666666666666" y="325.5"/>
      <point x="135.33333333333334" y="335.0" type="curve"/>
      <point x="135.33333333333334" y="337.0" type="line"/>
      <point x="190.66666666666666" y="346.5"/>
      <point x="231.33333333333334" y="386.0"/>
      <point x="231.33333333333334" y="458.0" type="curve" smooth="yes"/>
      <point x="231.33333333333334" y="608.0" type="line" smooth="yes"/>
      <point x="231.33333333333334" y="652.6666666666666"/>
      <point x="251.33333333333334" y="672.6666666666666"/>
      <point x="292.0" y="672.6666666666666" type="curve" smooth="yes"/>
      <point x="367.3333333333333" y="672.6666666666666" type="line"/>
      <point x="367.3333333333333" y="760.0" type="line"/>
      <point x="288.0" y="760.0" type="line" smooth="yes"/>
      <point x="183.33333333333334" y="760.0"/>
      <point x="129.33333333333334" y="706.0"/>
      <point x="129.33333333333334" y="604.6666666666666" type="curve" smooth="yes"/>
      <point x="129.33333333333334" y="458.0" type="line" smooth="yes"/>
      <point x="129.33333333333334" y="418.0"/>
      <point x="109.33333333333333" y="386.0"/>
      <point x="61.333333333333336" y="386.0" type="curve" smooth="yes"/>
      <point x="13.333333333333334" y="386.0" type="line"/>
      <point x="13.333333333333334" y="286.0" type="line"/>
      <point x="61.333333333333336" y="286.0" type="line" smooth="yes"/>
      <point x="109.33333333333333" y="286.0"/>
      <point x="129.33333333333334" y="254.0"/>
    </contour>
  </outline>
</glyph>
<glyph name="bar" format="2">
  <advance width="308.0"/>
  <unicode hex="007C"/>
  <note>
bar
</note>
  <outline>
    <contour>
      <point x="103.0" y="760.0" type="line"/>
      <point x="103.0" y="-241.66666666666666" type="line"/>
      <point x="205.0" y="-241.66666666666666" type="line"/>
      <point x="205.0" y="760.0" type="line"/>
    </contour>
  </outline>
</glyph>
<glyph name="braceright" format="2">
  <advance width="391.3333333333333"/>
  <unicode hex="007D"/>
  <note>
braceright
</note>
  <outline>
    <contour>
      <point x="99.33333333333333" y="-0.6666666666666679" type="curve" smooth="yes"/>
      <point x="24.0" y="-0.6666666666666679" type="line"/>
      <point x="24.0" y="-88.0" type="line"/>
      <point x="103.33333333333333" y="-88.0" type="line" smooth="yes"/>
      <point x="208.0" y="-88.0"/>
      <point x="262.0" y="-34.0"/>
      <point x="262.0" y="67.33333333333333" type="curve" smooth="yes"/>
      <point x="262.0" y="214.0" type="line" smooth="yes"/>
      <point x="262.0" y="254.0"/>
      <point x="282.0" y="286.0"/>
      <point x="330.0" y="286.0" type="curve" smooth="yes"/>
      <point x="378.0" y="286.0" type="line"/>
      <point x="378.0" y="386.0" type="line"/>
      <point x="330.0" y="386.0" type="line" smooth="yes"/>
      <point x="282.0" y="386.0"/>
      <point x="262.0" y="418.0"/>
      <point x="262.0" y="458.0" type="curve" smooth="yes"/>
      <point x="262.0" y="604.6666666666666" type="line" smooth="yes"/>
      <point x="262.0" y="706.0"/>
      <point x="208.0" y="760.0"/>
      <point x="103.33333333333333" y="760.0" type="curve" smooth="yes"/>
      <point x="24.0" y="760.0" type="line"/>
      <point x="24.0" y="672.6666666666666" type="line"/>
      <point x="99.33333333333333" y="672.6666666666666" type="line" smooth="yes"/>
      <point x="140.0" y="672.6666666666666"/>
      <point x="160.0" y="652.6666666666666"/>
      <point x="160.0" y="608.0" type="curve" smooth="yes"/>
      <point x="160.0" y="458.0" type="line" smooth="yes"/>
      <point x="160.0" y="386.0"/>
      <point x="200.66666666666666" y="346.5"/>
      <point x="256.0" y="337.0" type="curve"/>
      <point x="256.0" y="335.0" type="line"/>
      <point x="200.66666666666666" y="325.5"/>
      <point x="160.0" y="286.0"/>
      <point x="160.0" y="214.0" type="curve" smooth="yes"/>
      <point x="160.0" y="64.0" type="line" smooth="yes"/>
      <point x="160.0" y="19.333333333333332"/>
      <point x="140.0" y="-0.6666666666666679"/>
    </contour>
  </outline>
</glyph>
<glyph name="asciitilde" format="2">
  <advance width="616.0"/>
  <unicode hex="007E"/>
  <note>
asciitilde
</note>
  <outline>
    <contour>
      <point x="545.8333333333334" y="411.0" type="curve"/>
      <point x="458.6666666666667" y="411.0" type="line"/>
      <point x="455.3333333333333" y="361.3333333333333"/>
      <point x="446.3333333333333" y="310.0"/>
      <point x="403.0" y="310.0" type="curve" smooth="yes"/>
      <point x="374.8333333333333" y="310.0"/>
      <point x="353.0" y="335.6666666666667"/>
      <point x="324.6666666666667" y="361.1666666666667" type="curve" smooth="yes"/>
      <point x="296.8333333333333" y="386.1666666666667"/>
      <point x="261.8333333333333" y="411.0"/>
      <point x="208.83333333333334" y="411.0" type="curve" smooth="yes"/>
      <point x="105.66666666666667" y="411.0"/>
      <point x="67.16666666666667" y="319.1666666666667"/>
      <point x="63.833333333333336" y="221.66666666666666" type="curve"/>
      <point x="151.0" y="221.66666666666666" type="line"/>
      <point x="154.33333333333334" y="271.3333333333333"/>
      <point x="163.33333333333334" y="322.6666666666667"/>
      <point x="206.66666666666666" y="322.6666666666667" type="curve" smooth="yes"/>
      <point x="234.83333333333334" y="322.6666666666667"/>
      <point x="256.6666666666667" y="297.0"/>
      <point x="285.0" y="271.5" type="curve" smooth="yes"/>
      <point x="312.8333333333333" y="246.5"/>
      <point x="347.8333333333333" y="221.66666666666666"/>
      <point x="400.8333333333333" y="221.66666666666666" type="curve" smooth="yes"/>
      <point x="504.0" y="221.66666666666666"/>
      <point x="542.5" y="313.5"/>
    </contour>
  </outline>
</glyph>
<glyph name="exclamdown" format="2">
  <advance width="307.3333333333333"/>
  <unicode hex="00A1"/>
  <note>
exclamdown
</note>
  <outline>
    <contour>
      <point x="202.0" y="330.0" type="curve" smooth="yes"/>
      <point x="108.66666666666667" y="330.0" type="line" smooth="yes"/>
      <point x="107.33333333333333" y="323.3333333333333"/>
      <point x="99.33333333333333" y="224.83333333333334"/>
      <point x="99.33333333333333" y="115.5" type="curve" smooth="yes"/>
      <point x="99.33333333333333" y="-22.666666666666668" type="line" smooth="yes"/>
      <point x="99.33333333333333" y="-49.833333333333336"/>
      <point x="99.33333333333333" y="-132.0"/>
      <point x="91.33333333333333" y="-168.0" type="curve"/>
      <point x="94.0" y="-176.66666666666666" type="line"/>
      <point x="211.33333333333334" y="-176.66666666666666" type="line"/>
      <point x="211.33333333333334" y="115.5" type="line" smooth="yes"/>
      <point x="211.33333333333334" y="224.83333333333334"/>
      <point x="203.33333333333334" y="323.3333333333333"/>
    </contour>
    <contour>
      <point x="153.66666666666666" y="552.0" type="curve" smooth="yes"/>
      <point x="112.66666666666667" y="552.0"/>
      <point x="82.0" y="524.6666666666666"/>
      <point x="82.0" y="480.3333333333333" type="curve" smooth="yes"/>
      <point x="82.0" y="436.0"/>
      <point x="112.66666666666667" y="408.6666666666667"/>
      <point x="153.66666666666666" y="408.6666666666667" type="curve" smooth="yes"/>
      <point x="194.66666666666666" y="408.6666666666667"/>
      <point x="225.33333333333334" y="436.0"/>
      <point x="225.33333333333334" y="480.3333333333333" type="curve" smooth="yes"/>
      <point x="225.33333333333334" y="524.6666666666666"/>
      <point x="194.66666666666666" y="552.0"/>
    </contour>
  </outline>
</glyph>
<glyph name="cent" format="2">
  <advance width="616.0"/>
  <unicode hex="00A2"/>
  <note>
cent
</note>
  <outline>
    <contour>
      <point x="377.3333333333333" y="91.33333333333333" type="curve" smooth="yes"/>
      <point x="422.0" y="91.33333333333333"/>
      <point x="476.6666666666667" y="103.0"/>
      <point x="498.0" y="111.33333333333333" type="curve"/>
      <point x="498.0" y="207.33333333333334" type="line"/>
      <point x="489.3333333333333" y="207.33333333333334" type="line"/>
      <point x="465.3333333333333" y="195.33333333333334"/>
      <point x="428.6666666666667" y="187.33333333333334"/>
      <point x="380.6666666666667" y="187.33333333333334" type="curve" smooth="yes"/>
      <point x="268.6666666666667" y="187.33333333333334"/>
      <point x="186.33333333333334" y="247.33333333333334"/>
      <point x="186.33333333333334" y="374.0" type="curve" smooth="yes"/>
      <point x="186.33333333333334" y="500.6666666666667"/>
      <point x="268.6666666666667" y="560.6666666666666"/>
      <point x="380.6666666666667" y="560.6666666666666" type="curve" smooth="yes"/>
      <point x="428.6666666666667" y="560.6666666666666"/>
      <point x="465.3333333333333" y="552.6666666666666"/>
      <point x="489.3333333333333" y="540.6666666666666" type="curve"/>
      <point x="498.0" y="540.6666666666666" type="line"/>
      <point x="498.0" y="636.6666666666666" type="line"/>
      <point x="476.6666666666667" y="645.0"/>
      <point x="425.3333333333333" y="656.6666666666666"/>
      <point x="377.3333333333333" y="656.6666666666666" type="curve" smooth="yes"/>
      <point x="198.66666666666666" y="656.6666666666666"/>
      <point x="74.66666666666667" y="558.0"/>
      <point x="74.66666666666667" y="374.0" type="curve" smooth="yes"/>
      <point x="74.66666666666667" y="190.0"/>
      <point x="195.33333333333334" y="91.33333333333333"/>
    </contour>
    <contour>
      <point x="290.6666666666667" y="-64.0" type="line"/>
      <point x="387.3333333333333" y="-64.0" type="line"/>
      <point x="387.3333333333333" y="132.0" type="line"/>
      <point x="290.6666666666667" y="132.0" type="line"/>
    </contour>
    <contour>
      <point x="290.6666666666667" y="604.0" type="line"/>
      <point x="387.3333333333333" y="604.0" type="line"/>
      <point x="387.3333333333333" y="800.0" type="line"/>
      <point x="290.6666666666667" y="800.0" type="line"/>
    </contour>
  </outline>
</glyph>
<glyph name="sterling" format="2">
  <advance width="616.0"/>
  <unicode hex="00A3"/>
  <note>
sterling
</note>
  <outline>
    <contour>
      <point x="182.0" y="30.0" type="line"/>
      <point x="293.3333333333333" y="30.0" type="line"/>
      <point x="293.3333333333333" y="471.3333333333333" type="line" smooth="yes"/>
      <point x="293.3333333333333" y="577.3333333333334"/>
      <point x="340.0" y="640.6666666666666"/>
      <point x="442.0" y="640.6666666666666" type="curve" smooth="yes"/>
      <point x="489.0" y="640.6666666666666"/>
      <point x="519.3333333333334" y="631.6666666666666"/>
      <point x="545.3333333333334" y="620.3333333333334" type="curve"/>
      <point x="550.6666666666666" y="620.3333333333334" type="line"/>
      <point x="550.6666666666666" y="712.6666666666666" type="line"/>
      <point x="520.0" y="724.0"/>
      <point x="487.3333333333333" y="732.0"/>
      <point x="436.0" y="732.0" type="curve" smooth="yes"/>
      <point x="268.6666666666667" y="732.0"/>
      <point x="182.0" y="618.0"/>
      <point x="182.0" y="470.0" type="curve" smooth="yes"/>
    </contour>
    <contour>
      <point x="49.333333333333336" y="0.0" type="line"/>
      <point x="560.6666666666666" y="0.0" type="line"/>
      <point x="560.6666666666666" y="90.33333333333333" type="line"/>
      <point x="49.333333333333336" y="90.33333333333333" type="line"/>
    </contour>
    <contour>
      <point x="58.0" y="333.3333333333333" type="line"/>
      <point x="482.6666666666667" y="333.3333333333333" type="line"/>
      <point x="482.6666666666667" y="425.3333333333333" type="line"/>
      <point x="58.0" y="425.3333333333333" type="line"/>
    </contour>
  </outline>
</glyph>
<glyph name="currency" format="2">
  <advance width="616.0"/>
  <unicode hex="00A4"/>
  <note>
currency
</note>
  <outline>
    <contour>
      <point x="96.16666666666667" y="200.66666666666666" type="line"/>
      <point x="148.66666666666666" y="149.0" type="line"/>
      <point x="196.33333333333334" y="196.83333333333334" type="line"/>
      <point x="225.5" y="179.0"/>
      <point x="261.3333333333333" y="168.33333333333334"/>
      <point x="304.0" y="168.33333333333334" type="curve" smooth="yes"/>
      <point x="348.6666666666667" y="168.33333333333334"/>
      <point x="385.6666666666667" y="180.0"/>
      <point x="414.8333333333333" y="199.83333333333334" type="curve"/>
      <point x="466.5" y="149.0" type="line"/>
      <point x="518.8333333333334" y="200.66666666666666" type="line"/>
      <point x="464.5" y="254.0" type="line"/>
      <point x="481.3333333333333" y="283.1666666666667"/>
      <point x="490.5" y="320.1666666666667"/>
      <point x="490.5" y="360.0" type="curve" smooth="yes"/>
      <point x="490.5" y="399.8333333333333"/>
      <point x="481.3333333333333" y="435.6666666666667"/>
      <point x="464.5" y="464.8333333333333" type="curve"/>
      <point x="518.8333333333334" y="519.3333333333334" type="line"/>
      <point x="466.5" y="571.6666666666666" type="line"/>
      <point x="414.8333333333333" y="520.1666666666666" type="line"/>
      <point x="385.6666666666667" y="539.6666666666666"/>
      <point x="347.8333333333333" y="551.5"/>
      <point x="304.0" y="551.5" type="curve" smooth="yes"/>
      <point x="261.3333333333333" y="551.5"/>
      <point x="225.5" y="539.8333333333334"/>
      <point x="196.33333333333334" y="522.1666666666666" type="curve"/>
      <point x="148.66666666666666" y="571.6666666666666" type="line"/>
      <point x="96.16666666666667" y="519.3333333333334" type="line"/>
      <point x="145.5" y="469.0" type="line"/>
      <point x="126.5" y="438.8333333333333"/>
      <point x="116.66666666666667" y="401.8333333333333"/>
      <point x="116.66666666666667" y="360.0" type="curve" smooth="yes"/>
      <point x="116.66666666666667" y="318.1666666666667"/>
      <point x="126.5" y="281.0"/>
      <point x="145.5" y="249.83333333333334" type="curve"/>
    </contour>
    <contour>
      <point x="304.0" y="243.16666666666666" type="curve" smooth="yes"/>
      <point x="238.33333333333334" y="243.16666666666666"/>
      <point x="198.33333333333334" y="290.3333333333333"/>
      <point x="198.33333333333334" y="360.0" type="curve" smooth="yes"/>
      <point x="198.33333333333334" y="428.6666666666667"/>
      <point x="238.33333333333334" y="475.8333333333333"/>
      <point x="304.0" y="475.8333333333333" type="curve" smooth="yes"/>
      <point x="368.6666666666667" y="475.8333333333333"/>
      <point x="409.6666666666667" y="428.6666666666667"/>
      <point x="409.6666666666667" y="360.0" type="curve" smooth="yes"/>
      <point x="409.6666666666667" y="290.3333333333333"/>
      <point x="368.6666666666667" y="243.16666666666666"/>
    </contour>
  </outline>
</glyph>
<glyph name="yen" format="2">
  <advance width="616.0"/>
  <unicode hex="00A5"/>
  <note>
yen
</note>
  <outline>
    <contour>
      <point x="107.66666666666667" y="181.0" type="line"/>
      <point x="511.0" y="181.0" type="line"/>
      <point x="511.0" y="265.3333333333333" type="line"/>
      <point x="107.66666666666667" y="265.3333333333333" type="line"/>
    </contour>
    <contour>
      <point x="107.66666666666667" y="336.3333333333333" type="line"/>
      <point x="511.0" y="336.3333333333333" type="line"/>
      <point x="511.0" y="420.6666666666667" type="line"/>
      <point x="107.66666666666667" y="420.6666666666667" type="line"/>
    </contour>
    <contour>
      <point x="588.3333333333334" y="720.0" type="line"/>
      <point x="472.3333333333333" y="720.0" type="line"/>
      <point x="290.1666666666667" y="397.3333333333333" type="line"/>
      <point x="334.6666666666667" y="397.5" type="line"/>
      <point x="148.33333333333334" y="720.0" type="line"/>
      <point x="28.333333333333336" y="720.0" type="line"/>
      <point x="28.333333333333336" y="711.3333333333334" type="line"/>
      <point x="276.8333333333333" y="303.1666666666667" type="line"/>
      <point x="253.0" y="388.3333333333333" type="line"/>
      <point x="253.0" y="0.0" type="line"/>
      <point x="365.6666666666667" y="0.0" type="line"/>
      <point x="365.6666666666667" y="392.6666666666667" type="line"/>
      <point x="341.5" y="307.6666666666667" type="line"/>
      <point x="588.3333333333334" y="711.3333333333334" type="line"/>
    </contour>
  </outline>
</glyph>
<glyph name="brokenbar" format="2">
  <advance width="308.0"/>
  <unicode hex="00A6"/>
  <note>
brokenbar
</note>
  <outline>
    <contour>
      <point x="103.0" y="760.0" type="line"/>
      <point x="103.0" y="423.3333333333333" type="line"/>
      <point x="205.0" y="423.3333333333333" type="line"/>
      <point x="205.0" y="760.0" type="line"/>
    </contour>
    <contour>
      <point x="205.0" y="88.66666666666667" type="line"/>
      <point x="103.0" y="88.66666666666667" type="line"/>
      <point x="103.0" y="-248.0" type="line"/>
      <point x="205.0" y="-248.0" type="line"/>
    </contour>
  </outline>
</glyph>
<glyph name="section" format="2">
  <advance width="602.6666666666666"/>
  <unicode hex="00A7"/>
  <note>
section
</note>
  <outline>
    <contour>
      <point x="318.0" y="68.0" type="line"/>
      <point x="401.3333333333333" y="66.0" type="line"/>
      <point x="470.6666666666667" y="97.33333333333333"/>
      <point x="529.3333333333334" y="156.66666666666666"/>
      <point x="529.3333333333334" y="242.66666666666666" type="curve" smooth="yes"/>
      <point x="529.3333333333334" y="342.0"/>
      <point x="465.3333333333333" y="389.6666666666667"/>
      <point x="366.6666666666667" y="416.6666666666667" type="curve" smooth="yes"/>
      <point x="308.6666666666667" y="432.6666666666667" type="line" smooth="yes"/>
      <point x="238.83333333333334" y="451.8333333333333"/>
      <point x="203.33333333333334" y="468.0"/>
      <point x="203.33333333333334" y="531.3333333333334" type="curve" smooth="yes"/>
      <point x="203.33333333333334" y="604.0"/>
      <point x="266.6666666666667" y="634.0"/>
      <point x="360.0" y="634.0" type="curve" smooth="yes"/>
      <point x="419.3333333333333" y="634.0"/>
      <point x="456.0" y="622.0"/>
      <point x="490.6666666666667" y="606.0" type="curve"/>
      <point x="499.3333333333333" y="606.0" type="line"/>
      <point x="499.3333333333333" y="708.6666666666666" type="line"/>
      <point x="463.3333333333333" y="724.0"/>
      <point x="415.3333333333333" y="732.0"/>
      <point x="369.3333333333333" y="732.0" type="curve" smooth="yes"/>
      <point x="195.33333333333334" y="732.0"/>
      <point x="93.33333333333333" y="663.3333333333334"/>
      <point x="93.33333333333333" y="524.0" type="curve" smooth="yes"/>
      <point x="93.33333333333333" y="414.6666666666667"/>
      <point x="166.83333333333334" y="368.1666666666667"/>
      <point x="269.3333333333333" y="339.3333333333333" type="curve" smooth="yes"/>
      <point x="323.3333333333333" y="324.6666666666667" type="line" smooth="yes"/>
      <point x="395.0" y="305.0"/>
      <point x="419.6666666666667" y="280.6666666666667"/>
      <point x="419.6666666666667" y="228.0" type="curve" smooth="yes"/>
      <point x="419.6666666666667" y="175.33333333333334"/>
      <point x="373.3333333333333" y="137.33333333333334"/>
      <point x="318.0" y="124.0" type="curve"/>
    </contour>
    <contour>
      <point x="213.33333333333334" y="-232.0" type="curve" smooth="yes"/>
      <point x="387.3333333333333" y="-232.0"/>
      <point x="489.3333333333333" y="-163.33333333333334"/>
      <point x="489.3333333333333" y="-24.0" type="curve" smooth="yes"/>
      <point x="489.3333333333333" y="85.33333333333333"/>
      <point x="415.8333333333333" y="131.83333333333334"/>
      <point x="313.3333333333333" y="160.66666666666666" type="curve" smooth="yes"/>
      <point x="259.3333333333333" y="175.33333333333334" type="line" smooth="yes"/>
      <point x="187.66666666666666" y="195.0"/>
      <point x="163.0" y="219.33333333333334"/>
      <point x="163.0" y="272.0" type="curve" smooth="yes"/>
      <point x="163.0" y="324.6666666666667"/>
      <point x="209.33333333333334" y="362.6666666666667"/>
      <point x="264.6666666666667" y="376.0" type="curve"/>
      <point x="264.6666666666667" y="432.0" type="line"/>
      <point x="181.33333333333334" y="434.0" type="line"/>
      <point x="112.0" y="402.6666666666667"/>
      <point x="53.333333333333336" y="343.3333333333333"/>
      <point x="53.333333333333336" y="257.3333333333333" type="curve" smooth="yes"/>
      <point x="53.333333333333336" y="158.0"/>
      <point x="117.33333333333333" y="110.33333333333333"/>
      <point x="216.0" y="83.33333333333333" type="curve" smooth="yes"/>
      <point x="274.0" y="67.33333333333333" type="line" smooth="yes"/>
      <point x="343.8333333333333" y="48.166666666666664"/>
      <point x="379.3333333333333" y="32.0"/>
      <point x="379.3333333333333" y="-31.333333333333332" type="curve" smooth="yes"/>
      <point x="379.3333333333333" y="-104.0"/>
      <point x="316.0" y="-134.0"/>
      <point x="222.66666666666666" y="-134.0" type="curve" smooth="yes"/>
      <point x="163.33333333333334" y="-134.0"/>
      <point x="126.66666666666667" y="-122.0"/>
      <point x="92.0" y="-106.0" type="curve"/>
      <point x="83.33333333333333" y="-106.0" type="line"/>
      <point x="83.33333333333333" y="-208.66666666666666" type="line"/>
      <point x="119.33333333333333" y="-224.0"/>
      <point x="167.33333333333334" y="-232.0"/>
    </contour>
  </outline>
</glyph>
<glyph name="copyright" format="2">
  <advance width="805.3333333333334"/>
  <unicode hex="00A9"/>
  <note>
copyright
</note>
  <outline>
    <contour>
      <point x="45.333333333333336" y="360.0" type="curve" smooth="yes"/>
      <point x="45.333333333333336" y="125.33333333333333"/>
      <point x="188.0" y="-14.666666666666666"/>
      <point x="402.6666666666667" y="-14.666666666666666" type="curve" smooth="yes"/>
      <point x="617.3333333333334" y="-14.666666666666666"/>
      <point x="760.0" y="125.33333333333333"/>
      <point x="760.0" y="360.0" type="curve" smooth="yes"/>
      <point x="760.0" y="594.6666666666666"/>
      <point x="617.3333333333334" y="734.6666666666666"/>
      <point x="402.6666666666667" y="734.6666666666666" type="curve" smooth="yes"/>
      <point x="188.0" y="734.6666666666666"/>
      <point x="45.333333333333336" y="594.6666666666666"/>
    </contour>
    <contour>
      <point x="122.0" y="360.0" type="curve" smooth="yes"/>
      <point x="122.0" y="568.0"/>
      <point x="235.33333333333334" y="666.6666666666666"/>
      <point x="402.6666666666667" y="666.6666666666666" type="curve" smooth="yes"/>
      <point x="570.0" y="666.6666666666666"/>
      <point x="683.3333333333334" y="564.6666666666666"/>
      <point x="683.3333333333334" y="360.0" type="curve" smooth="yes"/>
      <point x="683.3333333333334" y="155.33333333333334"/>
      <point x="570.0" y="53.333333333333336"/>
      <point x="402.6666666666667" y="53.333333333333336" type="curve" smooth="yes"/>
      <point x="235.33333333333334" y="53.333333333333336"/>
      <point x="122.0" y="152.0"/>
    </contour>
    <contour>
      <point x="218.66666666666666" y="360.0" type="curve" smooth="yes"/>
      <point x="218.66666666666666" y="239.16666666666666"/>
      <point x="295.5" y="156.0"/>
      <point x="438.0" y="156.0" type="curve" smooth="yes"/>
      <point x="470.6666666666667" y="156.0"/>
      <point x="507.0" y="161.33333333333334"/>
      <point x="529.3333333333334" y="169.83333333333334" type="curve"/>
      <point x="529.3333333333334" y="238.66666666666666" type="line"/>
      <point x="524.6666666666666" y="238.66666666666666" type="line"/>
      <point x="503.5" y="229.33333333333334"/>
      <point x="471.6666666666667" y="223.33333333333334"/>
      <point x="439.3333333333333" y="223.33333333333334" type="curve" smooth="yes"/>
      <point x="349.5" y="223.33333333333334"/>
      <point x="298.6666666666667" y="266.3333333333333"/>
      <point x="298.6666666666667" y="360.0" type="curve" smooth="yes"/>
      <point x="298.6666666666667" y="452.6666666666667"/>
      <point x="350.6666666666667" y="496.6666666666667"/>
      <point x="439.3333333333333" y="496.6666666666667" type="curve" smooth="yes"/>
      <point x="471.6666666666667" y="496.6666666666667"/>
      <point x="503.5" y="490.6666666666667"/>
      <point x="524.6666666666666" y="481.3333333333333" type="curve"/>
      <point x="529.3333333333334" y="481.3333333333333" type="line"/>
      <point x="529.3333333333334" y="550.1666666666666" type="line"/>
      <point x="507.0" y="558.6666666666666"/>
      <point x="470.6666666666667" y="564.0"/>
      <point x="438.0" y="564.0" type="curve" smooth="yes"/>
      <point x="296.6666666666667" y="564.0"/>
      <point x="218.66666666666666" y="480.6666666666667"/>
    </contour>
  </outline>
</glyph>
<glyph name="ordfeminine" format="2">
  <advance width="453.0"/>
  <unicode hex="00AA"/>
  <note>
ordfeminine
</note>
  <outline>
    <contour>
      <point x="228.83333333333334" y="311.1666666666667" type="curve" smooth="yes"/>
      <point x="281.0" y="311.1666666666667"/>
      <point x="350.0" y="322.1666666666667"/>
      <point x="397.6666666666667" y="338.1666666666667" type="curve"/>
      <point x="399.0" y="344.1666666666667" type="line"/>
      <point x="392.8333333333333" y="370.1666666666667"/>
      <point x="392.5" y="432.3333333333333"/>
      <point x="392.5" y="462.0" type="curve" smooth="yes"/>
      <point x="392.5" y="557.3333333333334" type="line" smooth="yes"/>
      <point x="392.5" y="697.1666666666666"/>
      <point x="313.0" y="727.1666666666666"/>
      <point x="204.66666666666666" y="727.1666666666666" type="curve" smooth="yes"/>
      <point x="161.5" y="727.1666666666666"/>
      <point x="115.83333333333333" y="720.3333333333334"/>
      <point x="80.83333333333333" y="708.3333333333334" type="curve"/>
      <point x="80.83333333333333" y="629.6666666666666" type="line"/>
      <point x="88.33333333333333" y="629.6666666666666" type="line"/>
      <point x="111.33333333333333" y="640.5"/>
      <point x="152.5" y="650.6666666666666"/>
      <point x="193.33333333333334" y="650.6666666666666" type="curve" smooth="yes"/>
      <point x="272.0" y="650.6666666666666"/>
      <point x="296.6666666666667" y="629.0"/>
      <point x="296.6666666666667" y="553.0" type="curve"/>
      <point x="281.1666666666667" y="557.3333333333334"/>
      <point x="251.5" y="562.6666666666666"/>
      <point x="218.33333333333334" y="562.6666666666666" type="curve" smooth="yes"/>
      <point x="116.0" y="562.6666666666666"/>
      <point x="46.5" y="524.5"/>
      <point x="46.5" y="436.6666666666667" type="curve" smooth="yes"/>
      <point x="46.5" y="348.8333333333333"/>
      <point x="107.66666666666667" y="311.1666666666667"/>
    </contour>
    <contour>
      <point x="227.83333333333334" y="380.6666666666667" type="curve" smooth="yes"/>
      <point x="169.5" y="380.6666666666667"/>
      <point x="138.16666666666666" y="396.8333333333333"/>
      <point x="138.16666666666666" y="438.1666666666667" type="curve" smooth="yes"/>
      <point x="138.16666666666666" y="481.8333333333333"/>
      <point x="168.0" y="497.0"/>
      <point x="234.0" y="497.0" type="curve" smooth="yes"/>
      <point x="258.6666666666667" y="497.0"/>
      <point x="280.8333333333333" y="492.8333333333333"/>
      <point x="296.6666666666667" y="489.3333333333333" type="curve"/>
      <point x="296.8333333333333" y="428.6666666666667"/>
      <point x="297.5" y="407.8333333333333"/>
      <point x="301.5" y="390.5" type="curve"/>
      <point x="278.8333333333333" y="384.1666666666667"/>
      <point x="253.16666666666666" y="380.6666666666667"/>
    </contour>
    <contour>
      <point x="57.0" y="257.3333333333333" type="line"/>
      <point x="57.0" y="176.66666666666666" type="line"/>
      <point x="399.6666666666667" y="176.66666666666666" type="line"/>
      <point x="399.6666666666667" y="257.3333333333333" type="line"/>
    </contour>
  </outline>
</glyph>
<glyph name="guillemetleft" format="2">
  <advance width="581.3333333333334"/>
  <unicode hex="00AB"/>
  <note>
guillemotleft
</note>
  <outline>
    <contour>
      <point x="514.0" y="66.0" type="line"/>
      <point x="522.0" y="66.0" type="line"/>
      <point x="522.0" y="177.33333333333334" type="line"/>
      <point x="374.0" y="308.0" type="line"/>
      <point x="522.0" y="438.6666666666667" type="line"/>
      <point x="522.0" y="550.0" type="line"/>
      <point x="514.0" y="550.0" type="line"/>
      <point x="272.0" y="330.0" type="line"/>
      <point x="272.0" y="286.0" type="line"/>
    </contour>
    <contour>
      <point x="278.0" y="66.0" type="line"/>
      <point x="286.0" y="66.0" type="line"/>
      <point x="286.0" y="177.33333333333334" type="line"/>
      <point x="138.0" y="308.0" type="line"/>
      <point x="286.0" y="438.6666666666667" type="line"/>
      <point x="286.0" y="550.0" type="line"/>
      <point x="278.0" y="550.0" type="line"/>
      <point x="36.0" y="330.0" type="line"/>
      <point x="36.0" y="286.0" type="line"/>
    </contour>
  </outline>
</glyph>
<glyph name="logicalnot" format="2">
  <advance width="616.0"/>
  <unicode hex="00AC"/>
  <note>
logicalnot
</note>
  <outline>
    <contour>
      <point x="64.0" y="360.0" type="line"/>
      <point x="64.0" y="272.0" type="line"/>
      <point x="464.0" y="272.0" type="line"/>
      <point x="464.0" y="64.0" type="line"/>
      <point x="552.0" y="64.0" type="line"/>
      <point x="552.0" y="360.0" type="line"/>
    </contour>
  </outline>
</glyph>
<glyph name="registered" format="2">
  <advance width="805.3333333333334"/>
  <unicode hex="00AE"/>
  <note>
registered
</note>
  <outline>
    <contour>
      <point x="402.6666666666667" y="-14.666666666666666" type="curve" smooth="yes"/>
      <point x="617.3333333333334" y="-14.666666666666666"/>
      <point x="760.0" y="125.33333333333333"/>
      <point x="760.0" y="360.0" type="curve" smooth="yes"/>
      <point x="760.0" y="594.6666666666666"/>
      <point x="617.3333333333334" y="734.6666666666666"/>
      <point x="402.6666666666667" y="734.6666666666666" type="curve" smooth="yes"/>
      <point x="188.0" y="734.6666666666666"/>
      <point x="45.333333333333336" y="594.6666666666666"/>
      <point x="45.333333333333336" y="360.0" type="curve" smooth="yes"/>
      <point x="45.333333333333336" y="125.33333333333333"/>
      <point x="188.0" y="-14.666666666666666"/>
    </contour>
    <contour>
      <point x="255.33333333333334" y="168.0" type="line"/>
      <point x="329.6666666666667" y="168.0" type="line"/>
      <point x="329.6666666666667" y="561.6666666666666" type="line"/>
      <point x="255.33333333333334" y="561.6666666666666" type="line"/>
      <point x="255.33333333333334" y="472.0" type="line"/>
    </contour>
    <contour>
      <point x="512.0" y="168.0" type="line"/>
      <point x="593.3333333333334" y="168.0" type="line"/>
      <point x="593.3333333333334" y="176.0" type="line"/>
      <point x="459.6666666666667" y="334.0" type="line"/>
      <point x="390.6666666666667" y="314.0" type="line"/>
    </contour>
    <contour>
      <point x="402.6666666666667" y="53.333333333333336" type="curve" smooth="yes"/>
      <point x="235.33333333333334" y="53.333333333333336"/>
      <point x="122.0" y="152.0"/>
      <point x="122.0" y="360.0" type="curve" smooth="yes"/>
      <point x="122.0" y="568.0"/>
      <point x="235.33333333333334" y="666.6666666666666"/>
      <point x="402.6666666666667" y="666.6666666666666" type="curve" smooth="yes"/>
      <point x="570.0" y="666.6666666666666"/>
      <point x="683.3333333333334" y="564.6666666666666"/>
      <point x="683.3333333333334" y="360.0" type="curve" smooth="yes"/>
      <point x="683.3333333333334" y="155.33333333333334"/>
      <point x="570.0" y="53.333333333333336"/>
    </contour>
    <contour>
      <point x="294.3333333333333" y="274.6666666666667" type="line"/>
      <point x="397.0" y="274.6666666666667" type="line" smooth="yes"/>
      <point x="513.3333333333334" y="274.6666666666667"/>
      <point x="566.6666666666666" y="353.1666666666667"/>
      <point x="566.6666666666666" y="432.6666666666667" type="curve" smooth="yes"/>
      <point x="566.6666666666666" y="517.1666666666666"/>
      <point x="518.0" y="561.6666666666666"/>
      <point x="419.3333333333333" y="561.6666666666666" type="curve" smooth="yes"/>
      <point x="294.3333333333333" y="561.6666666666666" type="line"/>
      <point x="294.3333333333333" y="500.0" type="line"/>
      <point x="415.6666666666667" y="500.0" type="line" smooth="yes"/>
      <point x="463.5" y="500.0"/>
      <point x="492.3333333333333" y="482.1666666666667"/>
      <point x="492.3333333333333" y="432.5" type="curve" smooth="yes"/>
      <point x="492.3333333333333" y="379.3333333333333"/>
      <point x="462.1666666666667" y="334.0"/>
      <point x="396.3333333333333" y="334.0" type="curve" smooth="yes"/>
      <point x="294.3333333333333" y="334.0" type="line"/>
    </contour>
  </outline>
</glyph>
<glyph name="degree" format="2">
  <advance width="398.6666666666667"/>
  <unicode hex="00B0"/>
  <note>
degree
</note>
  <outline>
    <contour>
      <point x="199.33333333333334" y="476.6666666666667" type="curve" smooth="yes"/>
      <point x="277.3333333333333" y="476.6666666666667"/>
      <point x="338.6666666666667" y="526.0"/>
      <point x="338.6666666666667" y="608.0" type="curve" smooth="yes"/>
      <point x="338.6666666666667" y="690.0"/>
      <point x="277.3333333333333" y="739.3333333333334"/>
      <point x="199.33333333333334" y="739.3333333333334" type="curve" smooth="yes"/>
      <point x="121.33333333333333" y="739.3333333333334"/>
      <point x="60.0" y="690.0"/>
      <point x="60.0" y="608.0" type="curve" smooth="yes"/>
      <point x="60.0" y="526.0"/>
      <point x="121.33333333333333" y="476.6666666666667"/>
    </contour>
    <contour>
      <point x="199.33333333333334" y="534.0" type="curve" smooth="yes"/>
      <point x="155.0" y="534.0"/>
      <point x="125.33333333333333" y="561.3333333333334"/>
      <point x="125.33333333333333" y="608.0" type="curve" smooth="yes"/>
      <point x="125.33333333333333" y="654.6666666666666"/>
      <point x="155.0" y="682.0"/>
      <point x="199.33333333333334" y="682.0" type="curve" smooth="yes"/>
      <point x="243.66666666666666" y="682.0"/>
      <point x="273.3333333333333" y="654.6666666666666"/>
      <point x="273.3333333333333" y="608.0" type="curve" smooth="yes"/>
      <point x="273.3333333333333" y="561.3333333333334"/>
      <point x="243.66666666666666" y="534.0"/>
    </contour>
  </outline>
</glyph>
<glyph name="plusminus" format="2">
  <advance width="616.0"/>
  <unicode hex="00B1"/>
  <note>
plusminus
</note>
  <outline>
    <contour>
      <point x="64.0" y="364.0" type="line"/>
      <point x="552.0" y="364.0" type="line"/>
      <point x="552.0" y="452.0" type="line"/>
      <point x="64.0" y="452.0" type="line"/>
    </contour>
    <contour>
      <point x="64.0" y="0.0" type="line"/>
      <point x="552.0" y="0.0" type="line"/>
      <point x="552.0" y="88.0" type="line"/>
      <point x="64.0" y="88.0" type="line"/>
    </contour>
    <contour>
      <point x="264.0" y="164.0" type="line"/>
      <point x="352.0" y="164.0" type="line"/>
      <point x="352.0" y="652.0" type="line"/>
      <point x="264.0" y="652.0" type="line"/>
    </contour>
  </outline>
</glyph>
<glyph name="paragraph" format="2">
  <advance width="695.3333333333334"/>
  <unicode hex="00B6"/>
  <note>
paragraph
</note>
  <outline>
    <contour>
      <point x="292.0" y="248.0" type="curve" smooth="yes"/>
      <point x="308.0" y="248.0" type="line"/>
      <point x="308.0" y="-250.0" type="line"/>
      <point x="402.0" y="-250.0" type="line"/>
      <point x="402.0" y="632.0" type="line"/>
      <point x="510.0" y="632.0" type="line"/>
      <point x="510.0" y="-250.0" type="line"/>
      <point x="602.6666666666666" y="-250.0" type="line"/>
      <point x="602.6666666666666" y="720.0" type="line"/>
      <point x="292.0" y="720.0" type="line" smooth="yes"/>
      <point x="165.0" y="720.0"/>
      <point x="56.0" y="636.0"/>
      <point x="56.0" y="484.0" type="curve" smooth="yes"/>
      <point x="56.0" y="332.0"/>
      <point x="165.0" y="248.0"/>
    </contour>
  </outline>
</glyph>
<glyph name="periodcentered" format="2">
  <advance width="280.6666666666667"/>
  <unicode hex="00B7"/>
  <note>
periodcentered
</note>
  <outline>
    <contour>
      <point x="140.33333333333334" y="293.8333333333333" type="curve" smooth="yes"/>
      <point x="181.33333333333334" y="293.8333333333333"/>
      <point x="212.0" y="321.1666666666667"/>
      <point x="212.0" y="365.5" type="curve" smooth="yes"/>
      <point x="212.0" y="409.8333333333333"/>
      <point x="181.33333333333334" y="437.1666666666667"/>
      <point x="140.33333333333334" y="437.1666666666667" type="curve" smooth="yes"/>
      <point x="99.33333333333333" y="437.1666666666667"/>
      <point x="68.66666666666667" y="409.8333333333333"/>
      <point x="68.66666666666667" y="365.5" type="curve" smooth="yes"/>
      <point x="68.66666666666667" y="321.1666666666667"/>
      <point x="99.33333333333333" y="293.8333333333333"/>
    </contour>
  </outline>
</glyph>
<glyph name="ordmasculine" format="2">
  <advance width="461.8333333333333"/>
  <unicode hex="00BA"/>
  <note>
ordmasculine
</note>
  <outline>
    <contour>
      <point x="36.166666666666664" y="519.5" type="curve" smooth="yes"/>
      <point x="36.166666666666664" y="384.0"/>
      <point x="114.16666666666667" y="312.0"/>
      <point x="230.5" y="312.0" type="curve" smooth="yes"/>
      <point x="345.3333333333333" y="312.0"/>
      <point x="424.8333333333333" y="384.0"/>
      <point x="424.8333333333333" y="519.5" type="curve" smooth="yes"/>
      <point x="424.8333333333333" y="655.0"/>
      <point x="345.3333333333333" y="727.1666666666666"/>
      <point x="230.5" y="727.1666666666666" type="curve" smooth="yes"/>
      <point x="116.66666666666667" y="727.1666666666666"/>
      <point x="36.166666666666664" y="655.0"/>
    </contour>
    <contour>
      <point x="136.33333333333334" y="519.5" type="curve" smooth="yes"/>
      <point x="136.33333333333334" y="606.6666666666666"/>
      <point x="169.33333333333334" y="650.5"/>
      <point x="230.5" y="650.5" type="curve" smooth="yes"/>
      <point x="292.5" y="650.5"/>
      <point x="324.6666666666667" y="606.6666666666666"/>
      <point x="324.6666666666667" y="519.5" type="curve" smooth="yes"/>
      <point x="324.6666666666667" y="432.3333333333333"/>
      <point x="292.5" y="388.5"/>
      <point x="230.5" y="388.5" type="curve" smooth="yes"/>
      <point x="169.33333333333334" y="388.5"/>
      <point x="136.33333333333334" y="432.3333333333333"/>
    </contour>
    <contour>
      <point x="57.166666666666664" y="264.0" type="line"/>
      <point x="57.166666666666664" y="183.33333333333334" type="line"/>
      <point x="403.8333333333333" y="183.33333333333334" type="line"/>
      <point x="403.8333333333333" y="264.0" type="line"/>
    </contour>
  </outline>
</glyph>
<glyph name="guillemetright" format="2">
  <advance width="581.3333333333334"/>
  <unicode hex="00BB"/>
  <note>
guillemotright
</note>
  <outline>
    <contour>
      <point x="295.3333333333333" y="66.0" type="line"/>
      <point x="303.3333333333333" y="66.0" type="line"/>
      <point x="545.3333333333334" y="286.0" type="line"/>
      <point x="545.3333333333334" y="330.0" type="line"/>
      <point x="303.3333333333333" y="550.0" type="line"/>
      <point x="295.3333333333333" y="550.0" type="line"/>
      <point x="295.3333333333333" y="438.6666666666667" type="line"/>
      <point x="443.3333333333333" y="308.0" type="line"/>
      <point x="295.3333333333333" y="177.33333333333334" type="line"/>
    </contour>
    <contour>
      <point x="59.333333333333336" y="66.0" type="line"/>
      <point x="67.33333333333333" y="66.0" type="line"/>
      <point x="309.3333333333333" y="286.0" type="line"/>
      <point x="309.3333333333333" y="330.0" type="line"/>
      <point x="67.33333333333333" y="550.0" type="line"/>
      <point x="59.333333333333336" y="550.0" type="line"/>
      <point x="59.333333333333336" y="438.6666666666667" type="line"/>
      <point x="207.33333333333334" y="308.0" type="line"/>
      <point x="59.333333333333336" y="177.33333333333334" type="line"/>
    </contour>
  </outline>
</glyph>
<glyph name="AE" format="2">
  <advance width="991.6666666666666"/>
  <unicode hex="00C6"/>
  <note>
AE
</note>
  <anchor x="495.8333333333333" y="0.0" name="bottom"/>
  <anchor x="495.8333333333333" y="720.0" name="top"/>
  <outline>
    <contour>
      <point x="43.0" y="0.0" type="line"/>
      <point x="160.0" y="0.0" type="line"/>
      <point x="239.33333333333334" y="476.6666666666667" type="line" smooth="yes"/>
      <point x="256.8333333333333" y="579.6666666666666"/>
      <point x="296.0" y="628.6666666666666"/>
      <point x="418.6666666666667" y="628.6666666666666" type="curve" smooth="yes"/>
      <point x="446.0" y="628.6666666666666"/>
      <point x="472.5" y="626.6666666666666"/>
      <point x="488.8333333333333" y="619.6666666666666" type="curve"/>
      <point x="471.1666666666667" y="652.1666666666666" type="line"/>
      <point x="466.6666666666667" y="629.8333333333334"/>
      <point x="466.0" y="603.6666666666666"/>
      <point x="466.0" y="574.6666666666666" type="curve" smooth="yes"/>
      <point x="466.0" y="0.0" type="line"/>
      <point x="581.3333333333334" y="0.0" type="line"/>
      <point x="581.3333333333334" y="539.3333333333334" type="line" smooth="yes"/>
      <point x="581.3333333333334" y="579.3333333333334"/>
      <point x="581.3333333333334" y="660.0"/>
      <point x="587.6666666666666" y="699.3333333333334" type="curve"/>
      <point x="585.6666666666666" y="711.3333333333334" type="line"/>
      <point x="533.3333333333334" y="723.3333333333334"/>
      <point x="480.0" y="728.0"/>
      <point x="430.0" y="728.0" type="curve" smooth="yes"/>
      <point x="231.33333333333334" y="728.0"/>
      <point x="152.0" y="649.5"/>
      <point x="123.0" y="478.0" type="curve" smooth="yes"/>
    </contour>
    <contour>
      <point x="149.66666666666666" y="211.33333333333334" type="line"/>
      <point x="516.0" y="211.33333333333334" type="line"/>
      <point x="516.0" y="309.3333333333333" type="line"/>
      <point x="149.66666666666666" y="309.3333333333333" type="line"/>
    </contour>
    <contour>
      <point x="531.3333333333334" y="0.0" type="line"/>
      <point x="938.6666666666666" y="0.0" type="line"/>
      <point x="938.6666666666666" y="100.66666666666666" type="line"/>
      <point x="531.3333333333334" y="100.66666666666666" type="line"/>
    </contour>
    <contour>
      <point x="531.3333333333334" y="324.6666666666667" type="line"/>
      <point x="872.6666666666666" y="324.6666666666667" type="line"/>
      <point x="872.6666666666666" y="423.3333333333333" type="line"/>
      <point x="531.3333333333334" y="423.3333333333333" type="line"/>
    </contour>
    <contour>
      <point x="531.3333333333334" y="619.3333333333334" type="line"/>
      <point x="927.3333333333334" y="619.3333333333334" type="line"/>
      <point x="927.3333333333334" y="720.0" type="line"/>
      <point x="531.3333333333334" y="720.0" type="line"/>
    </contour>
  </outline>
</glyph>
<glyph name="multiply" format="2">
  <advance width="616.0"/>
  <unicode hex="00D7"/>
  <note>
multiply
</note>
  <outline>
    <contour>
      <point x="458.1666666666667" y="104.16666666666667" type="line"/>
      <point x="519.8333333333334" y="165.83333333333334" type="line"/>
      <point x="157.83333333333334" y="527.8333333333334" type="line"/>
      <point x="96.16666666666667" y="466.1666666666667" type="line"/>
    </contour>
    <contour>
      <point x="157.83333333333334" y="104.16666666666667" type="line"/>
      <point x="519.8333333333334" y="466.1666666666667" type="line"/>
      <point x="458.1666666666667" y="527.8333333333334" type="line"/>
      <point x="96.16666666666667" y="165.83333333333334" type="line"/>
    </contour>
  </outline>
</glyph>
<glyph name="Thorn" format="2">
  <advance width="618.0"/>
  <unicode hex="00DE"/>
  <note>
Thorn
</note>
  <outline>
    <contour>
      <point x="142.66666666666666" y="116.66666666666667" type="line"/>
      <point x="287.3333333333333" y="116.66666666666667" type="line" smooth="yes"/>
      <point x="482.0" y="116.66666666666667"/>
      <point x="568.0" y="254.0"/>
      <point x="568.0" y="394.0" type="curve" smooth="yes"/>
      <point x="568.0" y="536.6666666666666"/>
      <point x="474.6666666666667" y="610.0"/>
      <point x="326.6666666666667" y="610.0" type="curve" smooth="yes"/>
      <point x="142.66666666666666" y="610.0" type="line"/>
      <point x="142.66666666666666" y="510.6666666666667" type="line"/>
      <point x="324.0" y="510.6666666666667" type="line" smooth="yes"/>
      <point x="400.0" y="510.6666666666667"/>
      <point x="450.0" y="479.3333333333333"/>
      <point x="450.0" y="392.6666666666667" type="curve" smooth="yes"/>
      <point x="450.0" y="294.6666666666667"/>
      <point x="401.3333333333333" y="214.66666666666666"/>
      <point x="286.0" y="214.66666666666666" type="curve" smooth="yes"/>
      <point x="142.66666666666666" y="214.66666666666666" type="line"/>
    </contour>
    <contour>
      <point x="82.66666666666667" y="0.0" type="line"/>
      <point x="198.0" y="0.0" type="line"/>
      <point x="198.0" y="720.0" type="line"/>
      <point x="82.66666666666667" y="720.0" type="line"/>
    </contour>
  </outline>
</glyph>
<glyph name="germandbls" format="2">
  <advance width="606.6666666666666"/>
  <unicode hex="00DF"/>
  <note>
germandbls
</note>
  <outline>
    <contour>
      <point x="392.6666666666667" y="-8.0" type="curve" smooth="yes"/>
      <point x="499.3333333333333" y="-8.0"/>
      <point x="576.0" y="52.666666666666664"/>
      <point x="576.0" y="152.5" type="curve" smooth="yes"/>
      <point x="576.0" y="226.33333333333334"/>
      <point x="536.3333333333334" y="267.3333333333333"/>
      <point x="496.0" y="299.3333333333333" type="curve" smooth="yes"/>
      <point x="481.3333333333333" y="310.6666666666667" type="line" smooth="yes"/>
      <point x="452.0" y="333.3333333333333"/>
      <point x="430.6666666666667" y="354.8333333333333"/>
      <point x="430.6666666666667" y="388.6666666666667" type="curve" smooth="yes"/>
      <point x="430.6666666666667" y="468.0"/>
      <point x="506.0" y="477.3333333333333"/>
      <point x="506.0" y="592.0" type="curve" smooth="yes"/>
      <point x="506.0" y="688.0"/>
      <point x="442.0" y="762.6666666666666"/>
      <point x="316.6666666666667" y="762.6666666666666" type="curve" smooth="yes"/>
      <point x="172.33333333333334" y="762.6666666666666"/>
      <point x="100.0" y="691.1666666666666"/>
      <point x="100.0" y="538.0" type="curve"/>
      <point x="100.0" y="0.0" type="line"/>
      <point x="212.0" y="0.0" type="line"/>
      <point x="212.0" y="558.6666666666666" type="line" smooth="yes"/>
      <point x="212.0" y="630.6666666666666"/>
      <point x="244.0" y="670.6666666666666"/>
      <point x="312.6666666666667" y="670.6666666666666" type="curve" smooth="yes"/>
      <point x="374.0" y="670.6666666666666"/>
      <point x="400.0" y="634.6666666666666"/>
      <point x="400.0" y="586.0" type="curve" smooth="yes"/>
      <point x="400.0" y="500.6666666666667"/>
      <point x="325.3333333333333" y="481.3333333333333"/>
      <point x="325.3333333333333" y="384.0" type="curve" smooth="yes"/>
      <point x="325.3333333333333" y="316.6666666666667"/>
      <point x="362.8333333333333" y="284.8333333333333"/>
      <point x="400.0" y="256.0" type="curve" smooth="yes"/>
      <point x="414.6666666666667" y="244.66666666666666" type="line" smooth="yes"/>
      <point x="444.1666666666667" y="221.83333333333334"/>
      <point x="470.0" y="198.33333333333334"/>
      <point x="470.0" y="156.0" type="curve" smooth="yes"/>
      <point x="470.0" y="105.33333333333333"/>
      <point x="437.3333333333333" y="81.33333333333333"/>
      <point x="384.0" y="81.33333333333333" type="curve" smooth="yes"/>
      <point x="347.3333333333333" y="81.33333333333333"/>
      <point x="320.6666666666667" y="88.66666666666667"/>
      <point x="300.6666666666667" y="96.66666666666667" type="curve"/>
      <point x="292.6666666666667" y="96.66666666666667" type="line"/>
      <point x="292.6666666666667" y="4.0" type="line"/>
      <point x="326.6666666666667" y="-5.0"/>
      <point x="344.6666666666667" y="-8.0"/>
    </contour>
    <contour>
      <point x="14.666666666666666" y="453.0" type="line"/>
      <point x="130.0" y="453.0" type="line"/>
      <point x="130.0" y="544.6666666666666" type="line"/>
      <point x="14.666666666666666" y="544.6666666666666" type="line"/>
    </contour>
  </outline>
</glyph>
<glyph name="ae" format="2">
  <advance width="950.8333333333334"/>
  <unicode hex="00E6"/>
  <note>
ae
</note>
  <anchor x="475.8333333333333" y="0.0" name="bottom"/>
  <anchor x="475.8333333333333" y="544.6666666666666" name="top"/>
  <outline>
    <contour>
      <point x="706.3333333333334" y="-8.666666666666666" type="curve" smooth="yes"/>
      <point x="779.1666666666666" y="-8.666666666666666"/>
      <point x="830.0" y="4.333333333333334"/>
      <point x="864.0" y="20.333333333333332" type="curve"/>
      <point x="864.0" y="115.33333333333333" type="line"/>
      <point x="855.3333333333334" y="115.33333333333333" type="line"/>
      <point x="827.3333333333334" y="99.33333333333333"/>
      <point x="778.0" y="84.0"/>
      <point x="711.3333333333334" y="84.0" type="curve" smooth="yes"/>
      <point x="590.1666666666666" y="84.0"/>
      <point x="511.0" y="130.66666666666666"/>
      <point x="511.0" y="271.0" type="curve" smooth="yes"/>
      <point x="511.0" y="283.6666666666667" type="line" smooth="yes"/>
      <point x="511.0" y="419.0"/>
      <point x="576.0" y="467.3333333333333"/>
      <point x="655.3333333333334" y="467.3333333333333" type="curve" smooth="yes"/>
      <point x="743.8333333333334" y="467.3333333333333"/>
      <point x="787.3333333333334" y="418.6666666666667"/>
      <point x="787.3333333333334" y="326.6666666666667" type="curve" smooth="yes"/>
      <point x="787.3333333333334" y="318.6666666666667" type="line"/>
      <point x="468.6666666666667" y="318.6666666666667" type="line"/>
      <point x="468.6666666666667" y="236.66666666666666" type="line"/>
      <point x="899.5" y="236.66666666666666" type="line"/>
      <point x="900.6666666666666" y="266.6666666666667" type="line" smooth="yes"/>
      <point x="907.1666666666666" y="438.6666666666667"/>
      <point x="838.0" y="557.3333333333334"/>
      <point x="659.3333333333334" y="557.3333333333334" type="curve" smooth="yes"/>
      <point x="502.8333333333333" y="557.3333333333334"/>
      <point x="400.6666666666667" y="446.6666666666667"/>
      <point x="400.6666666666667" y="274.3333333333333" type="curve" smooth="yes"/>
      <point x="400.6666666666667" y="86.0"/>
      <point x="503.6666666666667" y="-8.666666666666666"/>
    </contour>
    <contour>
      <point x="285.6666666666667" y="-12.0" type="curve" smooth="yes"/>
      <point x="385.6666666666667" y="-12.0"/>
      <point x="465.0" y="21.0"/>
      <point x="521.6666666666666" y="59.0" type="curve"/>
      <point x="479.0" y="130.0" type="line"/>
      <point x="462.3333333333333" y="130.0" type="line"/>
      <point x="421.6666666666667" y="98.0"/>
      <point x="366.3333333333333" y="75.0"/>
      <point x="285.6666666666667" y="75.0" type="curve" smooth="yes"/>
      <point x="204.33333333333334" y="75.0"/>
      <point x="156.33333333333334" y="98.66666666666667"/>
      <point x="156.33333333333334" y="161.33333333333334" type="curve" smooth="yes"/>
      <point x="156.33333333333334" y="227.33333333333334"/>
      <point x="203.66666666666666" y="250.0"/>
      <point x="303.0" y="250.0" type="curve" smooth="yes"/>
      <point x="346.3333333333333" y="250.0"/>
      <point x="381.6666666666667" y="242.0"/>
      <point x="407.0" y="234.66666666666666" type="curve"/>
      <point x="454.3333333333333" y="234.66666666666666" type="line"/>
      <point x="454.3333333333333" y="314.6666666666667" type="line"/>
      <point x="407.0" y="314.6666666666667" type="line"/>
      <point x="386.3333333333333" y="321.3333333333333"/>
      <point x="338.8333333333333" y="332.6666666666667"/>
      <point x="284.3333333333333" y="332.6666666666667" type="curve" smooth="yes"/>
      <point x="141.66666666666666" y="332.6666666666667"/>
      <point x="49.333333333333336" y="278.0"/>
      <point x="49.333333333333336" y="160.66666666666666" type="curve" smooth="yes"/>
      <point x="49.333333333333336" y="42.0"/>
      <point x="130.33333333333334" y="-12.0"/>
    </contour>
    <contour>
      <point x="402.0" y="245.33333333333334" type="line"/>
      <point x="509.6666666666667" y="245.33333333333334" type="line"/>
      <point x="509.6666666666667" y="329.3333333333333" type="line" smooth="yes"/>
      <point x="509.6666666666667" y="514.0"/>
      <point x="406.1666666666667" y="557.3333333333334"/>
      <point x="266.6666666666667" y="557.3333333333334" type="curve" smooth="yes"/>
      <point x="211.33333333333334" y="557.3333333333334"/>
      <point x="148.0" y="547.3333333333334"/>
      <point x="100.0" y="528.3333333333334" type="curve"/>
      <point x="100.0" y="434.0" type="line"/>
      <point x="108.66666666666667" y="434.0" type="line"/>
      <point x="140.66666666666666" y="449.6666666666667"/>
      <point x="199.33333333333334" y="465.3333333333333"/>
      <point x="252.66666666666666" y="465.3333333333333" type="curve" smooth="yes"/>
      <point x="352.0" y="465.3333333333333"/>
      <point x="402.0" y="446.0"/>
      <point x="402.0" y="328.6666666666667" type="curve" smooth="yes"/>
    </contour>
  </outline>
</glyph>
<glyph name="eth" format="2">
  <advance width="620.0"/>
  <unicode hex="00F0"/>
  <note>
eth
</note>
  <outline>
    <contour>
      <point x="466.0" y="292.5" type="curve"/>
      <point x="464.6666666666667" y="397.3333333333333" type="line"/>
      <point x="437.1666666666667" y="433.5"/>
      <point x="382.6666666666667" y="468.6666666666667"/>
      <point x="286.0" y="468.6666666666667" type="curve" smooth="yes"/>
      <point x="147.33333333333334" y="468.6666666666667"/>
      <point x="46.666666666666664" y="385.3333333333333"/>
      <point x="46.666666666666664" y="230.66666666666666" type="curve" smooth="yes"/>
      <point x="46.666666666666664" y="91.33333333333333"/>
      <point x="133.66666666666666" y="-12.0"/>
      <point x="293.0" y="-12.0" type="curve" smooth="yes"/>
      <point x="487.6666666666667" y="-12.0"/>
      <point x="566.6666666666666" y="136.0"/>
      <point x="566.6666666666666" y="347.3333333333333" type="curve" smooth="yes"/>
      <point x="566.6666666666666" y="607.5"/>
      <point x="425.5" y="732.0"/>
      <point x="227.0" y="732.0" type="curve" smooth="yes"/>
      <point x="173.0" y="732.0"/>
      <point x="132.0" y="724.6666666666666"/>
      <point x="100.0" y="713.3333333333334" type="curve"/>
      <point x="100.0" y="613.3333333333334" type="line"/>
      <point x="108.0" y="613.3333333333334" type="line"/>
      <point x="136.0" y="625.0"/>
      <point x="172.33333333333334" y="636.0"/>
      <point x="225.66666666666666" y="636.0" type="curve" smooth="yes"/>
      <point x="346.6666666666667" y="636.0"/>
      <point x="453.3333333333333" y="576.1666666666666"/>
      <point x="453.3333333333333" y="356.8333333333333" type="curve" smooth="yes"/>
      <point x="453.3333333333333" y="176.5"/>
      <point x="417.6666666666667" y="80.66666666666667"/>
      <point x="296.3333333333333" y="80.66666666666667" type="curve" smooth="yes"/>
      <point x="197.0" y="80.66666666666667"/>
      <point x="155.33333333333334" y="150.0"/>
      <point x="155.33333333333334" y="232.66666666666666" type="curve" smooth="yes"/>
      <point x="155.33333333333334" y="321.3333333333333"/>
      <point x="204.33333333333334" y="377.3333333333333"/>
      <point x="306.0" y="377.3333333333333" type="curve" smooth="yes"/>
      <point x="382.0" y="377.3333333333333"/>
      <point x="436.0" y="337.0"/>
    </contour>
    <contour>
      <point x="293.6666666666667" y="528.0" type="line"/>
      <point x="493.0" y="734.0" type="line"/>
      <point x="443.6666666666667" y="781.3333333333334" type="line"/>
      <point x="244.33333333333334" y="575.3333333333334" type="line"/>
    </contour>
  </outline>
</glyph>
